<?xml version="1.0" encoding="UTF-8" standalone="no"?><!-- Generator: Gravit.io --><svg xmlns="http://www.w3.org/2000/svg" xmlns:xlink="http://www.w3.org/1999/xlink" style="isolation:isolate" viewBox="0 0 500 500" width="500pt" height="500pt"><defs><clipPath id="_clipPath_zufhVBGHsv4jLqFqugL4Gllzmdmeznwc"><rect width="500" height="500"/></clipPath></defs><g clip-path="url(#_clipPath_zufhVBGHsv4jLqFqugL4Gllzmdmeznwc)"><radialGradient id="_rgradient_0" fx="50%" fy="50%" cx="50%" cy="50%" r="50%"><stop offset="29.166666666666668%" style="stop-color:#FFFF00"/><stop offset="100%" style="stop-color:#FF8000"/></radialGradient><rect width="500" height="500" style="fill:url(#_rgradient_0);"/><g><path d=" M 262.732 4 L 13.463 4 L 13.463 259.5 L 13.463 515 L 262.732 515 L 512 515 L 512 259.5 L 512 4 L 262.732 4 Z " fill-rule="evenodd" fill="none"/><path d=" M 262.732 4 L 13.463 4 L 13.463 259.5 L 13.463 515 L 262.732 515 L 512 515 L 512 259.5 L 512 4 L 262.732 4 Z " fill-rule="evenodd" fill="none"/><path d=" M 496.213 4 C 494.796 4 493.541 4.92 493.305 6.133 C 493.025 7.57 493.973 8.683 496.213 9.545 L 499.537 10.825 L 499.121 7.412 C 498.813 4.878 498.064 4 496.213 4 Z  M 464.639 12.531 C 462.811 12.531 460.381 12.915 459.238 13.384 C 458.096 13.853 455.478 14.045 453.422 13.811 C 451.204 13.557 449.007 14.252 448.021 15.517 C 447.107 16.69 446.733 18.609 447.19 19.782 C 447.647 20.955 449.33 23.067 450.929 24.474 L 453.837 27.033 L 451.345 28.74 C 449.974 29.678 447.543 31.214 445.944 32.152 C 444.344 33.09 442.475 35.394 441.789 37.27 C 441.104 39.147 440.169 42.986 439.712 45.801 L 438.881 50.92 L 441.374 50.493 C 442.745 50.259 445.362 49.299 447.19 48.361 C 449.018 47.422 451.449 46.271 452.591 45.801 C 453.734 45.332 455.977 45.332 457.576 45.801 C 459.176 46.271 465.345 45.695 471.286 44.522 C 477.227 43.349 483.023 42.581 484.165 42.816 C 485.827 43.157 485.827 43.754 484.165 45.801 C 483.023 47.209 480.592 49.32 478.764 50.493 C 476.936 51.666 475.815 53.202 476.272 53.906 C 476.729 54.609 478.037 55.377 479.18 55.612 C 480.322 55.846 483.313 55.079 485.827 53.906 C 488.34 52.733 491.892 51.389 493.72 50.92 C 495.548 50.451 497.605 49.875 498.29 49.64 C 498.976 49.406 499.537 41.536 499.537 32.152 L 499.537 15.09 L 493.72 13.811 C 490.521 13.107 486.221 12.723 484.165 12.957 C 482.109 13.192 479.491 13.768 478.349 14.237 C 477.206 14.706 474.402 14.514 472.117 13.811 C 469.832 13.107 466.467 12.531 464.639 12.531 Z  M 484.165 18.503 C 485.765 18.972 488.195 20.507 489.566 21.915 C 490.937 23.322 493.367 26.202 494.967 28.313 L 497.875 32.152 L 494.136 29.593 C 492.079 28.185 489.462 26.074 488.32 24.901 C 487.177 23.728 485.308 22 484.165 21.062 C 483.023 20.123 481.901 18.972 481.672 18.503 C 481.444 18.033 482.566 18.033 484.165 18.503 Z  M 87.828 46.654 C 86.686 46.654 83.882 47.23 81.597 47.934 C 79.312 48.638 73.142 51.709 67.887 54.759 C 62.632 57.809 53.845 63.951 48.361 68.408 C 42.877 72.866 35.773 79.392 32.574 82.911 C 29.375 86.43 26.384 89.885 25.927 90.588 C 25.47 91.292 25.283 92.06 25.511 92.295 C 25.74 92.529 24.244 95.025 22.188 97.84 C 20.131 100.655 17.514 103.918 16.372 105.091 C 15.229 106.264 12.986 108.567 11.386 110.21 C 9.787 111.852 7.917 114.731 7.232 116.608 C 6.546 118.484 4.864 121.172 3.493 122.579 L 1 125.139 L 1 286.799 L 1 448.459 L 5.57 448.459 C 8.783 448.459 10.263 449.092 10.555 450.592 C 10.784 451.765 10.784 454.068 10.555 455.71 C 10.327 457.353 10.327 458.888 10.555 459.123 C 10.784 459.357 9.101 459.165 6.816 458.696 C 4.531 458.227 2.288 458.035 1.831 458.27 C 1.374 458.504 1 465.606 1 474.052 L 1 489.407 L 8.478 488.554 C 12.591 488.085 17.265 487.509 18.864 487.275 C 20.543 487.028 22.299 487.749 23.019 488.981 C 23.704 490.154 24.826 492.073 25.511 493.246 C 26.434 494.824 29.998 495.379 39.221 495.379 C 46.076 495.379 53.367 495.187 55.424 494.952 C 57.48 494.718 64.397 494.142 70.795 493.673 C 77.193 493.204 85.793 492.628 89.906 492.393 C 94.019 492.159 99.066 491.775 101.123 491.54 C 103.179 491.305 109.909 490.538 116.079 489.834 L 127.296 488.554 L 126.465 492.82 C 126.008 495.166 125.821 498.045 126.05 499.218 C 126.378 500.901 131.717 501.351 151.392 501.351 C 165.102 501.351 178.562 500.967 181.304 500.497 C 184.046 500.028 186.85 500.028 187.536 500.497 C 188.221 500.967 209.347 501.351 234.481 501.351 C 259.616 501.351 281.676 500.967 283.504 500.497 C 285.332 500.028 292.436 499.069 299.291 498.365 C 306.146 497.661 313.437 496.893 315.493 496.659 C 317.55 496.424 319.793 496.424 320.479 496.659 C 321.164 496.893 321.912 498.045 322.141 499.218 C 322.471 500.916 335.84 501.351 387.781 501.351 C 430.974 501.351 453.147 500.774 453.422 499.644 C 453.69 498.542 459.571 497.938 470.04 497.938 C 478.951 497.938 487.925 498.13 489.981 498.365 C 492.038 498.599 495.029 498.599 496.628 498.365 L 499.537 497.938 L 495.798 497.512 C 493.741 497.277 488.693 496.893 484.58 496.659 C 480.468 496.424 478.785 496.04 480.841 495.806 C 482.898 495.571 487.946 495.571 492.059 495.806 L 499.537 496.232 L 499.537 455.71 L 499.537 415.189 L 492.889 415.189 C 489.233 415.189 483.999 414.421 481.257 413.482 C 478.515 412.544 472.533 411.2 467.963 410.497 L 459.654 409.217 L 460.9 402.819 C 461.585 399.3 462.707 395.461 463.393 394.288 C 464.078 393.115 465.761 388.892 467.132 384.904 C 468.503 380.916 471.494 374.006 473.779 369.548 C 476.064 365.091 478.12 362.02 478.349 362.724 C 478.577 363.428 477.269 368.61 475.441 374.24 C 473.613 379.871 471.743 387.165 471.286 390.449 C 470.829 393.733 470.829 398.148 471.286 400.26 C 471.743 402.371 473.052 404.482 474.194 404.952 C 475.372 405.435 476.992 404.881 477.933 403.672 C 478.847 402.499 479.969 399.428 480.426 396.847 C 480.883 394.267 481.818 392.347 482.503 392.582 C 483.189 392.816 483.75 395.504 483.75 398.553 C 483.75 401.603 484.31 405.442 484.996 407.084 C 485.681 408.726 486.803 410.262 487.489 410.497 C 488.174 410.731 488.922 410.155 489.15 409.217 C 489.379 408.279 489.379 405.783 489.15 403.672 C 488.922 401.561 488.735 397.53 488.735 394.715 C 488.735 391.899 489.483 386.141 490.397 381.918 C 491.311 377.695 493.367 370.785 494.967 366.563 C 496.566 362.34 498.249 357.925 498.706 356.752 C 499.163 355.579 499.537 343.678 499.537 330.306 L 499.537 305.993 L 491.643 312.818 C 487.302 316.572 482.254 321.562 480.426 323.908 C 478.598 326.254 476.729 329.325 476.272 330.733 C 475.815 332.14 472.262 337.515 468.378 342.676 C 464.494 347.837 459.633 354.555 457.576 357.605 C 455.52 360.655 453.277 364.686 452.591 366.563 C 451.906 368.439 450.971 371.127 450.514 372.534 C 450.057 373.942 448 378.357 445.944 382.345 C 443.887 386.333 440.896 393.243 439.297 397.7 L 436.389 405.805 L 433.48 406.231 C 431.881 406.466 428.89 406.466 426.833 406.231 C 424.777 405.997 418.981 405.613 413.954 405.378 C 408.928 405.144 403.132 405.144 401.076 405.378 C 399.019 405.613 393.971 405.997 389.859 406.231 C 385.746 406.466 380.885 405.89 379.057 404.952 C 377.229 404.013 374.425 402.67 372.825 401.966 C 371.226 401.262 365.243 400.494 359.531 400.26 C 353.818 400.025 347.462 400.025 345.406 400.26 C 343.349 400.494 338.115 400.878 333.773 401.113 C 329.432 401.347 320.832 401.347 314.663 401.113 C 308.493 400.878 301.763 400.878 299.707 401.113 C 297.65 401.347 295.22 400.963 294.306 400.26 C 293.392 399.556 292.083 395.333 291.398 390.876 C 290.712 386.418 290.338 379.7 290.567 375.947 C 290.795 372.193 290.421 367.778 289.736 366.136 C 289.05 364.494 288.116 361.615 287.659 359.738 C 287.202 357.861 286.828 353.638 286.828 350.354 C 286.828 347.07 286.454 342.463 285.997 340.117 C 285.344 336.763 286.143 334.119 289.736 327.747 C 292.249 323.29 295.801 317.915 297.629 315.804 C 299.457 313.692 303.944 309.47 307.6 306.42 C 311.256 303.37 314.995 299.723 315.909 298.316 C 316.823 296.908 319.627 293.837 322.141 291.491 C 324.654 289.145 328.954 285.114 331.696 282.533 L 336.681 277.841 L 338.759 279.974 C 339.901 281.147 343.64 284.794 347.067 288.078 C 350.495 291.363 356.477 296.161 360.362 298.742 C 364.246 301.323 368.359 304.394 369.502 305.567 C 370.644 306.74 372.327 308.851 373.241 310.259 C 374.155 311.666 376.585 313.01 378.641 313.245 C 381.144 313.53 382.656 312.966 383.211 311.538 C 383.668 310.365 384.229 308.254 384.458 306.846 C 384.686 305.439 385.621 304.095 386.535 303.861 C 387.449 303.626 388.384 302.09 388.612 300.448 C 388.852 298.724 387.448 295.12 385.289 291.917 C 382.924 288.41 381.244 283.863 380.719 279.548 C 380.262 275.794 379.14 270.228 378.226 267.178 C 377.312 264.128 376.938 258.945 377.395 255.661 C 377.852 252.377 378.039 248.346 377.811 246.704 C 377.582 245.061 376.647 243.142 375.733 242.438 C 374.819 241.734 373.511 239.431 372.825 237.32 C 372.14 235.208 370.27 231.753 368.671 229.642 C 367.071 227.531 365.576 224.651 365.347 223.244 C 365.119 221.836 365.306 218.765 365.763 216.419 C 366.237 213.984 365.881 211.604 364.932 210.874 C 364.01 210.164 362.344 210.354 361.193 211.301 C 360.05 212.239 358.742 213.583 358.285 214.286 C 357.828 214.99 357.454 213.455 357.454 210.874 C 357.454 207.575 356.837 206.056 355.376 205.755 C 354.234 205.521 352.364 206.481 351.222 207.888 C 350.079 209.296 348.397 213.519 347.483 217.272 L 345.821 224.097 L 340.42 227.083 C 337.45 228.725 333.524 230.26 331.696 230.495 C 329.868 230.73 326.877 231.689 325.049 232.628 C 323.221 233.566 320.79 234.142 319.648 233.907 C 318.505 233.673 315.888 233.289 313.832 233.054 C 311.775 232.82 308.036 233.395 305.523 234.334 C 303.009 235.272 299.27 235.848 297.214 235.614 C 295.157 235.379 292.166 234.611 290.567 233.907 C 288.967 233.204 285.789 233.012 283.504 233.481 L 279.35 234.334 L 278.103 230.495 C 277.418 228.384 276.296 225.121 275.611 223.244 C 274.925 221.367 272.682 218.296 270.625 216.419 C 268.569 214.542 265.951 211.279 264.809 209.168 C 263.666 207.056 261.984 203.217 261.07 200.637 C 260.156 198.056 258.66 194.601 257.746 192.959 C 256.832 191.317 256.272 187.67 256.5 184.855 C 256.728 182.04 255.794 176.089 254.423 171.632 C 253.052 167.174 251.369 162.184 250.684 160.542 C 249.998 158.9 248.503 156.404 247.36 154.997 C 246.218 153.589 245.096 151.67 244.867 150.731 C 244.582 149.56 245.755 149.293 248.607 149.878 C 250.891 150.347 253.135 150.155 253.592 149.452 C 254.049 148.748 254.049 147.02 253.592 145.613 C 253.135 144.205 252.574 142.478 252.346 141.774 C 252.117 141.07 252.491 139.726 253.176 138.788 C 253.862 137.85 254.984 134.97 255.669 132.39 C 256.355 129.809 256.728 125.778 256.5 123.432 C 256.272 121.086 256.458 118.207 256.915 117.034 C 257.485 115.572 256.441 113.561 253.592 110.636 C 250.862 107.834 248.012 106.225 245.283 105.944 C 242.998 105.709 239.072 106.285 236.559 107.224 C 233.962 108.193 230.194 111.14 227.834 114.048 C 225.549 116.864 221.81 121.854 219.525 125.139 C 217.24 128.423 213.314 134.373 210.801 138.361 C 208.287 142.35 204.361 150.411 202.076 156.276 C 199.791 162.141 197.361 170.203 196.676 174.191 C 195.99 178.179 194.681 184.514 193.767 188.267 C 192.853 192.021 191.358 196.627 190.444 198.504 C 189.53 200.381 188.782 203.836 188.782 206.182 C 188.782 208.528 189.343 210.831 190.028 211.301 C 190.735 211.784 191.635 209.012 192.106 204.902 C 192.563 200.914 193.684 196.499 194.598 195.092 C 195.512 193.684 196.634 191.765 197.091 190.826 C 197.548 189.888 197.735 193.919 197.507 199.784 C 197.278 205.649 196.717 211.983 196.26 213.86 C 195.803 215.737 195.242 218.808 195.014 220.684 C 194.723 223.077 193.728 224.352 191.69 224.95 C 190.091 225.419 185.978 225.419 182.55 224.95 C 179.123 224.481 174.636 223.905 172.58 223.67 C 170.523 223.436 166.784 223.628 164.271 224.097 C 160.615 224.779 159.95 225.291 160.947 226.656 C 161.633 227.594 163.128 229.13 164.271 230.068 C 165.413 231.007 166.909 233.31 167.594 235.187 C 168.28 237.064 169.028 239.559 169.256 240.732 C 169.485 241.905 167.989 244.592 165.933 246.704 C 163.876 248.815 160.511 252.078 158.454 253.955 C 156.398 255.832 153.781 259.671 152.638 262.486 C 151.496 265.301 150.374 270.292 150.146 273.576 C 149.917 276.86 149.917 281.275 150.146 283.386 C 150.374 285.498 150.187 290.68 149.73 294.903 C 149.273 299.126 149.086 304.308 149.315 306.42 C 149.543 308.531 149.73 312.754 149.73 315.804 C 149.73 318.854 149.356 323.652 148.899 326.467 C 148.442 329.283 147.134 336.001 145.991 341.396 C 144.329 349.245 144.329 350.951 145.991 349.927 L 148.068 348.648 L 148.899 352.487 L 149.73 356.326 L 152.223 352.913 C 153.594 351.036 155.463 348.541 156.377 347.368 C 157.291 346.195 158.6 341.396 159.285 336.705 C 159.971 332.013 160.345 326.446 160.116 324.335 C 159.888 322.223 159.701 318.576 159.701 316.23 C 159.701 313.884 159.327 309.278 158.87 305.993 C 158.413 302.709 158.039 297.91 158.039 295.33 C 158.039 291.617 158.125 291.439 158.454 294.477 C 158.683 296.588 159.618 302.922 160.532 308.553 C 161.446 314.183 162.941 320.709 163.855 323.055 C 164.769 325.401 166.078 328.856 166.763 330.733 C 167.449 332.61 167.823 335.873 167.594 337.984 C 167.366 340.096 166.057 343.551 164.686 345.662 C 163.315 347.773 161.259 351.804 160.116 354.619 C 158.974 357.435 157.852 363.385 157.624 367.842 C 157.395 372.3 157.582 379.594 158.039 384.051 C 158.496 388.508 159.431 394.842 160.116 398.127 C 160.802 401.411 161.55 405.826 161.778 407.937 L 162.193 411.776 L 154.3 414.762 C 149.959 416.404 145.472 418.324 144.329 419.028 C 143.187 419.731 141.317 420.691 140.175 421.16 C 139.032 421.629 136.789 421.246 135.189 420.307 L 132.281 418.601 L 131.866 411.35 C 131.637 407.362 131.824 402.179 132.281 399.833 C 132.738 397.487 133.112 393.648 133.112 391.302 C 133.112 388.956 132.177 384.733 131.035 381.918 C 129.385 377.851 128.19 376.625 125.219 375.947 C 122.433 375.311 121.374 374.333 121.064 372.108 C 120.772 370.003 120.036 369.248 118.572 369.548 C 117.372 369.795 115.441 368.533 114.002 366.563 C 112.631 364.686 111.135 363.342 110.678 363.577 C 110.221 363.811 109.66 363.811 109.432 363.577 C 109.203 363.342 109.203 363.726 109.432 364.43 C 109.66 365.134 109.473 365.901 109.016 366.136 C 108.559 366.371 107.998 365.603 107.77 364.43 C 107.541 363.257 106.046 361.721 104.446 361.018 L 101.538 359.738 L 103.615 358.458 C 104.758 357.754 106.067 355.643 106.524 353.766 C 106.981 351.889 106.981 348.818 106.524 346.942 C 106.067 345.065 105.506 342.378 105.277 340.97 C 105.049 339.562 104.301 337.067 103.615 335.425 C 102.93 333.783 101.621 329.56 100.707 326.041 L 99.046 319.643 L 101.538 324.335 C 102.909 326.915 105.34 333.25 106.939 338.411 C 108.538 343.572 110.408 349.138 111.093 350.78 C 111.991 352.929 112.922 353.527 114.417 352.913 C 115.84 352.329 116.363 350.715 116.079 347.795 C 115.795 344.875 116.056 344.068 116.91 345.235 C 117.595 346.174 118.717 348.669 119.402 350.78 C 120.281 353.486 121.262 354.493 122.726 354.193 C 124.198 353.891 124.682 352.649 124.388 349.927 C 124.159 347.816 123.038 343.593 121.895 340.543 L 119.818 334.998 L 122.311 337.558 C 123.682 338.965 126.112 340.309 127.711 340.543 C 129.311 340.778 130.806 340.202 131.035 339.264 C 131.263 338.325 129.768 334.87 127.711 331.586 C 125.655 328.302 122.664 324.079 121.064 322.202 C 119.465 320.325 116.66 315.719 114.833 311.965 C 113.005 308.211 107.957 300.917 103.615 295.756 C 99.274 290.595 94.226 284.837 92.398 282.96 C 90.57 281.083 88.327 277.82 87.413 275.709 C 86.499 273.597 85.377 270.718 84.92 269.311 C 84.463 267.903 82.968 266.367 81.597 265.898 C 80.226 265.429 79.291 264.661 79.52 264.192 C 79.748 263.723 82.552 263.531 85.751 263.765 C 89.926 264.072 94.263 265.877 101.123 270.164 C 106.378 273.448 112.361 277.287 114.417 278.694 C 116.474 280.102 119.091 282.022 120.233 282.96 C 121.376 283.898 122.684 284.09 123.141 283.386 C 123.598 282.683 123.785 280.955 123.557 279.548 C 123.328 278.14 122.394 275.837 121.48 274.429 L 119.818 271.87 L 123.972 272.296 C 126.257 272.531 128.501 272.147 128.958 271.443 C 129.415 270.739 129.602 269.588 129.373 268.884 C 129.145 268.18 127.275 266.645 125.219 265.472 C 123.162 264.299 118.862 261.227 115.663 258.647 C 112.464 256.066 107.604 252.227 104.862 250.116 C 102.12 248.005 96.885 244.55 93.229 242.438 C 89.573 240.327 84.526 238.215 82.012 237.746 C 79.499 237.277 74.451 235.166 70.795 233.054 L 64.148 229.215 L 71.626 229.215 L 79.104 229.215 L 79.52 226.656 C 79.838 224.695 79.159 223.897 76.611 223.244 C 74.783 222.775 72.166 222.007 70.795 221.538 C 69.424 221.068 67.368 220.301 66.225 219.831 C 65.083 219.362 62.465 218.786 60.409 218.552 C 58.352 218.317 54.987 218.317 52.931 218.552 C 50.874 218.786 48.444 218.786 47.53 218.552 C 46.616 218.317 45.307 217.165 44.622 215.992 C 43.936 214.819 43.563 213.476 43.791 213.007 C 44.02 212.537 45.702 211.578 47.53 210.874 C 49.358 210.17 51.228 209.018 51.685 208.315 C 52.142 207.611 53.824 206.267 55.424 205.329 C 57.023 204.39 54.78 204.582 50.438 205.755 C 45.445 207.104 43.003 207.261 43.791 206.182 C 44.477 205.244 48.216 203.516 52.1 202.343 C 55.984 201.17 60.471 199.826 62.071 199.357 C 63.67 198.888 66.288 197.928 67.887 197.225 C 70.188 196.212 70.275 196.034 68.302 196.371 C 66.931 196.606 65.623 196.99 65.394 197.225 C 65.166 197.459 65.166 197.267 65.394 196.798 C 65.623 196.329 67.305 195.561 69.133 195.092 C 70.985 194.617 71.905 193.861 71.211 193.386 C 70.525 192.916 68.843 192.725 67.472 192.959 C 66.101 193.194 64.044 193.961 62.902 194.665 C 61.759 195.369 58.02 197.097 54.593 198.504 C 50.343 200.25 49.287 200.385 51.269 198.931 C 52.869 197.758 55.486 196.222 57.085 195.518 L 59.993 194.239 L 56.254 194.665 C 54.198 194.9 50.833 195.668 48.776 196.371 C 45.921 197.349 46.803 196.342 52.515 192.106 C 56.628 189.056 62.611 185.409 65.81 184.002 C 69.009 182.594 76.113 180.099 81.597 178.457 C 87.081 176.814 92.502 174.895 93.645 174.191 C 94.787 173.487 99.648 172.336 104.446 171.632 C 109.245 170.928 117.845 169.968 123.557 169.499 C 129.269 169.03 136.187 169.222 138.928 169.926 C 141.67 170.63 144.662 171.013 145.576 170.779 C 146.49 170.544 147.424 169.776 147.653 169.073 C 147.881 168.369 146.76 167.409 145.16 166.94 C 143.561 166.471 141.878 165.703 141.421 165.234 C 140.964 164.765 140.777 163.805 141.006 163.101 C 141.234 162.397 139.739 161.629 137.682 161.395 C 135.626 161.16 132.447 161.352 130.62 161.821 C 128.792 162.291 125.053 163.058 122.311 163.528 C 119.569 163.997 112.838 165.148 107.354 166.087 C 101.871 167.025 92.71 168.945 86.998 170.352 C 81.285 171.76 71.564 174.831 65.394 177.177 C 59.225 179.523 51.747 182.402 48.776 183.575 C 45.806 184.748 43.002 185.516 42.545 185.281 C 42.088 185.047 40.966 182.935 40.052 180.589 L 38.39 176.324 L 40.883 174.618 C 42.254 173.679 45.993 171.76 49.192 170.352 C 52.391 168.945 54.073 168.561 52.931 169.499 C 51.788 170.438 48.797 172.165 46.284 173.338 C 43.77 174.511 41.527 176.047 41.298 176.75 C 41.07 177.454 41.444 178.414 42.129 178.883 C 42.815 179.352 48.423 177.625 54.593 175.044 C 60.762 172.464 67.118 169.968 68.718 169.499 C 70.317 169.03 74.243 167.878 77.442 166.94 C 80.641 166.001 83.819 164.466 84.505 163.528 C 85.19 162.589 85.19 161.629 84.505 161.395 C 83.819 161.16 83.445 160.776 83.674 160.542 C 83.902 160.307 83.529 159.923 82.843 159.689 C 82.158 159.454 83.279 158.494 85.336 157.556 C 87.392 156.618 90.383 155.274 91.983 154.57 C 93.582 153.866 96.387 152.715 98.215 152.011 C 100.581 151.1 101.658 149.748 101.954 147.319 C 102.224 145.103 101.641 143.608 100.292 143.053 C 99.149 142.584 96.345 142.776 94.06 143.48 C 91.775 144.184 86.541 145.911 82.428 147.319 C 78.315 148.726 72.893 151.414 70.38 153.29 C 67.866 155.167 61.136 159.006 55.424 161.821 C 49.711 164.637 42.794 168.284 40.052 169.926 C 36.209 172.227 35.162 172.423 35.482 170.779 C 35.711 169.606 39.263 166.151 43.376 163.101 C 48.16 159.554 53.099 157.095 57.085 156.276 C 60.513 155.572 67.243 152.885 72.041 150.305 C 76.84 147.724 83.57 144.461 86.998 143.053 C 90.425 141.646 94.725 139.726 96.553 138.788 C 98.381 137.85 100.063 136.698 100.292 136.229 C 100.52 135.76 99.773 134.992 98.63 134.523 C 97.488 134.053 95.244 134.053 93.645 134.523 C 92.045 134.992 89.989 135.568 89.075 135.802 C 88.077 136.058 88.243 135.376 89.49 134.096 C 90.633 132.923 91.381 131.579 91.152 131.11 C 90.924 130.641 90.924 130.065 91.152 129.831 C 91.381 129.596 90.259 129.596 88.659 129.831 C 87.06 130.065 81.638 132.56 76.611 135.376 C 71.584 138.191 64.106 143.181 59.993 146.466 C 55.881 149.75 49.898 153.973 46.699 155.85 C 43.5 157.727 37.705 161.757 33.82 164.807 C 29.936 167.857 25.823 170.736 24.68 171.205 C 23.019 171.888 23.019 171.632 24.68 169.926 C 25.823 168.753 29.001 165.298 31.743 162.248 C 34.485 159.198 38.037 155.935 39.637 154.997 C 41.236 154.058 44.414 151.371 46.699 149.025 C 48.984 146.679 52.536 143.224 54.593 141.347 C 56.649 139.47 58.706 136.399 59.163 134.523 C 59.62 132.646 60.928 129.959 62.071 128.551 C 63.213 127.143 65.27 125.032 66.641 123.859 C 68.012 122.686 74.742 117.695 81.597 112.769 C 88.452 107.842 96.304 102.66 99.046 101.252 C 101.787 99.844 104.779 98.501 105.693 98.266 C 106.834 97.974 106.443 96.235 104.446 92.721 C 102.847 89.906 101.164 87.411 100.707 87.176 C 100.25 86.942 99.689 87.133 99.461 87.603 C 99.232 88.072 98.298 89.415 97.384 90.588 C 96.47 91.761 93.292 94.449 90.321 96.56 C 87.351 98.671 83.612 101.167 82.012 102.105 C 80.413 103.044 74.991 107.074 69.964 111.063 C 64.937 115.051 56.338 121.961 50.854 126.418 C 45.37 130.876 39.013 136.634 36.728 139.215 C 34.443 141.795 30.518 146.594 28.004 149.878 C 25.491 153.163 23.247 155.658 23.019 155.423 C 22.79 155.189 19.986 157.108 16.787 159.689 C 13.588 162.269 9.849 165.532 8.478 166.94 C 7.107 168.347 5.611 169.691 5.154 169.926 C 4.697 170.16 5.071 169.393 5.985 168.22 C 6.899 167.047 7.46 164.551 7.232 162.674 C 6.942 160.293 8.073 157.715 10.971 154.144 C 13.256 151.328 17.743 145.954 20.941 142.2 C 24.14 138.447 28.814 133.264 31.328 130.684 C 33.841 128.103 36.271 125.224 36.728 124.285 C 37.333 123.044 36.88 122.695 35.067 123.006 C 33.696 123.24 32.013 123.816 31.328 124.285 C 30.642 124.755 33.446 121.108 37.559 116.181 C 41.672 111.255 46.159 106.264 47.53 105.091 C 48.901 103.918 50.958 101.615 52.1 99.972 C 53.242 98.33 55.486 96.411 57.085 95.707 C 58.685 95.003 61.115 93.66 62.486 92.721 C 63.857 91.783 69.279 88.712 74.534 85.896 C 79.79 83.081 84.463 79.818 84.92 78.645 C 85.377 77.472 85.377 75.745 84.92 74.806 C 84.399 73.735 82.853 73.576 80.766 74.38 C 78.938 75.084 75.76 76.427 73.703 77.366 C 71.647 78.304 69.59 79.456 69.133 79.925 C 68.676 80.394 70.172 80.394 72.457 79.925 C 74.742 79.456 77.172 78.88 77.858 78.645 C 78.543 78.411 78.73 78.795 78.273 79.498 C 77.816 80.202 75.573 82.122 73.288 83.764 C 71.003 85.406 66.329 88.285 62.902 90.162 C 59.474 92.039 57.792 92.615 59.163 91.442 C 60.534 90.269 64.46 87.389 67.887 85.043 C 72.557 81.847 73.39 80.885 71.211 81.205 C 69.611 81.439 68.115 81.823 67.887 82.058 C 67.658 82.292 67.658 82.1 67.887 81.631 C 68.115 81.162 67.742 81.162 67.056 81.631 C 66.371 82.1 64.688 83.444 63.317 84.617 C 61.946 85.79 58.768 88.285 56.254 90.162 L 51.685 93.574 L 55.008 90.162 C 56.836 88.285 60.201 84.83 62.486 82.484 C 64.771 80.138 68.697 76.107 71.211 73.527 C 73.724 70.946 76.528 68.259 77.442 67.555 C 78.356 66.851 77.608 67.043 75.78 67.982 C 73.953 68.92 68.531 73.143 63.733 77.366 C 58.934 81.588 54.073 86.195 52.931 87.603 C 51.788 89.01 49.545 90.738 47.946 91.442 C 46.346 92.145 44.103 93.489 42.96 94.427 C 41.575 95.565 41.022 95.565 41.298 94.427 C 41.527 93.489 42.836 91.953 44.207 91.015 C 45.577 90.077 47.821 88.925 49.192 88.456 C 50.563 87.987 53.367 85.683 55.424 83.337 C 57.48 80.991 61.032 77.536 63.317 75.659 C 65.602 73.783 69.902 70.52 72.872 68.408 C 75.843 66.297 80.517 63.034 83.259 61.157 C 86 59.28 88.057 57.553 87.828 57.318 C 87.6 57.083 87.787 56.508 88.244 56.038 C 88.701 55.569 87.766 54.993 86.167 54.759 L 83.259 54.332 L 86.582 52.626 C 88.477 51.654 91.335 51.47 93.229 52.199 C 95.057 52.903 97.114 53.095 97.799 52.626 C 98.485 52.157 99.232 51.389 99.461 50.92 C 99.689 50.451 98.942 49.299 97.799 48.361 C 96.544 47.329 94.078 47.16 91.567 47.934 C 89.283 48.638 85.357 50.173 82.843 51.346 C 80.33 52.519 79.021 52.903 79.935 52.199 C 80.849 51.496 83.092 50.344 84.92 49.64 C 86.748 48.936 88.618 47.977 89.075 47.508 C 89.532 47.038 88.971 46.654 87.828 46.654 Z  M 73.288 48.361 C 72.831 48.361 70.961 49.32 69.133 50.493 C 67.305 51.666 65.436 53.01 64.979 53.479 C 64.522 53.948 65.644 53.756 67.472 53.053 C 69.3 52.349 71.543 51.005 72.457 50.067 C 73.371 49.128 73.745 48.361 73.288 48.361 Z  M 83.674 56.038 C 83.902 56.038 83.902 56.23 83.674 56.465 C 83.445 56.7 83.445 57.083 83.674 57.318 C 83.902 57.553 83.716 58.32 83.259 59.024 C 82.802 59.728 82.054 60.112 81.597 59.877 C 81.14 59.643 81.327 58.683 82.012 57.745 C 82.698 56.806 83.445 56.038 83.674 56.038 Z  M 499.121 62.863 L 498.706 60.304 L 492.889 62.863 C 489.642 64.292 486.89 66.364 486.658 67.555 C 486.395 68.902 487.313 70.16 489.15 70.967 C 490.83 71.706 493.112 71.526 494.551 70.541 C 495.922 69.603 497.605 68.067 498.29 67.129 C 498.976 66.19 499.35 64.271 499.121 62.863 Z  M 31.328 70.541 C 30.185 70.072 28.69 70.072 28.004 70.541 C 27.319 71.01 26.01 72.546 25.096 73.953 C 24.182 75.361 21.378 79.008 18.864 82.058 C 16.351 85.107 11.677 92.209 8.478 97.84 C 5.279 103.47 2.475 107.309 2.246 106.371 C 2.018 105.432 2.766 102.937 3.908 100.826 C 5.051 98.714 8.042 93.916 10.555 90.162 C 13.069 86.408 15.499 82.569 15.956 81.631 C 16.55 80.41 15.959 80.289 13.879 81.205 C 12.279 81.908 10.223 82.676 9.309 82.911 C 8.395 83.145 6.525 84.681 5.154 86.323 C 3.783 87.965 2.288 89.117 1.831 88.882 C 1.374 88.648 1 94.406 1 101.679 C 1 111.266 1.457 114.55 2.662 113.622 C 3.576 112.918 6.193 110.999 8.478 109.356 C 10.763 107.714 13.38 105.411 14.294 104.238 C 15.208 103.065 16.891 100.378 18.033 98.266 C 19.176 96.155 21.045 93.468 22.188 92.295 C 23.33 91.122 27.256 86.707 30.912 82.484 L 37.559 74.806 L 32.159 79.498 C 29.188 82.079 25.823 85.15 24.68 86.323 L 22.603 88.456 L 24.265 85.47 C 25.179 83.828 27.422 80.565 29.25 78.219 C 31.078 75.873 32.761 73.377 32.989 72.674 C 33.218 71.97 32.47 71.01 31.328 70.541 Z  M 52.1 71.394 C 52.328 71.394 52.328 71.778 52.1 72.247 C 51.872 72.716 50.002 74.636 47.946 76.513 L 44.207 79.925 L 47.946 75.659 C 50.002 73.313 51.872 71.394 52.1 71.394 Z  M 497.875 73.1 C 497.418 73.1 494.987 74.06 492.474 75.233 C 489.961 76.406 487.156 78.517 486.242 79.925 C 485.328 81.332 484.767 83.252 484.996 84.19 C 485.224 85.129 486.72 86.472 488.32 87.176 C 489.919 87.88 491.975 89.607 492.889 91.015 C 493.867 92.52 495.578 93.399 497.044 93.148 C 499.016 92.81 499.45 91.92 499.121 88.882 C 498.893 86.771 498.332 84.851 497.875 84.617 C 497.418 84.382 497.605 83.231 498.29 82.058 C 498.976 80.885 499.35 78.389 499.121 76.513 C 498.893 74.636 498.332 73.1 497.875 73.1 Z  M 414.37 84.19 C 413.227 84.19 412.106 84.766 411.877 85.47 C 411.649 86.174 412.397 88.477 413.539 90.588 C 414.682 92.7 415.242 94.619 414.785 94.854 C 414.328 95.089 413.394 94.897 412.708 94.427 C 412.023 93.958 410.527 93.382 409.385 93.148 C 408.242 92.913 406.373 93.489 405.23 94.427 L 403.153 96.134 L 405.646 97.84 C 407.016 98.778 409.634 100.89 411.462 102.532 L 414.785 105.518 L 407.723 102.958 C 403.838 101.551 399.912 100.015 398.998 99.546 C 398.084 99.077 396.589 99.653 395.675 100.826 L 394.013 102.958 L 400.245 105.944 C 403.672 107.586 408.346 110.849 410.631 113.195 L 414.785 117.461 L 409.8 114.475 C 406.916 112.747 403.764 111.848 402.322 112.342 C 400.951 112.811 399.642 113.963 399.414 114.902 C 399.185 115.84 400.12 117.375 401.491 118.314 C 403.313 119.561 403.425 119.905 401.907 119.593 C 400.764 119.359 398.708 118.399 397.337 117.461 C 395.966 116.522 393.909 115.947 392.767 116.181 C 391.624 116.416 388.446 114.688 385.704 112.342 C 382.962 109.996 379.971 107.501 379.057 106.797 C 378.143 106.093 376.647 105.709 375.733 105.944 C 374.759 106.194 374.415 107.428 374.902 108.93 C 375.359 110.337 377.977 113.217 380.719 115.328 L 385.704 119.167 L 381.965 119.593 C 379.909 119.828 376.917 119.636 375.318 119.167 C 373.718 118.698 371.475 118.698 370.333 119.167 C 368.955 119.733 368.535 120.882 369.086 122.579 L 369.917 125.139 L 381.55 126.418 C 387.947 127.122 395.239 128.658 397.752 129.831 C 400.265 131.004 403.257 132.923 404.399 134.096 L 406.476 136.229 L 400.245 136.229 C 396.817 136.229 392.33 136.037 390.274 135.802 C 388.218 135.568 384.105 135.184 381.134 134.949 C 378.164 134.714 374.051 133.947 371.994 133.243 C 369.938 132.539 366.012 131.579 363.27 131.11 C 360.528 130.641 356.789 130.065 354.961 129.831 L 351.637 129.404 L 352.053 131.963 C 352.33 133.674 353.846 134.947 356.623 135.802 C 358.908 136.506 360.216 137.466 359.531 137.935 C 358.845 138.404 356.228 138.596 353.715 138.361 L 349.145 137.935 L 348.729 140.921 C 348.451 142.924 349.271 144.609 351.222 146.039 C 352.821 147.212 356.187 147.98 358.7 147.745 C 361.213 147.511 363.644 147.895 364.101 148.598 C 364.582 149.34 363.358 150.596 361.193 151.584 C 359.136 152.523 357.08 154.25 356.623 155.423 C 356.166 156.596 356.353 157.94 357.038 158.409 C 357.724 158.878 352.302 162.525 344.99 166.513 C 337.678 170.502 330.948 174.148 330.034 174.618 C 329.12 175.087 328.185 176.814 327.957 178.457 C 327.728 180.099 328.102 181.634 328.788 181.869 C 329.473 182.104 331.904 180.952 334.189 179.31 C 336.474 177.667 341.334 174.596 344.99 172.485 C 348.646 170.374 350.703 169.414 349.56 170.352 C 348.418 171.291 346.174 173.21 344.575 174.618 C 342.332 176.591 342.047 177.47 343.328 178.457 C 344.319 179.219 347.34 178.702 350.807 177.177 C 354.005 175.769 357.744 174.426 359.115 174.191 C 360.486 173.957 362.73 173.957 364.101 174.191 C 365.472 174.426 371.267 172.698 376.98 170.352 C 383.918 167.503 388.607 166.37 391.105 166.94 L 394.844 167.793 L 392.767 169.499 C 391.624 170.438 389.381 171.973 387.781 172.912 C 386.182 173.85 384.686 175.385 384.458 176.324 C 384.229 177.262 385.351 178.606 386.95 179.31 C 388.55 180.013 390.606 180.013 391.52 179.31 C 392.434 178.606 394.117 177.262 395.259 176.324 C 396.402 175.385 399.58 173.85 402.322 172.912 C 405.064 171.973 408.803 170.438 410.631 169.499 C 412.459 168.561 417.507 166.641 421.848 165.234 C 426.189 163.826 434.415 161.331 440.128 159.689 C 445.84 158.046 450.327 157.087 450.098 157.556 C 449.87 158.025 446.879 159.561 443.451 160.968 C 440.024 162.376 434.415 164.679 430.988 166.087 C 426.828 167.796 423.237 170.489 420.186 174.191 C 417.673 177.241 415.429 180.696 415.201 181.869 C 414.972 183.042 415.533 184.386 416.447 184.855 C 417.361 185.324 419.978 184.94 422.263 184.002 C 424.548 183.063 427.727 181.528 429.326 180.589 C 430.925 179.651 434.291 177.731 436.804 176.324 C 439.318 174.916 443.43 173.573 445.944 173.338 C 448.457 173.103 452.383 171.952 454.668 170.779 C 456.953 169.606 460.131 168.07 461.731 167.366 L 464.639 166.087 L 462.146 168.22 C 460.775 169.393 457.036 172.272 453.837 174.618 C 450.638 176.964 447.834 179.651 447.606 180.589 C 447.377 181.528 448.312 184.023 449.683 186.134 C 451.054 188.246 453.297 190.357 454.668 190.826 C 456.039 191.296 457.722 192.447 458.407 193.386 C 459.093 194.324 460.215 195.284 460.9 195.518 C 461.585 195.753 464.016 194.025 466.301 191.679 C 468.586 189.333 474.381 184.535 479.18 181.016 C 483.978 177.497 489.213 174.234 490.812 173.765 C 493.113 173.09 493.46 173.267 492.474 174.618 C 491.788 175.556 488.984 178.435 486.242 181.016 C 483.5 183.596 480.696 186.476 480.011 187.414 C 479.325 188.352 474.651 191.807 469.624 195.092 C 464.597 198.376 458.241 203.175 455.499 205.755 C 452.757 208.336 450.14 211.215 449.683 212.154 C 449.226 213.092 449.413 214.244 450.098 214.713 C 450.784 215.182 453.588 214.606 456.33 213.433 C 459.072 212.26 462.624 210.725 464.224 210.021 C 465.823 209.317 468.814 208.933 470.871 209.168 C 473.726 209.494 475.003 208.888 476.272 206.609 C 477.186 204.966 482.233 200.552 487.489 196.798 C 492.744 193.044 497.605 189.589 498.29 189.12 C 498.976 188.651 499.537 173.103 499.537 154.57 L 499.537 120.873 L 497.044 120.02 C 495.673 119.551 493.803 117.823 492.889 116.181 C 491.975 114.539 490.293 112.428 489.15 111.489 C 488.008 110.551 485.578 107.096 483.75 103.811 C 481.922 100.527 479.678 96.688 478.764 95.28 C 477.85 93.873 476.168 92.145 475.025 91.442 C 473.883 90.738 472.387 90.546 471.702 91.015 C 471.016 91.484 471.203 93.596 472.117 95.707 L 473.779 99.546 L 470.455 97.84 C 468.627 96.901 465.636 95.942 463.808 95.707 C 461.98 95.472 459.176 94.705 457.576 94.001 C 455.977 93.297 453.36 93.297 451.76 94.001 C 450.161 94.705 446.983 95.089 444.698 94.854 C 442.145 94.592 439.902 95.25 438.881 96.56 C 437.967 97.733 437.406 99.461 437.635 100.399 C 437.863 101.337 437.676 102.297 437.22 102.532 C 436.763 102.766 437.136 104.494 438.05 106.371 C 438.964 108.247 442.703 112.662 446.359 116.181 C 450.015 119.7 454.689 124.307 456.746 126.418 C 458.802 128.53 461.793 131.985 463.393 134.096 C 465.226 136.517 465.38 136.99 463.808 135.376 C 462.437 133.968 459.82 131.281 457.992 129.404 C 456.164 127.527 453.36 125.224 451.76 124.285 C 450.161 123.347 445.487 118.357 441.374 113.195 C 437.261 108.034 431.466 101.124 428.495 97.84 C 425.525 94.555 421.599 90.141 419.771 88.029 C 417.943 85.918 415.512 84.19 414.37 84.19 Z  M 457.576 99.972 C 461.383 102.077 462.854 103.588 462.562 105.091 C 462.235 106.768 461.082 106.131 457.161 102.105 L 452.176 96.987 L 457.576 99.972 Z  M 450.514 105.944 C 451.885 107.117 455.998 110.764 459.654 114.048 C 463.31 117.333 467.049 121.172 467.963 122.579 C 468.877 123.987 466.446 122.451 462.562 119.167 C 458.677 115.883 453.817 111.084 451.76 108.503 C 449.704 105.923 449.143 104.771 450.514 105.944 Z  M 473.363 114.475 C 474.963 116.117 477.58 119.764 479.18 122.579 C 480.779 125.394 481.714 127.506 481.257 127.271 C 480.8 127.037 478.183 123.39 475.441 119.167 C 472.618 114.82 471.717 112.784 473.363 114.475 Z  M 28.004 114.048 C 28.233 114.048 28.606 115.392 28.835 117.034 C 29.068 118.705 28.153 121.147 26.758 122.579 L 24.265 125.139 L 25.096 122.579 C 25.553 121.172 26.301 118.676 26.758 117.034 C 27.215 115.392 27.776 114.048 28.004 114.048 Z  M 12.633 124.285 C 13.09 124.285 12.342 126.013 10.971 128.124 C 9.6 130.236 7.356 132.731 5.985 133.669 C 4.384 134.765 4.979 133.391 7.647 129.831 C 9.932 126.781 12.176 124.285 12.633 124.285 Z  M 20.941 127.698 C 21.398 127.698 21.025 128.658 20.111 129.831 C 19.197 131.004 17.327 133.691 15.956 135.802 L 13.463 139.641 L 15.956 138.788 C 17.793 138.159 16.81 140.179 12.217 146.466 C 8.79 151.158 5.611 154.805 5.154 154.57 C 4.697 154.336 4.137 152.416 3.908 150.305 C 3.61 147.548 4.664 144.902 7.647 140.921 C 9.932 137.871 13.671 133.648 15.956 131.537 C 18.241 129.425 20.484 127.698 20.941 127.698 Z  M 53.762 130.257 C 53.99 130.257 53.99 130.641 53.762 131.11 C 53.533 131.579 50.355 134.459 46.699 137.508 L 40.052 143.053 L 46.699 136.655 C 50.355 133.136 53.533 130.257 53.762 130.257 Z  M 477.518 137.935 C 483.23 141.688 489.213 145.719 490.812 146.892 C 492.412 148.065 493.346 149.217 492.889 149.452 C 492.432 149.686 491.124 149.494 489.981 149.025 C 488.839 148.556 487.156 147.212 486.242 146.039 C 485.328 144.866 483.833 144.098 482.919 144.333 C 482.005 144.568 480.509 144.568 479.595 144.333 C 478.681 144.098 475.503 141.027 472.533 137.508 L 467.132 131.11 L 477.518 137.935 Z  M 460.485 140.068 C 461.856 140.771 464.099 142.307 465.47 143.48 L 467.963 145.613 L 464.639 144.76 C 462.811 144.29 460.568 142.755 459.654 141.347 L 457.992 138.788 L 460.485 140.068 Z  M 433.065 143.053 C 434.893 144.461 435.828 145.421 435.142 145.186 C 434.457 144.952 432.961 143.8 431.819 142.627 C 430.676 141.454 431.237 141.646 433.065 143.053 Z  M 398.167 145.186 L 400.66 145.613 L 397.337 146.466 C 395.509 146.935 394.387 146.743 394.844 146.039 C 395.301 145.335 396.797 144.952 398.167 145.186 Z  M 417.278 147.745 C 419.041 148.047 417.826 148.921 413.124 150.731 C 409.468 152.139 403.485 154.442 399.829 155.85 C 396.173 157.257 392.621 158.217 391.936 157.982 C 391.25 157.748 394.802 155.828 399.829 153.717 C 404.856 151.606 410.278 149.302 411.877 148.598 C 413.477 147.895 415.907 147.511 417.278 147.745 Z  M 445.113 150.305 L 447.19 151.584 L 442.205 153.717 C 439.463 154.89 435.724 156.042 433.896 156.276 L 430.572 156.703 L 436.804 152.864 C 441.258 150.12 443.628 149.39 445.113 150.305 Z  M 426.833 152.011 C 427.062 152.245 425.94 153.205 424.341 154.144 C 422.741 155.082 417.32 157.385 412.293 159.262 C 407.266 161.139 403.714 162.099 404.399 161.395 C 405.085 160.691 410.319 158.196 416.032 155.85 C 421.744 153.504 426.605 151.776 426.833 152.011 Z  M 31.328 152.437 C 31.556 152.437 31.93 152.821 32.159 153.29 C 32.387 153.76 30.891 155.679 28.835 157.556 L 25.096 160.968 L 28.004 156.703 C 29.604 154.357 31.099 152.437 31.328 152.437 Z  M 20.111 154.144 C 19.654 154.144 18.158 155.295 16.787 156.703 C 15.416 158.11 12.799 160.798 10.971 162.674 C 9.143 164.551 10.638 163.4 14.294 160.115 C 17.95 156.831 20.568 154.144 20.111 154.144 Z  M 47.115 156.703 C 47.343 156.703 45.661 158.43 43.376 160.542 L 39.221 164.381 L 42.96 160.542 C 45.017 158.43 46.886 156.703 47.115 156.703 Z  M 17.202 164.807 C 17.431 165.511 18.179 165.895 18.864 165.66 C 19.55 165.426 19.924 165.618 19.695 166.087 C 19.467 166.556 18.158 168.092 16.787 169.499 C 15.416 170.907 14.107 171.483 13.879 170.779 C 13.65 170.075 14.211 168.156 15.125 166.513 C 16.039 164.871 16.974 164.103 17.202 164.807 Z  M 130.62 170.352 C 127.878 170.352 123.952 170.544 121.895 170.779 C 119.839 171.013 117.969 171.397 117.741 171.632 C 117.512 171.866 120.69 172.058 124.803 172.058 C 128.916 172.058 133.029 171.675 133.943 171.205 C 134.857 170.736 133.361 170.352 130.62 170.352 Z  M 465.47 179.736 C 465.927 179.736 465.366 181.272 464.224 183.149 C 463.081 185.025 461.025 187.329 459.654 188.267 L 457.161 189.973 L 457.992 187.414 C 458.449 186.006 460.131 183.703 461.731 182.295 C 463.33 180.888 465.013 179.736 465.47 179.736 Z  M 82.012 195.518 C 81.327 195.284 76.84 196.819 72.041 198.931 C 67.243 201.042 60.887 204.305 57.916 206.182 L 52.515 209.594 L 55.424 210.021 C 57.023 210.255 63.005 208.336 68.718 205.755 C 74.43 203.175 80.039 200.871 81.181 200.637 C 82.414 200.384 82.753 199.864 82.012 199.357 C 81.327 198.888 81.327 197.928 82.012 197.225 C 82.698 196.521 82.698 195.753 82.012 195.518 Z  M 498.29 199.357 C 498.062 199.357 496.192 200.893 494.136 202.77 C 492.079 204.646 490.584 206.95 490.812 207.888 C 491.041 208.827 491.602 210.17 492.059 210.874 C 492.516 211.578 491.581 213.689 489.981 215.566 C 488.382 217.443 483.521 221.09 479.18 223.67 C 474.838 226.251 467.921 231.049 463.808 234.334 C 459.695 237.618 455.395 242.033 454.253 244.144 C 453.11 246.256 451.241 248.943 450.098 250.116 C 448.956 251.289 447.834 252.825 447.606 253.528 C 447.377 254.232 448.499 255.768 450.098 256.941 C 451.698 258.114 453.941 258.882 455.084 258.647 C 456.226 258.412 458.844 256.493 460.9 254.381 L 464.639 250.543 L 463.393 253.528 C 462.707 255.171 460.464 259.009 458.407 262.059 C 456.351 265.109 453.173 269.14 451.345 271.017 C 449.517 272.893 446.712 275.773 445.113 277.415 C 443.514 279.057 440.522 282.896 438.466 285.946 C 436.409 288.996 434.353 292.067 433.896 292.77 C 433.439 293.474 432.504 295.202 431.819 296.609 C 431.133 298.017 429.451 300.704 428.08 302.581 C 426.709 304.458 425.213 307.337 424.756 308.979 C 424.299 310.621 424.112 313.117 424.341 314.524 L 424.756 317.083 L 427.249 315.377 C 428.62 314.439 430.302 312.327 430.988 310.685 C 431.673 309.043 432.982 307.124 433.896 306.42 C 434.81 305.716 436.306 305.332 437.22 305.567 C 438.359 305.859 437.837 307.602 435.558 311.112 C 433.73 313.927 431.673 317.574 430.988 319.216 C 430.302 320.858 430.115 323.162 430.572 324.335 C 431.029 325.508 432.338 326.275 433.48 326.041 C 434.714 325.788 435.726 324.228 435.973 322.202 C 436.202 320.325 441.436 311.688 447.606 303.008 C 453.775 294.327 461.627 283.962 465.054 279.974 C 468.482 275.986 472.782 271.187 474.61 269.311 C 476.438 267.434 480.738 263.211 484.165 259.927 C 487.592 256.642 492.453 252.419 494.967 250.543 L 499.537 247.13 L 499.121 243.291 L 498.706 239.452 L 490.812 245.424 C 486.471 248.708 481.61 252.163 480.011 253.102 L 477.102 254.808 L 480.011 251.822 C 481.61 250.18 485.723 246.917 489.15 244.571 C 492.578 242.225 496.317 239.73 497.459 239.026 C 498.602 238.322 499.35 236.595 499.121 235.187 L 498.706 232.628 L 492.889 236.467 L 487.073 240.306 L 492.059 235.187 C 494.8 232.372 497.605 229.685 498.29 229.215 C 498.976 228.746 499.537 224.139 499.537 218.978 C 499.537 213.817 499.35 209.402 499.121 209.168 C 498.893 208.933 498.893 207.014 499.121 204.902 C 499.35 202.791 499.35 200.68 499.121 200.21 C 498.893 199.741 498.519 199.357 498.29 199.357 Z  M 51.685 213.007 C 51.228 213.007 49.545 213.774 47.946 214.713 L 45.037 216.419 L 47.53 215.992 C 48.901 215.758 50.584 214.99 51.269 214.286 C 51.955 213.583 52.142 213.007 51.685 213.007 Z  M 47.53 224.097 C 52.557 224.097 57.231 224.481 57.916 224.95 C 58.602 225.419 56.171 225.611 52.515 225.376 C 48.86 225.142 44.186 224.758 42.129 224.523 C 40.073 224.289 42.503 224.097 47.53 224.097 Z  M 38.806 232.201 C 39.491 232.436 43.417 233.587 47.53 234.76 C 51.643 235.933 55.195 237.277 55.424 237.746 C 55.652 238.215 53.596 238.215 50.854 237.746 C 48.112 237.277 43.812 236.125 41.298 235.187 C 38.785 234.249 36.915 233.097 37.144 232.628 C 37.372 232.159 38.12 231.967 38.806 232.201 Z  M 62.486 234.334 C 65.685 235.741 69.237 237.853 70.38 239.026 C 71.627 240.306 70.298 239.965 67.056 238.173 C 64.086 236.531 60.534 234.419 59.163 233.481 C 57.792 232.542 59.287 232.926 62.486 234.334 Z  M 50.438 241.159 C 50.667 241.159 52.162 241.542 53.762 242.012 C 55.361 242.481 56.483 243.057 56.254 243.291 C 56.026 243.526 54.53 243.142 52.931 242.438 C 51.331 241.734 50.21 241.159 50.438 241.159 Z  M 80.766 242.012 C 81.223 242.012 83.092 242.779 84.92 243.718 L 88.244 245.424 L 85.336 244.571 C 83.736 244.102 81.867 243.334 81.181 242.865 C 80.496 242.396 80.309 242.012 80.766 242.012 Z  M 76.611 245.424 C 77.068 245.424 79.686 246.192 82.428 247.13 C 85.17 248.069 90.965 250.564 95.307 252.675 C 99.648 254.787 104.509 257.474 106.108 258.647 C 107.708 259.82 108.642 260.972 108.185 261.206 C 107.728 261.441 104.55 259.713 101.123 257.367 C 97.695 255.021 90.591 251.374 85.336 249.263 C 80.08 247.152 76.154 245.424 76.611 245.424 Z  M 70.38 248.836 C 72.436 249.775 77.484 252.078 81.597 253.955 C 85.71 255.832 89.262 257.751 89.49 258.22 C 89.719 258.69 87.849 258.114 85.336 256.941 C 82.822 255.768 77.962 253.656 74.534 252.249 C 71.107 250.841 67.929 249.114 67.472 248.41 C 67.015 247.706 68.323 247.898 70.38 248.836 Z  M 472.117 248.836 C 472.574 248.836 472.761 249.22 472.533 249.689 C 472.304 250.159 471.182 251.502 470.04 252.675 L 467.963 254.808 L 469.624 251.822 C 470.538 250.18 471.66 248.836 472.117 248.836 Z  M 37.559 259.5 C 38.93 260.204 40.8 261.931 41.714 263.339 C 42.691 264.844 41.664 264.317 39.221 262.059 C 36.936 259.948 36.188 258.796 37.559 259.5 Z  M 67.056 258.22 C 67.285 258.22 68.406 258.796 69.549 259.5 C 70.691 260.204 72.374 262.699 73.288 265.045 L 74.95 269.311 L 72.872 267.604 C 71.73 266.666 69.86 264.171 68.718 262.059 C 67.575 259.948 66.828 258.22 67.056 258.22 Z  M 52.1 260.78 C 52.785 261.249 53.72 262.209 54.177 262.912 C 54.634 263.616 53.886 263.616 52.515 262.912 C 51.144 262.209 50.21 261.249 50.438 260.78 C 50.667 260.31 51.415 260.31 52.1 260.78 Z  M 498.706 262.486 C 498.249 262.486 497.127 264.021 496.213 265.898 C 495.299 267.775 494.738 270.27 494.967 271.443 C 495.195 272.616 496.317 273.768 497.459 274.003 L 499.537 274.429 L 499.537 268.457 C 499.537 265.173 499.163 262.486 498.706 262.486 Z  M 72.872 271.87 C 73.558 272.339 74.867 274.066 75.78 275.709 C 76.888 277.699 76.888 278.41 75.78 277.841 C 74.867 277.372 73.558 275.645 72.872 274.003 C 72.187 272.36 72.187 271.401 72.872 271.87 Z  M 24.68 273.576 C 24.909 273.576 25.844 274.728 26.758 276.135 C 27.672 277.543 29.541 280.998 30.912 283.813 C 32.669 287.421 32.792 288.302 31.328 286.799 C 30.185 285.626 28.316 283.706 27.173 282.533 C 26.031 281.36 24.909 278.865 24.68 276.988 C 24.452 275.112 24.452 273.576 24.68 273.576 Z  M 55.424 294.903 C 57.023 297.718 59.827 303.285 61.655 307.273 C 63.483 311.261 65.54 316.636 66.225 319.216 C 67.122 322.59 67.005 323.549 65.81 322.629 C 64.896 321.925 63.4 319.813 62.486 317.937 C 61.572 316.06 59.329 310.493 57.501 305.567 C 55.673 300.64 53.803 295.074 53.346 293.197 C 52.682 290.468 53.098 290.81 55.424 294.903 Z  M 71.626 297.889 C 72.997 299.531 75.24 303.562 76.611 306.846 C 77.982 310.131 80.039 315.121 81.181 317.937 C 82.324 320.752 84.006 324.591 84.92 326.467 C 85.834 328.344 86.395 330.264 86.167 330.733 C 85.938 331.202 86.873 332.162 88.244 332.866 C 89.615 333.569 91.858 333.953 93.229 333.719 C 94.6 333.484 95.535 332.716 95.307 332.013 C 95.078 331.309 93.956 327.662 92.814 323.908 C 91.671 320.155 90.363 314.972 89.906 312.391 C 89.449 309.811 89.636 308.083 90.321 308.553 C 91.007 309.022 92.502 313.628 93.645 318.79 C 94.787 323.951 96.283 330.285 96.968 332.866 C 97.654 335.446 98.402 339.285 98.63 341.396 C 98.955 344.4 99.678 345.328 101.954 345.662 L 104.862 346.088 L 101.954 348.221 C 100.354 349.394 98.298 351.506 97.384 352.913 C 96.47 354.321 95.161 356.24 94.476 357.179 C 93.79 358.117 92.481 358.693 91.567 358.458 C 90.653 358.224 88.223 357.264 86.167 356.326 C 83.738 355.217 81.991 353.274 81.181 350.78 L 79.935 346.942 L 77.442 347.795 C 76.071 348.264 74.202 349.607 73.288 350.78 C 72.374 351.953 70.878 354.065 69.964 355.472 C 68.749 357.343 68.079 357.573 67.472 356.326 C 67.015 355.387 66.828 353.468 67.056 352.06 C 67.285 350.653 68.406 347.773 69.549 345.662 C 70.691 343.551 71.439 341.055 71.211 340.117 C 70.982 339.178 70.047 338.219 69.133 337.984 C 68.219 337.75 65.415 338.901 62.902 340.543 C 59.398 342.833 58.429 343.032 58.747 341.396 C 58.976 340.223 58.976 337.92 58.747 336.278 C 58.519 334.636 57.397 333.1 56.254 332.866 C 54.891 332.586 53.321 333.904 51.685 336.705 C 50.314 339.051 48.257 342.314 47.115 343.956 C 45.499 346.278 44.76 346.562 43.791 345.235 C 43.106 344.297 42.732 341.034 42.96 337.984 L 43.376 332.439 L 47.53 329.027 C 50.584 326.518 51.575 324.824 51.269 322.629 C 50.937 320.24 50.272 319.728 47.946 320.069 C 46.346 320.304 43.542 321.648 41.714 323.055 L 38.39 325.614 L 39.221 322.629 C 39.678 320.986 40.239 317.915 40.467 315.804 C 40.696 313.692 40.696 310.429 40.467 308.553 C 40.239 306.676 39.865 303.029 39.637 300.448 C 39.333 297.019 39.668 295.986 40.883 296.609 C 41.797 297.079 43.293 297.27 44.207 297.036 C 45.12 296.801 46.616 297.569 47.53 298.742 C 48.444 299.915 50.127 302.986 51.269 305.567 C 52.412 308.147 54.468 313.906 55.839 318.363 C 57.21 322.82 59.08 327.427 59.993 328.6 C 60.907 329.773 62.216 330.541 62.902 330.306 C 63.587 330.072 65.083 329.304 66.225 328.6 C 67.488 327.822 68.628 327.989 69.133 329.027 C 69.59 329.965 70.525 331.693 71.211 332.866 C 72.038 334.282 73.015 334.568 74.119 333.719 C 75.033 333.015 75.594 331.671 75.365 330.733 C 75.137 329.794 75.137 327.107 75.365 324.761 C 75.594 322.415 75.407 319.152 74.95 317.51 C 74.493 315.868 72.997 310.109 71.626 304.714 L 69.133 294.903 L 71.626 297.889 Z  M 203.323 320.496 C 204.465 320.496 206.709 321.264 208.308 322.202 C 210.219 323.324 211.074 324.785 210.801 326.467 C 210.572 327.875 210.385 331.906 210.385 335.425 C 210.385 338.944 210.011 344.126 209.554 346.942 C 209.097 349.757 208.911 354.747 209.139 358.032 L 209.554 364.003 L 212.047 362.297 C 213.67 361.186 215.12 357.761 216.202 352.487 C 217.116 348.029 218.237 342.463 218.694 340.117 L 219.525 335.851 L 220.356 338.411 C 220.995 340.38 221.666 340.675 223.264 339.69 C 224.426 338.975 225.891 335.401 226.588 331.586 C 227.273 327.832 228.021 325.721 228.25 326.894 C 228.478 328.067 229.413 329.603 230.327 330.306 C 231.241 331.01 232.736 332.546 233.65 333.719 C 234.564 334.892 235.686 338.347 236.143 341.396 L 236.974 346.942 L 240.713 345.662 C 242.769 344.958 244.826 343.231 245.283 341.823 C 245.74 340.415 246.862 337.344 247.776 334.998 C 248.69 332.652 249.624 331.117 249.853 331.586 C 250.081 332.055 251.203 332.823 252.346 333.292 C 253.488 333.761 254.984 333.377 255.669 332.439 C 256.355 331.501 257.663 330.925 258.577 331.159 C 259.491 331.394 261.361 332.546 262.732 333.719 C 264.103 334.892 265.411 336.619 265.64 337.558 C 265.868 338.496 265.681 340.223 265.224 341.396 C 264.767 342.569 263.272 347.176 261.901 351.634 C 260.53 356.091 258.847 360.698 258.162 361.871 C 257.476 363.044 255.794 368.034 254.423 372.961 C 253.052 377.887 250.808 384.989 249.437 388.743 C 248.066 392.496 245.823 396.719 244.452 398.127 C 242.707 399.918 238.593 401.07 230.742 401.966 C 224.573 402.67 214.664 404.013 208.724 404.952 C 202.783 405.89 196.239 406.466 194.183 406.231 C 191.421 405.916 190.227 405.025 189.613 402.819 C 189.156 401.177 188.034 397.146 187.12 393.861 C 186.206 390.577 183.963 384.243 182.135 379.785 C 180.307 375.328 179.185 370.721 179.642 369.548 C 180.099 368.375 180.66 365.88 180.889 364.003 C 181.117 362.127 182.239 357.136 183.381 352.913 C 184.524 348.69 186.767 343.508 188.367 341.396 C 189.966 339.285 191.649 335.83 192.106 333.719 C 192.563 331.607 193.497 328.536 194.183 326.894 C 194.868 325.252 196.738 323.14 198.337 322.202 C 199.937 321.264 202.18 320.496 203.323 320.496 Z  M 495.798 328.174 C 496.026 328.174 495.465 330.477 494.551 333.292 C 493.637 336.107 491.394 341.674 489.566 345.662 L 486.242 352.913 L 487.489 347.368 C 488.174 344.318 490.231 338.752 492.059 334.998 C 493.887 331.245 495.569 328.174 495.798 328.174 Z  M 273.118 361.444 C 273.346 361.444 274.281 366.435 275.195 372.534 C 276.109 378.634 277.231 385.16 277.688 387.037 C 278.145 388.914 278.706 392.369 278.934 394.715 C 279.163 397.061 278.976 399.172 278.519 399.407 C 278.062 399.641 276.379 400.217 274.78 400.686 C 273.18 401.155 269.441 401.155 266.471 400.686 C 263.5 400.217 260.135 400.217 258.993 400.686 C 257.85 401.155 257.102 401.155 257.331 400.686 C 257.559 400.217 258.494 396.762 259.408 393.008 C 260.322 389.255 262.752 384.072 264.809 381.492 C 266.865 378.911 269.483 373.345 270.625 369.122 C 271.768 364.899 272.889 361.444 273.118 361.444 Z  M 482.503 364.43 C 482.732 364.664 481.797 368.887 480.426 373.814 C 479.055 378.74 477.372 384.115 476.687 385.757 C 476.001 387.399 476.936 383.177 478.764 376.373 C 480.592 369.57 482.275 364.195 482.503 364.43 Z  M 463.393 368.269 C 463.621 368.269 463.247 369.612 462.562 371.255 C 461.876 372.897 459.633 377.503 457.576 381.492 C 455.52 385.48 452.716 392.006 451.345 395.994 C 449.974 399.982 449.039 403.629 449.267 404.098 C 449.496 404.568 450.057 404.76 450.514 404.525 C 450.971 404.29 451.158 405.058 450.929 406.231 C 450.701 407.404 449.953 408.748 449.267 409.217 C 448.582 409.686 446.712 409.686 445.113 409.217 C 442.88 408.562 442.301 407.67 442.62 405.378 C 442.849 403.736 443.784 400.089 444.698 397.274 C 445.612 394.459 447.855 390.236 449.683 387.89 C 451.511 385.544 455.25 380.169 457.992 375.947 C 460.734 371.724 463.164 368.269 463.393 368.269 Z  M 168.425 381.065 C 168.654 381.065 169.215 382.217 169.672 383.624 C 170.129 385.032 171.811 387.335 173.411 388.743 C 175.01 390.15 176.88 392.838 177.565 394.715 C 178.251 396.591 179.559 399.087 180.473 400.26 C 181.387 401.433 181.761 402.584 181.304 402.819 C 180.847 403.053 179.538 404.397 178.396 405.805 C 177.253 407.212 175.945 408.172 175.488 407.937 C 175.031 407.703 174.47 407.703 174.241 407.937 C 174.013 408.172 173.452 408.172 172.995 407.937 C 172.538 407.703 171.416 404.056 170.502 399.833 C 169.588 395.61 168.654 389.66 168.425 386.61 C 168.197 383.56 168.197 381.065 168.425 381.065 Z  M 295.137 413.482 C 296.051 413.482 302.22 413.674 308.846 413.909 L 320.894 414.336 L 314.247 415.189 C 310.591 415.658 306.104 415.658 304.276 415.189 C 302.448 414.719 299.27 414.144 297.214 413.909 C 295.157 413.674 294.223 413.482 295.137 413.482 Z  M 241.959 444.194 L 242.79 451.018 L 246.114 451.871 C 247.942 452.341 251.12 452.916 253.176 453.151 C 255.233 453.386 257.102 453.962 257.331 454.431 C 257.559 454.9 255.129 455.668 251.93 456.137 C 248.731 456.606 242.562 457.182 238.22 457.417 C 233.879 457.651 228.831 457.459 227.003 456.99 L 223.68 456.137 L 228.25 454.857 C 230.763 454.153 234.128 453.194 235.728 452.725 L 238.636 451.871 L 239.882 444.62 L 241.128 437.369 L 241.959 444.194 Z  M 327.541 442.061 C 331.197 442.296 333.441 442.871 332.527 443.341 C 331.613 443.81 324.883 444.578 317.571 445.047 C 310.259 445.516 302.594 446.092 300.537 446.326 C 298.481 446.561 295.49 446.561 293.89 446.326 C 292.291 446.092 294.347 445.324 298.46 444.62 C 302.573 443.916 309.303 442.957 313.416 442.487 C 317.529 442.018 323.886 441.826 327.541 442.061 Z  M 382.796 442.487 C 383.938 442.487 386.182 442.871 387.781 443.341 C 389.381 443.81 390.502 444.578 390.274 445.047 C 390.045 445.516 387.241 446.092 384.042 446.326 C 380.843 446.561 378.039 446.369 377.811 445.9 C 377.582 445.431 378.143 444.471 379.057 443.767 C 379.971 443.063 381.653 442.487 382.796 442.487 Z  M 472.117 442.487 L 475.441 442.487 L 473.779 448.886 C 472.629 453.312 471.349 455.547 469.624 456.137 C 468.253 456.606 466.945 456.798 466.716 456.563 C 466.488 456.329 466.114 456.329 465.885 456.563 C 465.657 456.798 463.04 456.99 460.069 456.99 L 454.668 456.99 L 456.33 454.857 C 457.244 453.684 459.301 451.381 460.9 449.739 C 462.499 448.097 464.93 445.793 466.301 444.62 C 467.672 443.447 470.289 442.487 472.117 442.487 Z  M 427.249 456.137 L 432.234 456.137 L 430.157 459.549 L 428.08 462.962 L 418.524 464.668 C 413.269 465.606 405.043 466.95 400.245 467.654 C 395.446 468.357 389.277 469.317 386.535 469.786 C 383.793 470.255 377.063 471.023 371.579 471.492 C 366.095 471.962 361.047 471.962 360.362 471.492 C 359.676 471.023 365.659 469.68 373.656 468.507 C 381.653 467.334 387.823 466.182 387.366 465.947 C 386.909 465.713 378.122 466.481 367.84 467.654 C 357.558 468.827 347.462 469.978 345.406 470.213 C 343.349 470.447 340.171 470.447 338.343 470.213 C 336.515 469.978 335.206 469.594 335.435 469.36 C 335.663 469.125 338.655 468.357 342.082 467.654 C 345.51 466.95 352.801 465.798 358.285 465.094 C 363.768 464.391 371.247 463.431 374.902 462.962 C 378.558 462.492 386.597 461.341 392.767 460.402 C 398.936 459.464 408.097 458.12 413.124 457.417 C 418.15 456.713 424.507 456.137 427.249 456.137 Z  M 318.402 461.682 C 322.058 461.917 324.301 462.492 323.387 462.962 C 322.473 463.431 320.043 464.007 317.986 464.241 C 315.93 464.476 312.004 464.668 309.262 464.668 L 304.276 464.668 L 308.015 462.962 C 310.072 462.023 314.746 461.447 318.402 461.682 Z  M 317.155 465.521 L 323.387 465.521 L 324.218 468.933 C 324.804 471.338 325.907 472.472 327.957 472.772 C 329.77 473.038 328.362 473.681 324.218 474.478 C 320.562 475.182 313.645 476.142 308.846 476.611 C 304.048 477.08 296.57 477.848 292.228 478.317 C 287.887 478.786 280.222 479.746 275.195 480.45 C 270.168 481.154 263.812 481.538 261.07 481.303 C 257.701 481.015 256.219 480.324 256.5 479.17 C 256.728 478.232 257.85 477.08 258.993 476.611 C 260.135 476.142 264.435 475.374 268.548 474.905 C 272.661 474.436 277.896 473.668 280.18 473.199 C 282.465 472.729 278.539 472.921 271.456 473.625 C 264.373 474.329 258.016 474.521 257.331 474.052 C 256.595 473.548 257.274 472.675 258.993 471.919 C 260.592 471.215 265.453 470.447 269.794 470.213 C 274.136 469.978 279.931 469.402 282.673 468.933 C 285.415 468.464 291.211 467.696 295.552 467.227 C 299.893 466.758 305.128 466.182 307.185 465.947 C 309.241 465.713 313.728 465.521 317.155 465.521 Z " fill-rule="evenodd" fill="rgb(0,0,0)"/></g></g></svg>