<?xml version="1.0" encoding="UTF-8"?>
<svg width="600pt" height="600pt" style="isolation:isolate" viewBox="0 0 600 600" xmlns="http://www.w3.org/2000/svg">
<defs>
<clipPath id="b">
<rect width="600" height="600"/>
</clipPath>
</defs>
<g clip-path="url(#b)" fill-rule="evenodd">
<path d="m300 0h-300v300 300h300 300v-300-300h-300z" fill="#f1b1c1"/>
<path d="m300 0h-300v300 300h300 300v-300-300h-300z" fill="#fff"/>
<path d="m300 0h-300v300 300h300 300v-300-300h-300z"/>
<radialGradient id="a" cx=".5" cy=".5" r=".5" gradientTransform="scale(600)" gradientUnits="userSpaceOnUse">
<stop stop-color="#ffd500" offset=".7"/>
<stop stop-color="#f93e00" offset="1"/>
<stop offset="1"/>
</radialGradient>
<path d="m71 0h-71v300 300h105 105l-3.5-11c-1.925-6.05-4.4-12.8-5.5-15s-3.125-6.7-4.5-10-4.975-8.25-8-11-8.2-6.8-11.5-9-9.6-7.375-14-11.5-11.6-12-16-17.5-8.9-11.575-10-13.5-1.775-3.725-1.5-4 1.625 0.625 3 2 5.425 4.3 9 6.5 7.175 4.45 8 5 0.15-1.25-1.5-4-3.675-6.35-4.5-8-1.275-3.225-1-3.5 0.05-1.625-0.5-3-1.225-4.975-1.5-8c-0.365-4.02 0.307-6.038 2.5-7.5 1.65-1.1 3.9-2.225 5-2.5s4.475 0.625 7.5 2 6.175 2.725 7 3 2.625-0.625 4-2 3.85-4.975 5.5-8 3.45-9.775 4-15 2.575-13.1 4.5-17.5 5.3-10.475 7.5-13.5 5.575-6.625 7.5-8 4.175-2.725 5-3 3.075-0.05 5 0.5 5.075 0.775 7 0.5 4.85-1.625 6.5-3 3.675-2.95 4.5-3.5 1.05 1.475 0.5 4.5l-1 5.5 4-0.5c2.2-0.275 8.05-3.2 13-6.5s11.025-6.9 13.5-8 5.625-3.125 7-4.5 3.625-2.95 5-3.5 4.975-0.775 8-0.5 7.75 1.4 10.5 2.5 7.025 2.225 9.5 2.5 6.975-0.625 10-2 6.625-2.95 8-3.5 4.075-0.775 6-0.5 6.425 2.3 10 4.5 8.75 5.8 11.5 8 7.925 5.575 11.5 7.5 7.85 4.625 9.5 6 4.8 3.175 7 4 6.475 1.5 9.5 1.5 7.075 0.675 9 1.5 5.075 2.4 7 3.5 4.85 4.475 6.5 7.5 3.45 6.85 4 8.5l1 3-4-2c-2.2-1.1-6.025-3.575-8.5-5.5s-8.1-4.85-12.5-6.5l-16-6c-4.4-1.65-10.025-3.9-12.5-5s-8.1-2.45-12.5-3-9.575-0.55-11.5 0-5.525-0.125-8-1.5-5.625-2.275-7-2-3.625 1.625-5 3c-1.59 1.59-5.777 2.5-11.5 2.5-4.95 0-11.025-0.225-13.5-0.5s-8.1-0.5-12.5-0.5-11.375 0.675-15.5 1.5-10.425 3.525-14 6-9.2 4.95-12.5 5.5-8.7 1.9-12 3-7.35 3.8-9 6-4.575 7.6-6.5 12-4.85 10.475-6.5 13.5-2.775 5.95-2.5 6.5 2.3 1.45 4.5 2 4.9 1.45 6 2 4.925-0.8 8.5-3 7.175-5.575 8-7.5 0.825-4.175 0-5-2.175-1.05-3-0.5-0.15-1.025 1.5-3.5 4.575-5.625 6.5-7c1.983-1.417 8.267-2.717 14.5-3 6.05-0.275 13.475-1.625 16.5-3s6.625-2.725 8-3 3.85 0.4 5.5 1.5 5.25 1.55 8 1 7.7-1.675 11-2.5 8.7-1.725 12-2 8.025-0.275 10.5 0 7.2 0.95 10.5 1.5c4.412 0.735 6.397 1.926 7.5 4.5 0.825 1.925 2.4 4.625 3.5 6s5.375 3.175 9.5 4 9.3 3.075 11.5 5 6.25 6.2 9 9.5c2.94 3.528 4.794 7.236 4.5 9l-0.5 3-8.5 1c-4.675 0.55-9.85 0.55-11.5 0s-6.375-0.1-10.5 1-9.3 2.225-11.5 2.5-5.125 0.05-6.5-0.5-4.075-0.1-6 1-5.075 3.575-7 5.5l-3.5 3.5-5-4-13 9-4.5-5c-2.475-2.75-3.825-4.775-3-4.5s1.725-0.4 2-1.5c0.29-1.158-1.815-3.263-5-5-3.025-1.65-7.975-3-11-3-4.133 0-7.115 1.367-12 5.5-5.147 4.355-8.27 5.708-15 6.5-4.675 0.55-10.525 0.775-13 0.5s-6.975-0.05-10 0.5-7.3 0.775-9.5 0.5-6.025 0.85-8.5 2.5-5.625 3.675-7 4.5c-2 1.2-2 1.8 0 3 1.444 0.866 2.289 2.979 2 5-0.275 1.925 0.175 4.625 1 6s2.625 4.3 4 6.5 4.525 5.35 7 7l7.5 5c1.65 1.1 6.375 2.225 10.5 2.5 5.367 0.358 10.343-0.78 17.5-4 5.5-2.475 11.575-5.625 13.5-7l3.5-2.5 5.5 6.5c3.611 4.268 6.874 6.672 9.5 7 2.2 0.275 5.125-0.625 6.5-2s2.95-4.3 3.5-6.5 1.45-4.9 2-6c0.588-1.176 0.794-0.764 0.5 1-0.329 1.972 0.185 2.829 1.5 2.5 1.1-0.275 2.9 1.075 4 3s2.9 4.85 4 6.5c1.598 2.397 2.503 2.598 4.5 1 1.375-1.1 3.175-3.575 4-5.5l1.5-3.5-5.5-6c-4.336-4.73-5.077-6.317-3.5-7.5 1.1-0.825 2.9-2.85 4-4.5s2.9-3.45 4-4 3.35 0.35 5 2 6.6 6.15 11 10 9.8 8.125 12 9.5c3.2 2 4.2 2 5 0l1-2.5 1.5 4.5c0.825 2.475 1.725 6.525 2 9 0.308 2.772 2.804 6.996 6.5 11 3.3 3.575 7.8 6.95 10 7.5s6.475 1 9.5 1 5.95 0.675 6.5 1.5 0.325 4.425-0.5 8c-1.065 4.616-0.775 7.515 1 10 1.375 1.925 5.65 5.075 9.5 7s9.475 3.5 12.5 3.5c3.536 0 6.393 1.071 8 3 1.375 1.65 2.725 3.9 3 5 0.332 1.326 33.014 2 97 2h96.5v-300-300h-36.5-36.5l1 5c0.55 2.75 1.45 7.925 2 11.5s0.325 8.075-0.5 10-2.625 3.95-4 4.5c-1.605 0.642-3.216-0.073-4.5-2-1.1-1.65-2.675-3.9-3.5-5s-2.175-2.225-3-2.5 0.3-2.3 2.5-4.5 4.45-5.125 5-6.5c0.72-1.799 0.019-2.92-2.5-4-1.925-0.825-5.075-1.725-7-2l-3.5-0.5 2-2c1.385-1.385-13.694-2-49-2h-51l-7.5 9c-4.125 4.95-7.725 9.45-8 10s0.175 1.675 1 2.5 1.275 1.725 1 2 0.175 1.4 1 2.5 1.05 2.45 0.5 3-1.225 0.775-1.5 0.5-0.725-0.05-1 0.5-0.275 1.225 0 1.5-0.175 0.725-1 1-2.175 2.075-3 4-1.95 3.725-2.5 4-0.325 2.975 0.5 6 2.625 10 4 15.5 2.275 10.9 2 12-1.625 3.575-3 5.5-3.4 4.85-4.5 6.5-3.575 3.9-5.5 5-3.95 3.8-4.5 6-0.775 5.8-0.5 8 0.95 4.675 1.5 5.5 1.225 2.85 1.5 4.5 1.85 3.9 3.5 5 9.975 2 18.5 2c8.593 0 18.619 1.114 22.5 2.5 3.85 1.375 8.125 2.725 9.5 3s4.075 0.275 6 0 4.85 0.625 6.5 2 3.225 2.95 3.5 3.5 0.05 1.675-0.5 2.5c-0.588 0.882 0.236 1.294 2 1 1.65-0.275 3.9-1.175 5-2 1.565-1.174 2.109-0.739 2.5 2 0.275 1.925 4.325 7.55 9 12.5s10.3 11.25 12.5 14 4.225 6.125 4.5 7.5-0.175 2.275-1 2-2.4-1.625-3.5-3-5.825-4.075-10.5-6-10.525-5.075-13-7c-3.182-2.475-7.283-3.646-14-4-5.225-0.275-11.075-0.275-13 0-2.068 0.295-4.114 1.932-5 4l-1.5 3.5 10 2c5.5 1.1 13.15 3.35 17 5s8.575 4.35 10.5 6 4.85 4.575 6.5 6.5 4.125 5.525 5.5 8 2.725 4.275 3 4 0.275 0.175 0 1-0.95 1.725-1.5 2-2.8-1.3-5-3.5-6.025-6.475-8.5-9.5-6.075-6.175-8-7-5.525-1.275-8-1-5.175 1.4-6 2.5-0.825 3.35 0 5 1.725 5.025 2 7.5c0.278 2.506-0.608 5.608-2 7-1.375 1.375-4.525 3.175-7 4s-5.85 1.05-7.5 0.5c-1.94-0.647-3.353-2.767-4-6-0.55-2.75-0.55-5.45 0-6s1.9 0.35 3 2 4.025 3.675 6.5 4.5 4.725 0.825 5 0-0.85-3.975-2.5-7l-3-5.5-7-1c-3.85-0.55-7.9-0.775-9-0.5s-4.25 0.05-7-0.5c-3.613-0.723-5.832-0.168-8 2-1.65 1.65-4.575 3.45-6.5 4s-5.75 2.575-8.5 4.5l-5 3.5-1-3.5c-0.55-1.925-1.9-4.625-3-6s-2.45-2.275-3-2-1.9 1.85-3 3.5-3.125 3.9-4.5 5-4.075 2.45-6 3c-2.101 0.6-5.298-0.199-8-2-2.475-1.65-6.3-5.025-8.5-7.5-3.12-3.51-4.55-4.17-6.5-3-2 1.2-2-0.5 0-8.5l2.5-10-3.5-4c-1.925-2.2-5.525-5.125-8-6.5s-7.2-6.1-10.5-10.5-7.575-8.45-9.5-9c-2.396-0.685-3.815-0.212-4.5 1.5-0.615 1.538 0.539 4.423 3 7.5 2.549 3.187 3.819 6.451 3.5 9-0.397 3.178-2.349 5.13-9.5 9.5l-9 5.5-4.5-3.5c-2.475-1.925-4.275-3.95-4-4.5s-0.4-0.775-1.5-0.5-2.225 0.05-2.5-0.5 0.175-3.475 1-6.5l1.5-5.5-3-1c-1.65-0.55-3.675-0.55-4.5 0s-1.275 0.55-1 0 0.05-0.775-0.5-0.5-0.55 2.975 0 6c0.579 3.185-0.052 7.605-1.5 10.5-1.375 2.75-2.725 6.8-3 9s1.075 8.275 3 13.5 3.275 12.425 3 16-1.175 8.525-2 11-2.4 7.875-3.5 12-2.675 7.725-3.5 8-1.725-1.075-2-3l-0.5-3.5-14 8 0.5-3.5c0.275-1.925 1.4-5.525 2.5-8s2.225-7.2 2.5-10.5-0.175-6.45-1-7-3.975-0.55-7 0-7.525 2.125-10 3.5-5.625 3.175-7 4-6.325 1.95-11 2.5-8.725 1.225-9 1.5l2-2c1.375-1.375 2.95-3.175 3.5-4s1.225-2.4 1.5-3.5-0.625-3.125-2-4.5-4.975-5.2-8-8.5-6.85-6.225-8.5-6.5c-1.867-0.311-3.944 0.822-5.5 3-1.375 1.925-2.95 6.2-3.5 9.5s-2.35 7.575-4 9.5-3.675 3.725-4.5 4-4.65-1.525-8.5-4-9.025-6.075-11.5-8-4.95-4.625-5.5-6-0.55-4.975 0-8c0.579-3.185 0.158-6.131-1-7-1.1-0.825-3.575-0.825-5.5 0s-6.425 3.975-10 7-8.525 8.2-11 11.5-6.075 6.675-8 7.5-5.75 1.95-8.5 2.5-6.35 0.325-8-0.5-3.675-3.075-4.5-5-2.85-4.625-4.5-6-3.9-4.75-5-7.5-1.775-7.475-1.5-10.5 2.3-10 4.5-15.5 6.025-14.725 8.5-20.5 5.4-11.85 6.5-13.5 2.9-5.25 4-8 3.575-6.575 5.5-8.5 5.975-3.95 9-4.5l5.5-1-1 2.5c-0.55 1.375-2.125 3.625-3.5 5l-3 3c-0.275 0.275 1.075 1.175 3 2s6.875 1.5 11 1.5 9.75-0.45 12.5-1 7.925-0.775 11.5-0.5 8.525 0.725 11 1 8.775 0.275 14 0 11.525-0.725 14-1 5.85-0.725 7.5-1c2.374-0.396 2.896-1.439 2.5-5-0.296-2.664-1.928-5.52-4-7-1.925-1.375-5.975-2.725-9-3s-6.85-0.275-8.5 0-4.8 0.275-7 0-7.375 0.4-11.5 1.5-9.975 2.225-13 2.5c-4.277 0.389-6.056-0.278-8-3-1.375-1.925-2.725-3.05-3-2.5s-1.85 2.8-3.5 5-3.9 4.45-5 5c-1.465 0.732-1.732 0.331-1-1.5 0.55-1.375 0.775-3.625 0.5-5s0.85-4.075 2.5-6 3.225-3.725 3.5-4-2.65-0.05-6.5 0.5-8.8 1.675-11 2.5-5.125 2.625-6.5 4c-2 2-2.7 2-3.5 0-0.55-1.375-0.55-4.75 0-7.5s2.8-8.825 5-13.5c2.689-5.714 3.508-9.319 2.5-11-0.825-1.375-1.05-2.725-0.5-3s2.35-4.1 4-8.5 4.8-11.15 7-15 6.025-8.8 8.5-11 6.3-7.15 8.5-11 6.25-8.575 9-10.5l5-3.5-3.5-0.5c-1.925-0.275-3.725-0.05-4 0.5s-1.85 1.225-3.5 1.5-5.025-0.4-7.5-1.5c-2.606-1.158-4.29-2.842-4-4 0.336-1.342-22.852-2-70.5-2zm4.5 72c1.375 0.55 3.175 3.25 4 6s1.275 5.9 1 7-2.75 5.15-5.5 9c-3.609 5.053-4.722 7.974-4 10.5 0.55 1.925 1.225 6.65 1.5 10.5s0.725 9.025 1 11.5 0.05 8.325-0.5 13-1.225 10.525-1.5 13-0.275 6.3 0 8.5l0.5 4-2.5-3c-1.375-1.65-3.4-4.575-4.5-6.5s-1.775-3.725-1.5-4 0.05-0.725-0.5-1-0.775-0.95-0.5-1.5-0.4-0.775-1.5-0.5-2.675 2.975-3.5 6-1.275 5.725-1 6-0.175 4.325-1 9-2.175 10.075-3 12-1.275 4.625-1 6 0.95 3.175 1.5 4 1.225 2.85 1.5 4.5-0.85 5.025-2.5 7.5l-3 4.5-1.5-6.5c-0.825-3.575-1.725-8.3-2-10.5s-0.05-5.125 0.5-6.5 1-9.025 1-17 0.9-18.1 2-22.5 1.775-11.375 1.5-15.5c-0.315-4.722 0.426-8.611 2-10.5 1.375-1.65 3.625-4.125 5-5.5s3.175-4.975 4-8 2.625-7.525 4-10 3.625-9 5-14.5l2.5-10 2.5 1zm449 34c0.275 0 2.075 0.675 4 1.5s4.85 3.3 6.5 5.5 2.775 4.675 2.5 5.5-1.175 2.625-2 4l-1.5 2.5 5.5 1.5c3.025 0.825 5.05 1.95 4.5 2.5s-4.15 2.125-8 3.5-8.125 3.625-9.5 5-2.275 4.075-2 6-0.175 6.875-1 11-1.05 9.3-0.5 11.5 1.675 5.125 2.5 6.5 1.95 2.725 2.5 3 0.775 2.075 0.5 4-0.725 5.525-1 8-0.05 6.75 0.5 9.5 1.45 5.675 2 6.5 0.1 1.95-1 2.5-2.9 0.325-4-0.5-2.45-4.425-3-8-1.45-8.075-2-10-1.9-6.2-3-9.5-2.45-7.575-3-9.5-0.775-4.175-0.5-5 1.4-3.075 2.5-5 2.45-8 3-13.5 1.9-13.375 3-17.5 1.775-7.95 1.5-8.5-0.275-3.7 0-7 0.725-6 1-6zm-303 2.5-3.5-0.5 1.5 3.5c0.825 1.925 3.075 3.95 5 4.5 1.978 0.565 3.935 0.13 4.5-1 0.55-1.1-0.125-2.9-1.5-4s-4.075-2.225-6-2.5zm81 0.5c-1.375-0.55-3.85 0.125-5.5 1.5-2.264 1.887-2.509 2.868-1 4 1.1 0.825 3.35 0.6 5-0.5s3.225-2.45 3.5-3-0.625-1.45-2-2zm-145 52.5c-1.925-0.275-6.875 0.85-11 2.5s-10.2 3.9-13.5 5-8.7 4.025-12 6.5-6.9 5.85-8 7.5-3.125 4.125-4.5 5.5-2.95 3.625-3.5 5-0.325 2.95 0.5 3.5 1.725 0.775 2 0.5 0.725-0.275 1 0 2.075-0.175 4-1 4.4-3.3 5.5-5.5 4.025-7.15 6.5-11c2.606-4.054 6.394-7.842 9-9 2.475-1.1 7.2-2.225 10.5-2.5s8.475-1.85 11.5-3.5l5.5-3-3.5-0.5zm-96 43.5c0.275 0 2.075 0.675 4 1.5s3.95 2.175 4.5 3 3.025 2.625 5.5 4 5.625 3.4 7 4.5 4.075 4.7 6 8 3.275 7.575 3 9.5-0.275 4.4 0 5.5 0.5 4.25 0.5 7 0.675 6.125 1.5 7.5 3.075 2.725 5 3 6.425-1.075 10-3 8.3-4.85 10.5-6.5 6.925-5.925 10.5-9.5 8.525-8.3 11-10.5 6.3-6.025 8.5-8.5 5.125-6.075 6.5-8c1.769-2.476 3.67-3.354 6.5-3 2.2 0.275 7.15 2.975 11 6s8.35 7.075 10 9 3.45 5.75 4 8.5 0.325 8.375-0.5 12.5-1.95 11.325-2.5 16-1.45 10.3-2 12.5-1.45 6.925-2 10.5-1.45 9.65-2 13.5-1.45 8.8-2 11-3.025 8.95-5.5 15c-3.554 8.687-5.551 11.631-9.5 14-2.75 1.65-6.8 2.775-9 2.5s-5.125-1.85-6.5-3.5-3.175-5.7-4-9-1.05-10.5-0.5-16 2.125-16.075 3.5-23.5c1.611-8.702 1.789-12.967 0.5-12-1.1 0.825-7.4 4.65-14 8.5s-17.175 9.025-23.5 11.5-14.2 4.5-17.5 4.5-7.8-0.45-10-1-6.25-2.125-9-3.5-6.575-4.3-8.5-6.5-3.725-4.9-4-6-1.175-1.55-2-1-2.4 4.375-3.5 8.5l-2 7.5 2.5-0.5c1.978-0.396 2.291 0.231 1.5 3-0.55 1.925-1 5.975-1 9s0.9 7.525 2 10 3.125 4.725 4.5 5 3.175 0.05 4-0.5 1.275-2.8 1-5-0.05-5.575 0.5-7.5 0.775-4.85 0.5-6.5-0.275-3.225 0-3.5 2.525 2.2 5 5.5 6.3 8.475 8.5 11.5 6.25 8.2 9 11.5c3.662 4.394 6.472 6.268 10.5 7 3.025 0.55 7.3 1.9 9.5 3s6.25 5.15 9 9 6.8 10.6 9 15 7.15 12.275 11 17.5 6.775 9.95 6.5 10.5-0.05 2.575 0.5 4.5 0.1 4.85-1 6.5l-4 6c-1.176 1.764-2.824 2.588-4 2-1.1-0.55-1.775-0.55-1.5 0s0.275 2.125 0 3.5c-0.384 1.919-0.732 1.687-1.5-1-0.55-1.925-0.775-3.95-0.5-4.5s0.05-1.675-0.5-2.5-0.775-1.95-0.5-2.5 1.625-2.125 3-3.5 2.05-3.4 1.5-4.5-2.125-3.125-3.5-4.5-3.85-3.175-5.5-4-5.25-3.075-8-5-5.675-5.3-6.5-7.5c-0.877-2.339-0.67-5.246 0.5-7 1.1-1.65 1.55-3.675 1-4.5s-2.575-3.075-4.5-5-5.975-3.95-9-4.5c-3.034-0.552-6.397-2.345-7.5-4-1.1-1.65-4.925-5.7-8.5-9s-7.85-6.675-9.5-7.5c-2.109-1.054-3.446-0.757-4.5 1-0.825 1.375-1.275 2.95-1 3.5s0.95 2.125 1.5 3.5 0.775 4.075 0.5 6-1.625 4.175-3 5-3.625 1.275-5 1-5.2-1.85-8.5-3.5-8.025-2.775-10.5-2.5-5.85-0.4-7.5-1.5l-3-2 2.5-6.5c1.375-3.575 3.4-8.075 4.5-10s2.9-6.875 4-11 1.55-7.275 1-7-1.9 2.525-3 5-2.675 5.625-3.5 7-2.625 5.2-4 8.5-3.175 7.125-4 8.5-3.3 3.625-5.5 5-5.575 2.05-7.5 1.5-4.85-3.25-6.5-6-3.9-8.825-5-13.5-1.775-8.725-1.5-9 0.275-0.725 0-1-0.275-1.85 0-3.5 1.175-5.475 2-8.5 3.525-10.45 6-16.5 6.3-14.825 8.5-19.5 5.575-11.875 7.5-16 5.3-10.65 7.5-14.5 6.25-11.05 9-16 7.25-10.8 10-13 5.225-4 5.5-4zm253 4c1.925 0.55 6.65 2.125 10.5 3.5 4.156 1.484 7.813 3.922 9 6 1.1 1.925 2.45 7.325 3 12s1.45 10.3 2 12.5 1.9 8.05 3 13 2.675 11.025 3.5 13.5c0.945 2.834 2.61 4.685 4.5 5 1.65 0.275 5.25 1.625 8 3s6.575 3.85 8.5 5.5l3.5 3-2 3.5c-1.1 1.925-4.475 5.75-7.5 8.5-3.692 3.356-5.336 5.986-5 8 0.275 1.65 0.5 5.25 0.5 8s-0.45 6.8-1 9-1.9 5.8-3 8-3.125 5.125-4.5 6.5-3.85 3.4-5.5 4.5-5.7 2.225-9 2.5c-3.363 0.28-7.538-0.599-9.5-2-1.925-1.375-3.95-3.85-4.5-5.5s-3.25-5.025-6-7.5l-5-4.5 4-1c2.2-0.55 5.575-1.9 7.5-3s3.725-3.575 4-5.5l0.5-3.5-6 0.5c-3.3 0.275-8.025 1.4-10.5 2.5s-4.275 2.45-4 3 0.05 2.575-0.5 4.5-0.775 4.4-0.5 5.5 1.85 3.35 3.5 5 3.9 5.25 5 8 1.775 11.525 1.5 19.5l-0.5 14.5-3.5 0.5c-1.925 0.275-4.625-0.175-6-1s-2.95-3.075-3.5-5-2.125-4.85-3.5-6.5-3.85-2.775-5.5-2.5c-1.737 0.29-3.21 1.763-3.5 3.5-0.343 2.059-1.754 3.157-4.5 3.5l-4 0.5-2-4.5c-1.1-2.475-1.775-5.625-1.5-7s0.725-4.3 1-6.5-0.175-5.125-1-6.5c-1.123-1.871-3.009-2.123-7.5-1-3.3 0.825-9.15 1.725-13 2s-9.025-0.625-11.5-2c-2.597-1.443-5.346-4.614-6.5-7.5-1.1-2.75-1.775-7.025-1.5-9.5s2.075-8.325 4-13 6.425-14.575 10-22 8.75-18.45 11.5-24.5l7.5-16.5c1.375-3.025 4.075-7.75 6-10.5s4.4-5.675 5.5-6.5 3.8-1.95 6-2.5 5.8-2.125 8-3.5 7.15-6.1 11-10.5l7-8 3.5 1zm124 0c0.275 0 3.2 0.9 6.5 2s8.7 3.8 12 6 9.375 7.825 13.5 12.5 8.625 9.625 10 11l2.5 2.5 5.5-3.5c3.025-1.925 9.775-6.65 15-10.5s12.65-9.475 16.5-12.5 8.35-5.725 10-6 4.575 0.4 6.5 1.5 5.3 5.6 7.5 10 3.775 8.675 3.5 9.5-1.85 3.75-3.5 6.5-3.9 5.675-5 6.5-5.825 3.75-10.5 6.5-13.45 8.825-19.5 13.5c-7.642 5.905-10.847 9.263-10.5 11 0.275 1.375 3.2 6.775 6.5 12s7.575 11.3 9.5 13.5 4.85 7.6 6.5 12 2.775 10.025 2.5 12.5-2.075 7.2-4 10.5-5.075 6.675-7 7.5-5.075 0.825-7 0-4.85-2.85-6.5-4.5-3.9-5.025-5-7.5-3.35-6.975-5-10-5.25-8.875-8-13-5.9-7.725-7-8-5.15 2.2-9 5.5-10.15 9.6-14 14-7.9 10.7-9 14-3.35 7.8-5 10-4.575 4.225-6.5 4.5-4.625-0.175-6-1-4.075-4.425-6-8c-2.101-3.902-3.3-8.698-3-12 0.275-3.025 0.95-7.3 1.5-9.5s2.125-6.25 3.5-9 3.85-6.8 5.5-9 5.475-6.7 8.5-10 7.3-7.8 9.5-10 5.575-5.8 7.5-8 3.275-4.45 3-5-2.525-3.925-5-7.5-6.525-8.975-9-12-5.4-7.075-6.5-9-1.55-7.1-1-11.5 1.9-10.25 3-13 2.225-5 2.5-5zm-234 11c0.825 0.55 0.825 2.125 0 3.5s-2.85 3.175-4.5 4-3.9 2.175-5 3c-1.536 1.152-2.232 0.687-3-2-0.55-1.925-0.775-3.95-0.5-4.5s1.85-1.225 3.5-1.5 4.125-1.175 5.5-2 3.175-1.05 4-0.5zm200.5-1c1.1 0 3.8 0.45 6 1s6.475 1.45 9.5 2c3.489 0.634 5.683 1.914 6 3.5 0.275 1.375-0.4 3.175-1.5 4s-2.675 1.95-3.5 2.5-2.625 0.775-4 0.5-3.175-1.625-4-3-4.425-3.625-8-5c-5.129-1.973-6.078-2.816-4.5-4 1.1-0.825 2.9-1.5 4-1.5zm-209.5 25c0.275 0 1.625 0.45 3 1s3.625 0.775 5 0.5l2.5-0.5-2 4c-1.1 2.2-4.025 6.025-6.5 8.5s-4.95 4.275-5.5 4-0.775-1.85-0.5-3.5l1-6c0.275-1.65 0.95-4.125 1.5-5.5s1.225-2.5 1.5-2.5zm112.5 11.5c-0.55-0.275-1.675 0.85-2.5 2.5s-3.3 5.25-5.5 8-5.125 7.475-6.5 10.5-2.725 5.725-3 6 3.775 0.725 9 1 11.075 0.05 13-0.5l3.5-1-2.5-9.5c-1.375-5.225-2.95-11.075-3.5-13s-1.45-3.725-2-4zm-78.5 37c0.825 0.825 1.95 3.975 2.5 7s-0.125 9.775-1.5 15-2.05 12.425-1.5 16c0.775 5.035 0.324 7.064-2 9-1.65 1.375-5.475 3.625-8.5 5l-5.5 2.5 0.5 4.5c0.275 2.475-0.4 6.3-1.5 8.5s-3.35 4.675-5 5.5-2.775 1.275-2.5 1 0.275-1.175 0-2-1.175-3.3-2-5.5-0.825-3.55 0-3 1.95 1.675 2.5 2.5 1.675 1.275 2.5 1-0.75-4.325-3.5-9-5.45-9.85-6-11.5c-0.737-2.211-0.474-2.737 1-2 1.1 0.55 1.775 0.55 1.5 0s-0.95-1.675-1.5-2.5-1.675-1.725-2.5-2-0.6-2.075 0.5-4 3.125-4.625 4.5-6 4.3-3.4 6.5-4.5 6.025-3.125 8.5-4.5 5.625-3.4 7-4.5c1.417-1.133 2.283-3.733 2-6-0.275-2.2 0.175-5.8 1-8 1.053-2.809 1.947-3.553 3-2.5zm58 42.5c-0.825 0-2.175 1.125-3 2.5s-1.95 4.975-2.5 8l-1 5.5 3-0.5c1.89-0.315 3.555-2.166 4.5-5 0.825-2.475 1.275-5.85 1-7.5s-1.175-3-2-3zm-224.5 28.5c3.3 0.275 7.575 0.95 9.5 1.5 2.687 0.768 3.616 2.161 4 6 0.385 3.849-0.421 5.806-3.5 8.5-2.31 2.021-5.479 3.289-7.5 3-1.925-0.275-4.625-1.625-6-3-1.462-1.462-2.5-5.406-2.5-9.5v-7l6 0.5zm216.5 5.5c2.475 0.55 3.825 1.45 3 2s-3.3 0.775-5.5 0.5-6.475 1.075-9.5 3-8.425 5.075-12 7-7.175 3.275-8 3 0.075-1.175 2-2 5.075-2.625 7-4 6.875-4.3 11-6.5c5.149-2.746 8.91-3.687 12-3zm210 113.5c0.275 0.275-1.525 5.9-4 12.5-2.94 7.841-6.06 13.386-9 16-2.475 2.2-6.525 5.35-9 7s-6.075 3.9-8 5-8 4.925-13.5 8.5-12.25 6.95-15 7.5-6.125 0.55-7.5 0-3.85-0.775-5.5-0.5-8.85 3.2-16 6.5-13.675 5.775-14.5 5.5-1.275-0.95-1-1.5 5-3.925 10.5-7.5 12.475-6.95 15.5-7.5 7.525-0.775 10-0.5 6.3 0.05 8.5-0.5 8.05-3.7 13-7 11.925-9.375 15.5-13.5c4.106-4.738 8.342-8.052 11.5-9 3.613-1.084 5.971-3.164 8.5-7.5 1.925-3.3 4.85-7.8 6.5-10s3.225-3.775 3.5-3.5zm-316 24c-0.825-0.275-3.525 1.525-6 4s-4.275 4.725-4 5 0.05 0.275-0.5 0-1.225 0.4-1.5 1.5 1.525 4.025 4 6.5 6.975 6.075 10 8l5.5 3.5 3-5-7-5.5c-3.85-3.025-7.225-5.725-7.5-6s0.625-2.075 2-4 2.725-4.4 3-5.5-0.175-2.225-1-2.5z" fill="url(#a)"/>
</g>
</svg>
