<?xml version="1.0" encoding="UTF-8" standalone="no"?><!-- Generator: Gravit.io --><svg xmlns="http://www.w3.org/2000/svg" xmlns:xlink="http://www.w3.org/1999/xlink" style="isolation:isolate" viewBox="0 0 600 600" width="600pt" height="600pt"><defs><clipPath id="_clipPath_INEa9gwcWQBE9H1mDnClEvCzhfealUIe"><rect width="600" height="600"/></clipPath></defs><g clip-path="url(#_clipPath_INEa9gwcWQBE9H1mDnClEvCzhfealUIe)"><path d=" M 300 0 L 0 0 L 0 300 L 0 600 L 300 600 L 600 600 L 600 300 L 600 0 L 300 0 Z " fill-rule="evenodd" fill="rgb(241,177,193)"/><path d=" M 300 0 L 0 0 L 0 300 L 0 600 L 300 600 L 600 600 L 600 300 L 600 0 L 300 0 Z " fill-rule="evenodd" fill="rgb(255,255,255)"/><path d=" M 300 0 L 0 0 L 0 300 L 0 600 L 300 600 L 600 600 L 600 300 L 600 0 L 300 0 Z " fill-rule="evenodd" fill="rgb(0,0,0)"/><radialGradient id="_rgradient_1" fx="0.5" fy="0.5" cx="0.5" cy="0.5" r="0.5" gradientTransform="matrix(600,0,0,600,0,0)" gradientUnits="userSpaceOnUse"><stop offset="70%" stop-opacity="1" style="stop-color:rgb(255,213,0)"/><stop offset="100%" stop-opacity="1" style="stop-color:rgb(249,62,0)"/><stop offset="100%" stop-opacity="1" style="stop-color:rgb(0,0,0)"/></radialGradient><path d=" M 71 0 L 0 0 L 0 300 L 0 600 L 105 600 L 210 600 L 206.5 589 C 204.575 582.95 202.1 576.2 201 574 C 199.9 571.8 197.875 567.3 196.5 564 C 195.125 560.7 191.525 555.75 188.5 553 C 185.475 550.25 180.3 546.2 177 544 C 173.7 541.8 167.4 536.625 163 532.5 C 158.6 528.375 151.4 520.5 147 515 C 142.6 509.5 138.1 503.425 137 501.5 C 135.9 499.575 135.225 497.775 135.5 497.5 C 135.775 497.225 137.125 498.125 138.5 499.5 C 139.875 500.875 143.925 503.8 147.5 506 C 151.075 508.2 154.675 510.45 155.5 511 C 156.325 511.55 155.65 509.75 154 507 C 152.35 504.25 150.325 500.65 149.5 499 C 148.675 497.35 148.225 495.775 148.5 495.5 C 148.775 495.225 148.55 493.875 148 492.5 C 147.45 491.125 146.775 487.525 146.5 484.5 C 146.135 480.48 146.807 478.462 149 477 C 150.65 475.9 152.9 474.775 154 474.5 C 155.1 474.225 158.475 475.125 161.5 476.5 C 164.525 477.875 167.675 479.225 168.5 479.5 C 169.325 479.775 171.125 478.875 172.5 477.5 C 173.875 476.125 176.35 472.525 178 469.5 C 179.65 466.475 181.45 459.725 182 454.5 C 182.55 449.275 184.575 441.4 186.5 437 C 188.425 432.6 191.8 426.525 194 423.5 C 196.2 420.475 199.575 416.875 201.5 415.5 C 203.425 414.125 205.675 412.775 206.5 412.5 C 207.325 412.225 209.575 412.45 211.5 413 C 213.425 413.55 216.575 413.775 218.5 413.5 C 220.425 413.225 223.35 411.875 225 410.5 C 226.65 409.125 228.675 407.55 229.5 407 C 230.325 406.45 230.55 408.475 230 411.5 L 229 417 L 233 416.5 C 235.2 416.225 241.05 413.3 246 410 C 250.95 406.7 257.025 403.1 259.5 402 C 261.975 400.9 265.125 398.875 266.5 397.5 C 267.875 396.125 270.125 394.55 271.5 394 C 272.875 393.45 276.475 393.225 279.5 393.5 C 282.525 393.775 287.25 394.9 290 396 C 292.75 397.1 297.025 398.225 299.5 398.5 C 301.975 398.775 306.475 397.875 309.5 396.5 C 312.525 395.125 316.125 393.55 317.5 393 C 318.875 392.45 321.575 392.225 323.5 392.5 C 325.425 392.775 329.925 394.8 333.5 397 C 337.075 399.2 342.25 402.8 345 405 C 347.75 407.2 352.925 410.575 356.5 412.5 C 360.075 414.425 364.35 417.125 366 418.5 C 367.65 419.875 370.8 421.675 373 422.5 C 375.2 423.325 379.475 424 382.5 424 C 385.525 424 389.575 424.675 391.5 425.5 C 393.425 426.325 396.575 427.9 398.5 429 C 400.425 430.1 403.35 433.475 405 436.5 C 406.65 439.525 408.45 443.35 409 445 L 410 448 L 406 446 C 403.8 444.9 399.975 442.425 397.5 440.5 C 395.025 438.575 389.4 435.65 385 434 C 380.6 432.35 373.4 429.65 369 428 C 364.6 426.35 358.975 424.1 356.5 423 C 354.025 421.9 348.4 420.55 344 420 C 339.6 419.45 334.425 419.45 332.5 420 C 330.575 420.55 326.975 419.875 324.5 418.5 C 322.025 417.125 318.875 416.225 317.5 416.5 C 316.125 416.775 313.875 418.125 312.5 419.5 C 310.91 421.09 306.723 422 301 422 C 296.05 422 289.975 421.775 287.5 421.5 C 285.025 421.225 279.4 421 275 421 C 270.6 421 263.625 421.675 259.5 422.5 C 255.375 423.325 249.075 426.025 245.5 428.5 C 241.925 430.975 236.3 433.45 233 434 C 229.7 434.55 224.3 435.9 221 437 C 217.7 438.1 213.65 440.8 212 443 C 210.35 445.2 207.425 450.6 205.5 455 C 203.575 459.4 200.65 465.475 199 468.5 C 197.35 471.525 196.225 474.45 196.5 475 C 196.775 475.55 198.8 476.45 201 477 C 203.2 477.55 205.9 478.45 207 479 C 208.1 479.55 211.925 478.2 215.5 476 C 219.075 473.8 222.675 470.425 223.5 468.5 C 224.325 466.575 224.325 464.325 223.5 463.5 C 222.675 462.675 221.325 462.45 220.5 463 C 219.675 463.55 220.35 461.975 222 459.5 C 223.65 457.025 226.575 453.875 228.5 452.5 C 230.483 451.083 236.767 449.783 243 449.5 C 249.05 449.225 256.475 447.875 259.5 446.5 C 262.525 445.125 266.125 443.775 267.5 443.5 C 268.875 443.225 271.35 443.9 273 445 C 274.65 446.1 278.25 446.55 281 446 C 283.75 445.45 288.7 444.325 292 443.5 C 295.3 442.675 300.7 441.775 304 441.5 C 307.3 441.225 312.025 441.225 314.5 441.5 C 316.975 441.775 321.7 442.45 325 443 C 329.412 443.735 331.397 444.926 332.5 447.5 C 333.325 449.425 334.9 452.125 336 453.5 C 337.1 454.875 341.375 456.675 345.5 457.5 C 349.625 458.325 354.8 460.575 357 462.5 C 359.2 464.425 363.25 468.7 366 472 C 368.94 475.528 370.794 479.236 370.5 481 L 370 484 L 361.5 485 C 356.825 485.55 351.65 485.55 350 485 C 348.35 484.45 343.625 484.9 339.5 486 C 335.375 487.1 330.2 488.225 328 488.5 C 325.8 488.775 322.875 488.55 321.5 488 C 320.125 487.45 317.425 487.9 315.5 489 C 313.575 490.1 310.425 492.575 308.5 494.5 L 305 498 L 302.5 496 L 300 494 L 293.5 498.5 L 287 503 L 282.5 498 C 280.025 495.25 278.675 493.225 279.5 493.5 C 280.325 493.775 281.225 493.1 281.5 492 C 281.79 490.842 279.685 488.737 276.5 487 C 273.475 485.35 268.525 484 265.5 484 C 261.367 484 258.385 485.367 253.5 489.5 C 248.353 493.855 245.23 495.208 238.5 496 C 233.825 496.55 227.975 496.775 225.5 496.5 C 223.025 496.225 218.525 496.45 215.5 497 C 212.475 497.55 208.2 497.775 206 497.5 C 203.8 497.225 199.975 498.35 197.5 500 C 195.025 501.65 191.875 503.675 190.5 504.5 C 188.5 505.7 188.5 506.3 190.5 507.5 C 191.944 508.366 192.789 510.479 192.5 512.5 C 192.225 514.425 192.675 517.125 193.5 518.5 C 194.325 519.875 196.125 522.8 197.5 525 C 198.875 527.2 202.025 530.35 204.5 532 C 206.975 533.65 210.35 535.9 212 537 C 213.65 538.1 218.375 539.225 222.5 539.5 C 227.867 539.858 232.843 538.72 240 535.5 C 245.5 533.025 251.575 529.875 253.5 528.5 L 257 526 L 262.5 532.5 C 266.111 536.768 269.374 539.172 272 539.5 C 274.2 539.775 277.125 538.875 278.5 537.5 C 279.875 536.125 281.45 533.2 282 531 C 282.55 528.8 283.45 526.1 284 525 C 284.588 523.824 284.794 524.236 284.5 526 C 284.171 527.972 284.685 528.829 286 528.5 C 287.1 528.225 288.9 529.575 290 531.5 C 291.1 533.425 292.9 536.35 294 538 C 295.598 540.397 296.503 540.598 298.5 539 C 299.875 537.9 301.675 535.425 302.5 533.5 L 304 530 L 298.5 524 C 294.164 519.27 293.423 517.683 295 516.5 C 296.1 515.675 297.9 513.65 299 512 C 300.1 510.35 301.9 508.55 303 508 C 304.1 507.45 306.35 508.35 308 510 C 309.65 511.65 314.6 516.15 319 520 C 323.4 523.85 328.8 528.125 331 529.5 C 334.2 531.5 335.2 531.5 336 529.5 L 337 527 L 338.5 531.5 C 339.325 533.975 340.225 538.025 340.5 540.5 C 340.808 543.272 343.304 547.496 347 551.5 C 350.3 555.075 354.8 558.45 357 559 C 359.2 559.55 363.475 560 366.5 560 C 369.525 560 372.45 560.675 373 561.5 C 373.55 562.325 373.325 565.925 372.5 569.5 C 371.435 574.116 371.725 577.015 373.5 579.5 C 374.875 581.425 379.15 584.575 383 586.5 C 386.85 588.425 392.475 590 395.5 590 C 399.036 590 401.893 591.071 403.5 593 C 404.875 594.65 406.225 596.9 406.5 598 C 406.832 599.326 439.514 600 503.5 600 L 600 600 L 600 300 L 600 0 L 563.5 0 L 527 0 L 528 5 C 528.55 7.75 529.45 12.925 530 16.5 C 530.55 20.075 530.325 24.575 529.5 26.5 C 528.675 28.425 526.875 30.45 525.5 31 C 523.895 31.642 522.284 30.927 521 29 C 519.9 27.35 518.325 25.1 517.5 24 C 516.675 22.9 515.325 21.775 514.5 21.5 C 513.675 21.225 514.8 19.2 517 17 C 519.2 14.8 521.45 11.875 522 10.5 C 522.72 8.701 522.019 7.58 519.5 6.5 C 517.575 5.675 514.425 4.775 512.5 4.5 L 509 4 L 511 2 C 512.385 0.615 497.306 0 462 0 L 411 0 L 403.5 9 C 399.375 13.95 395.775 18.45 395.5 19 C 395.225 19.55 395.675 20.675 396.5 21.5 C 397.325 22.325 397.775 23.225 397.5 23.5 C 397.225 23.775 397.675 24.9 398.5 26 C 399.325 27.1 399.55 28.45 399 29 C 398.45 29.55 397.775 29.775 397.5 29.5 C 397.225 29.225 396.775 29.45 396.5 30 C 396.225 30.55 396.225 31.225 396.5 31.5 C 396.775 31.775 396.325 32.225 395.5 32.5 C 394.675 32.775 393.325 34.575 392.5 36.5 C 391.675 38.425 390.55 40.225 390 40.5 C 389.45 40.775 389.675 43.475 390.5 46.5 C 391.325 49.525 393.125 56.5 394.5 62 C 395.875 67.5 396.775 72.9 396.5 74 C 396.225 75.1 394.875 77.575 393.5 79.5 C 392.125 81.425 390.1 84.35 389 86 C 387.9 87.65 385.425 89.9 383.5 91 C 381.575 92.1 379.55 94.8 379 97 C 378.45 99.2 378.225 102.8 378.5 105 C 378.775 107.2 379.45 109.675 380 110.5 C 380.55 111.325 381.225 113.35 381.5 115 C 381.775 116.65 383.35 118.9 385 120 C 386.65 121.1 394.975 122 403.5 122 C 412.093 122 422.119 123.114 426 124.5 C 429.85 125.875 434.125 127.225 435.5 127.5 C 436.875 127.775 439.575 127.775 441.5 127.5 C 443.425 127.225 446.35 128.125 448 129.5 C 449.65 130.875 451.225 132.45 451.5 133 C 451.775 133.55 451.55 134.675 451 135.5 C 450.412 136.382 451.236 136.794 453 136.5 C 454.65 136.225 456.9 135.325 458 134.5 C 459.565 133.326 460.109 133.761 460.5 136.5 C 460.775 138.425 464.825 144.05 469.5 149 C 474.175 153.95 479.8 160.25 482 163 C 484.2 165.75 486.225 169.125 486.5 170.5 C 486.775 171.875 486.325 172.775 485.5 172.5 C 484.675 172.225 483.1 170.875 482 169.5 C 480.9 168.125 476.175 165.425 471.5 163.5 C 466.825 161.575 460.975 158.425 458.5 156.5 C 455.318 154.025 451.217 152.854 444.5 152.5 C 439.275 152.225 433.425 152.225 431.5 152.5 C 429.432 152.795 427.386 154.432 426.5 156.5 L 425 160 L 435 162 C 440.5 163.1 448.15 165.35 452 167 C 455.85 168.65 460.575 171.35 462.5 173 C 464.425 174.65 467.35 177.575 469 179.5 C 470.65 181.425 473.125 185.025 474.5 187.5 C 475.875 189.975 477.225 191.775 477.5 191.5 C 477.775 191.225 477.775 191.675 477.5 192.5 C 477.225 193.325 476.55 194.225 476 194.5 C 475.45 194.775 473.2 193.2 471 191 C 468.8 188.8 464.975 184.525 462.5 181.5 C 460.025 178.475 456.425 175.325 454.5 174.5 C 452.575 173.675 448.975 173.225 446.5 173.5 C 444.025 173.775 441.325 174.9 440.5 176 C 439.675 177.1 439.675 179.35 440.5 181 C 441.325 182.65 442.225 186.025 442.5 188.5 C 442.778 191.006 441.892 194.108 440.5 195.5 C 439.125 196.875 435.975 198.675 433.5 199.5 C 431.025 200.325 427.65 200.55 426 200 C 424.06 199.353 422.647 197.233 422 194 C 421.45 191.25 421.45 188.55 422 188 C 422.55 187.45 423.9 188.35 425 190 C 426.1 191.65 429.025 193.675 431.5 194.5 C 433.975 195.325 436.225 195.325 436.5 194.5 C 436.775 193.675 435.65 190.525 434 187.5 L 431 182 L 424 181 C 420.15 180.45 416.1 180.225 415 180.5 C 413.9 180.775 410.75 180.55 408 180 C 404.387 179.277 402.168 179.832 400 182 C 398.35 183.65 395.425 185.45 393.5 186 C 391.575 186.55 387.75 188.575 385 190.5 L 380 194 L 379 190.5 C 378.45 188.575 377.1 185.875 376 184.5 C 374.9 183.125 373.55 182.225 373 182.5 C 372.45 182.775 371.1 184.35 370 186 C 368.9 187.65 366.875 189.9 365.5 191 C 364.125 192.1 361.425 193.45 359.5 194 C 357.399 194.6 354.202 193.801 351.5 192 C 349.025 190.35 345.2 186.975 343 184.5 C 339.88 180.99 338.45 180.33 336.5 181.5 C 334.5 182.7 334.5 181 336.5 173 L 339 163 L 335.5 159 C 333.575 156.8 329.975 153.875 327.5 152.5 C 325.025 151.125 320.3 146.4 317 142 C 313.7 137.6 309.425 133.55 307.5 133 C 305.104 132.315 303.685 132.788 303 134.5 C 302.385 136.038 303.539 138.923 306 142 C 308.549 145.187 309.819 148.451 309.5 151 C 309.103 154.178 307.151 156.13 300 160.5 L 291 166 L 286.5 162.5 C 284.025 160.575 282.225 158.55 282.5 158 C 282.775 157.45 282.1 157.225 281 157.5 C 279.9 157.775 278.775 157.55 278.5 157 C 278.225 156.45 278.675 153.525 279.5 150.5 L 281 145 L 278 144 C 276.35 143.45 274.325 143.45 273.5 144 C 272.675 144.55 272.225 144.55 272.5 144 C 272.775 143.45 272.55 143.225 272 143.5 C 271.45 143.775 271.45 146.475 272 149.5 C 272.579 152.685 271.948 157.105 270.5 160 C 269.125 162.75 267.775 166.8 267.5 169 C 267.225 171.2 268.575 177.275 270.5 182.5 C 272.425 187.725 273.775 194.925 273.5 198.5 C 273.225 202.075 272.325 207.025 271.5 209.5 C 270.675 211.975 269.1 217.375 268 221.5 C 266.9 225.625 265.325 229.225 264.5 229.5 C 263.675 229.775 262.775 228.425 262.5 226.5 L 262 223 L 255 227 L 248 231 L 248.5 227.5 C 248.775 225.575 249.9 221.975 251 219.5 C 252.1 217.025 253.225 212.3 253.5 209 C 253.775 205.7 253.325 202.55 252.5 202 C 251.675 201.45 248.525 201.45 245.5 202 C 242.475 202.55 237.975 204.125 235.5 205.5 C 233.025 206.875 229.875 208.675 228.5 209.5 C 227.125 210.325 222.175 211.45 217.5 212 C 212.825 212.55 208.775 213.225 208.5 213.5 C 208.225 213.775 209.125 212.875 210.5 211.5 C 211.875 210.125 213.45 208.325 214 207.5 C 214.55 206.675 215.225 205.1 215.5 204 C 215.775 202.9 214.875 200.875 213.5 199.5 C 212.125 198.125 208.525 194.3 205.5 191 C 202.475 187.7 198.65 184.775 197 184.5 C 195.133 184.189 193.056 185.322 191.5 187.5 C 190.125 189.425 188.55 193.7 188 197 C 187.45 200.3 185.65 204.575 184 206.5 C 182.35 208.425 180.325 210.225 179.5 210.5 C 178.675 210.775 174.85 208.975 171 206.5 C 167.15 204.025 161.975 200.425 159.5 198.5 C 157.025 196.575 154.55 193.875 154 192.5 C 153.45 191.125 153.45 187.525 154 184.5 C 154.579 181.315 154.158 178.369 153 177.5 C 151.9 176.675 149.425 176.675 147.5 177.5 C 145.575 178.325 141.075 181.475 137.5 184.5 C 133.925 187.525 128.975 192.7 126.5 196 C 124.025 199.3 120.425 202.675 118.5 203.5 C 116.575 204.325 112.75 205.45 110 206 C 107.25 206.55 103.65 206.325 102 205.5 C 100.35 204.675 98.325 202.425 97.5 200.5 C 96.675 198.575 94.65 195.875 93 194.5 C 91.35 193.125 89.1 189.75 88 187 C 86.9 184.25 86.225 179.525 86.5 176.5 C 86.775 173.475 88.8 166.5 91 161 C 93.2 155.5 97.025 146.275 99.5 140.5 C 101.975 134.725 104.9 128.65 106 127 C 107.1 125.35 108.9 121.75 110 119 C 111.1 116.25 113.575 112.425 115.5 110.5 C 117.425 108.575 121.475 106.55 124.5 106 L 130 105 L 129 107.5 C 128.45 108.875 126.875 111.125 125.5 112.5 C 124.125 113.875 122.775 115.225 122.5 115.5 C 122.225 115.775 123.575 116.675 125.5 117.5 C 127.425 118.325 132.375 119 136.5 119 C 140.625 119 146.25 118.55 149 118 C 151.75 117.45 156.925 117.225 160.5 117.5 C 164.075 117.775 169.025 118.225 171.5 118.5 C 173.975 118.775 180.275 118.775 185.5 118.5 C 190.725 118.225 197.025 117.775 199.5 117.5 C 201.975 117.225 205.35 116.775 207 116.5 C 209.374 116.104 209.896 115.061 209.5 111.5 C 209.204 108.836 207.572 105.98 205.5 104.5 C 203.575 103.125 199.525 101.775 196.5 101.5 C 193.475 101.225 189.65 101.225 188 101.5 C 186.35 101.775 183.2 101.775 181 101.5 C 178.8 101.225 173.625 101.9 169.5 103 C 165.375 104.1 159.525 105.225 156.5 105.5 C 152.223 105.889 150.444 105.222 148.5 102.5 C 147.125 100.575 145.775 99.45 145.5 100 C 145.225 100.55 143.65 102.8 142 105 C 140.35 107.2 138.1 109.45 137 110 C 135.535 110.732 135.268 110.331 136 108.5 C 136.55 107.125 136.775 104.875 136.5 103.5 C 136.225 102.125 137.35 99.425 139 97.5 C 140.65 95.575 142.225 93.775 142.5 93.5 C 142.775 93.225 139.85 93.45 136 94 C 132.15 94.55 127.2 95.675 125 96.5 C 122.8 97.325 119.875 99.125 118.5 100.5 C 116.5 102.5 115.8 102.5 115 100.5 C 114.45 99.125 114.45 95.75 115 93 C 115.55 90.25 117.8 84.175 120 79.5 C 122.689 73.786 123.508 70.181 122.5 68.5 C 121.675 67.125 121.45 65.775 122 65.5 C 122.55 65.225 124.35 61.4 126 57 C 127.65 52.6 130.8 45.85 133 42 C 135.2 38.15 139.025 33.2 141.5 31 C 143.975 28.8 147.8 23.85 150 20 C 152.2 16.15 156.25 11.425 159 9.5 L 164 6 L 160.5 5.5 C 158.575 5.225 156.775 5.45 156.5 6 C 156.225 6.55 154.65 7.225 153 7.5 C 151.35 7.775 147.975 7.1 145.5 6 C 142.894 4.842 141.21 3.158 141.5 2 C 141.836 0.658 118.648 0 71 0 Z  M 75.5 72 C 76.875 72.55 78.675 75.25 79.5 78 C 80.325 80.75 80.775 83.9 80.5 85 C 80.225 86.1 77.75 90.15 75 94 C 71.391 99.053 70.278 101.974 71 104.5 C 71.55 106.425 72.225 111.15 72.5 115 C 72.775 118.85 73.225 124.025 73.5 126.5 C 73.775 128.975 73.55 134.825 73 139.5 C 72.45 144.175 71.775 150.025 71.5 152.5 C 71.225 154.975 71.225 158.8 71.5 161 L 72 165 L 69.5 162 C 68.125 160.35 66.1 157.425 65 155.5 C 63.9 153.575 63.225 151.775 63.5 151.5 C 63.775 151.225 63.55 150.775 63 150.5 C 62.45 150.225 62.225 149.55 62.5 149 C 62.775 148.45 62.1 148.225 61 148.5 C 59.9 148.775 58.325 151.475 57.5 154.5 C 56.675 157.525 56.225 160.225 56.5 160.5 C 56.775 160.775 56.325 164.825 55.5 169.5 C 54.675 174.175 53.325 179.575 52.5 181.5 C 51.675 183.425 51.225 186.125 51.5 187.5 C 51.775 188.875 52.45 190.675 53 191.5 C 53.55 192.325 54.225 194.35 54.5 196 C 54.775 197.65 53.65 201.025 52 203.5 L 49 208 L 47.5 201.5 C 46.675 197.925 45.775 193.2 45.5 191 C 45.225 188.8 45.45 185.875 46 184.5 C 46.55 183.125 47 175.475 47 167.5 C 47 159.525 47.9 149.4 49 145 C 50.1 140.6 50.775 133.625 50.5 129.5 C 50.185 124.778 50.926 120.889 52.5 119 C 53.875 117.35 56.125 114.875 57.5 113.5 C 58.875 112.125 60.675 108.525 61.5 105.5 C 62.325 102.475 64.125 97.975 65.5 95.5 C 66.875 93.025 69.125 86.5 70.5 81 L 73 71 L 75.5 72 Z  M 524.5 106 C 524.775 106 526.575 106.675 528.5 107.5 C 530.425 108.325 533.35 110.8 535 113 C 536.65 115.2 537.775 117.675 537.5 118.5 C 537.225 119.325 536.325 121.125 535.5 122.5 L 534 125 L 539.5 126.5 C 542.525 127.325 544.55 128.45 544 129 C 543.45 129.55 539.85 131.125 536 132.5 C 532.15 133.875 527.875 136.125 526.5 137.5 C 525.125 138.875 524.225 141.575 524.5 143.5 C 524.775 145.425 524.325 150.375 523.5 154.5 C 522.675 158.625 522.45 163.8 523 166 C 523.55 168.2 524.675 171.125 525.5 172.5 C 526.325 173.875 527.45 175.225 528 175.5 C 528.55 175.775 528.775 177.575 528.5 179.5 C 528.225 181.425 527.775 185.025 527.5 187.5 C 527.225 189.975 527.45 194.25 528 197 C 528.55 199.75 529.45 202.675 530 203.5 C 530.55 204.325 530.1 205.45 529 206 C 527.9 206.55 526.1 206.325 525 205.5 C 523.9 204.675 522.55 201.075 522 197.5 C 521.45 193.925 520.55 189.425 520 187.5 C 519.45 185.575 518.1 181.3 517 178 C 515.9 174.7 514.55 170.425 514 168.5 C 513.45 166.575 513.225 164.325 513.5 163.5 C 513.775 162.675 514.9 160.425 516 158.5 C 517.1 156.575 518.45 150.5 519 145 C 519.55 139.5 520.9 131.625 522 127.5 C 523.1 123.375 523.775 119.55 523.5 119 C 523.225 118.45 523.225 115.3 523.5 112 C 523.775 108.7 524.225 106 524.5 106 Z  M 221.5 108.5 L 218 108 L 219.5 111.5 C 220.325 113.425 222.575 115.45 224.5 116 C 226.478 116.565 228.435 116.13 229 115 C 229.55 113.9 228.875 112.1 227.5 111 C 226.125 109.9 223.425 108.775 221.5 108.5 Z  M 302.5 109 C 301.125 108.45 298.65 109.125 297 110.5 C 294.736 112.387 294.491 113.368 296 114.5 C 297.1 115.325 299.35 115.1 301 114 C 302.65 112.9 304.225 111.55 304.5 111 C 304.775 110.45 303.875 109.55 302.5 109 Z  M 157.5 161.5 C 155.575 161.225 150.625 162.35 146.5 164 C 142.375 165.65 136.3 167.9 133 169 C 129.7 170.1 124.3 173.025 121 175.5 C 117.7 177.975 114.1 181.35 113 183 C 111.9 184.65 109.875 187.125 108.5 188.5 C 107.125 189.875 105.55 192.125 105 193.5 C 104.45 194.875 104.675 196.45 105.5 197 C 106.325 197.55 107.225 197.775 107.5 197.5 C 107.775 197.225 108.225 197.225 108.5 197.5 C 108.775 197.775 110.575 197.325 112.5 196.5 C 114.425 195.675 116.9 193.2 118 191 C 119.1 188.8 122.025 183.85 124.5 180 C 127.106 175.946 130.894 172.158 133.5 171 C 135.975 169.9 140.7 168.775 144 168.5 C 147.3 168.225 152.475 166.65 155.5 165 L 161 162 L 157.5 161.5 Z  M 61.5 205 C 61.775 205 63.575 205.675 65.5 206.5 C 67.425 207.325 69.45 208.675 70 209.5 C 70.55 210.325 73.025 212.125 75.5 213.5 C 77.975 214.875 81.125 216.9 82.5 218 C 83.875 219.1 86.575 222.7 88.5 226 C 90.425 229.3 91.775 233.575 91.5 235.5 C 91.225 237.425 91.225 239.9 91.5 241 C 91.775 242.1 92 245.25 92 248 C 92 250.75 92.675 254.125 93.5 255.5 C 94.325 256.875 96.575 258.225 98.5 258.5 C 100.425 258.775 104.925 257.425 108.5 255.5 C 112.075 253.575 116.8 250.65 119 249 C 121.2 247.35 125.925 243.075 129.5 239.5 C 133.075 235.925 138.025 231.2 140.5 229 C 142.975 226.8 146.8 222.975 149 220.5 C 151.2 218.025 154.125 214.425 155.5 212.5 C 157.269 210.024 159.17 209.146 162 209.5 C 164.2 209.775 169.15 212.475 173 215.5 C 176.85 218.525 181.35 222.575 183 224.5 C 184.65 226.425 186.45 230.25 187 233 C 187.55 235.75 187.325 241.375 186.5 245.5 C 185.675 249.625 184.55 256.825 184 261.5 C 183.45 266.175 182.55 271.8 182 274 C 181.45 276.2 180.55 280.925 180 284.5 C 179.45 288.075 178.55 294.15 178 298 C 177.45 301.85 176.55 306.8 176 309 C 175.45 311.2 172.975 317.95 170.5 324 C 166.946 332.687 164.949 335.631 161 338 C 158.25 339.65 154.2 340.775 152 340.5 C 149.8 340.225 146.875 338.65 145.5 337 C 144.125 335.35 142.325 331.3 141.5 328 C 140.675 324.7 140.45 317.5 141 312 C 141.55 306.5 143.125 295.925 144.5 288.5 C 146.111 279.798 146.289 275.533 145 276.5 C 143.9 277.325 137.6 281.15 131 285 C 124.4 288.85 113.825 294.025 107.5 296.5 C 101.175 298.975 93.3 301 90 301 C 86.7 301 82.2 300.55 80 300 C 77.8 299.45 73.75 297.875 71 296.5 C 68.25 295.125 64.425 292.2 62.5 290 C 60.575 287.8 58.775 285.1 58.5 284 C 58.225 282.9 57.325 282.45 56.5 283 C 55.675 283.55 54.1 287.375 53 291.5 L 51 299 L 53.5 298.5 C 55.478 298.104 55.791 298.731 55 301.5 C 54.45 303.425 54 307.475 54 310.5 C 54 313.525 54.9 318.025 56 320.5 C 57.1 322.975 59.125 325.225 60.5 325.5 C 61.875 325.775 63.675 325.55 64.5 325 C 65.325 324.45 65.775 322.2 65.5 320 C 65.225 317.8 65.45 314.425 66 312.5 C 66.55 310.575 66.775 307.65 66.5 306 C 66.225 304.35 66.225 302.775 66.5 302.5 C 66.775 302.225 69.025 304.7 71.5 308 C 73.975 311.3 77.8 316.475 80 319.5 C 82.2 322.525 86.25 327.7 89 331 C 92.662 335.394 95.472 337.268 99.5 338 C 102.525 338.55 106.8 339.9 109 341 C 111.2 342.1 115.25 346.15 118 350 C 120.75 353.85 124.8 360.6 127 365 C 129.2 369.4 134.15 377.275 138 382.5 C 141.85 387.725 144.775 392.45 144.5 393 C 144.225 393.55 144.45 395.575 145 397.5 C 145.55 399.425 145.1 402.35 144 404 C 142.9 405.65 141.1 408.35 140 410 C 138.824 411.764 137.176 412.588 136 412 C 134.9 411.45 134.225 411.45 134.5 412 C 134.775 412.55 134.775 414.125 134.5 415.5 C 134.116 417.419 133.768 417.187 133 414.5 C 132.45 412.575 132.225 410.55 132.5 410 C 132.775 409.45 132.55 408.325 132 407.5 C 131.45 406.675 131.225 405.55 131.5 405 C 131.775 404.45 133.125 402.875 134.5 401.5 C 135.875 400.125 136.55 398.1 136 397 C 135.45 395.9 133.875 393.875 132.5 392.5 C 131.125 391.125 128.65 389.325 127 388.5 C 125.35 387.675 121.75 385.425 119 383.5 C 116.25 381.575 113.325 378.2 112.5 376 C 111.623 373.661 111.83 370.754 113 369 C 114.1 367.35 114.55 365.325 114 364.5 C 113.45 363.675 111.425 361.425 109.5 359.5 C 107.575 357.575 103.525 355.55 100.5 355 C 97.466 354.448 94.103 352.655 93 351 C 91.9 349.35 88.075 345.3 84.5 342 C 80.925 338.7 76.65 335.325 75 334.5 C 72.891 333.446 71.554 333.743 70.5 335.5 C 69.675 336.875 69.225 338.45 69.5 339 C 69.775 339.55 70.45 341.125 71 342.5 C 71.55 343.875 71.775 346.575 71.5 348.5 C 71.225 350.425 69.875 352.675 68.5 353.5 C 67.125 354.325 64.875 354.775 63.5 354.5 C 62.125 354.225 58.3 352.65 55 351 C 51.7 349.35 46.975 348.225 44.5 348.5 C 42.025 348.775 38.65 348.1 37 347 L 34 345 L 36.5 338.5 C 37.875 334.925 39.9 330.425 41 328.5 C 42.1 326.575 43.9 321.625 45 317.5 C 46.1 313.375 46.55 310.225 46 310.5 C 45.45 310.775 44.1 313.025 43 315.5 C 41.9 317.975 40.325 321.125 39.5 322.5 C 38.675 323.875 36.875 327.7 35.5 331 C 34.125 334.3 32.325 338.125 31.5 339.5 C 30.675 340.875 28.2 343.125 26 344.5 C 23.8 345.875 20.425 346.55 18.5 346 C 16.575 345.45 13.65 342.75 12 340 C 10.35 337.25 8.1 331.175 7 326.5 C 5.9 321.825 5.225 317.775 5.5 317.5 C 5.775 317.225 5.775 316.775 5.5 316.5 C 5.225 316.225 5.225 314.65 5.5 313 C 5.775 311.35 6.675 307.525 7.5 304.5 C 8.325 301.475 11.025 294.05 13.5 288 C 15.975 281.95 19.8 273.175 22 268.5 C 24.2 263.825 27.575 256.625 29.5 252.5 C 31.425 248.375 34.8 241.85 37 238 C 39.2 234.15 43.25 226.95 46 222 C 48.75 217.05 53.25 211.2 56 209 C 58.75 206.8 61.225 205 61.5 205 Z  M 314.5 209 C 316.425 209.55 321.15 211.125 325 212.5 C 329.156 213.984 332.813 216.422 334 218.5 C 335.1 220.425 336.45 225.825 337 230.5 C 337.55 235.175 338.45 240.8 339 243 C 339.55 245.2 340.9 251.05 342 256 C 343.1 260.95 344.675 267.025 345.5 269.5 C 346.445 272.334 348.11 274.185 350 274.5 C 351.65 274.775 355.25 276.125 358 277.5 C 360.75 278.875 364.575 281.35 366.5 283 L 370 286 L 368 289.5 C 366.9 291.425 363.525 295.25 360.5 298 C 356.808 301.356 355.164 303.986 355.5 306 C 355.775 307.65 356 311.25 356 314 C 356 316.75 355.55 320.8 355 323 C 354.45 325.2 353.1 328.8 352 331 C 350.9 333.2 348.875 336.125 347.5 337.5 C 346.125 338.875 343.65 340.9 342 342 C 340.35 343.1 336.3 344.225 333 344.5 C 329.637 344.78 325.462 343.901 323.5 342.5 C 321.575 341.125 319.55 338.65 319 337 C 318.45 335.35 315.75 331.975 313 329.5 L 308 325 L 312 324 C 314.2 323.45 317.575 322.1 319.5 321 C 321.425 319.9 323.225 317.425 323.5 315.5 L 324 312 L 318 312.5 C 314.7 312.775 309.975 313.9 307.5 315 C 305.025 316.1 303.225 317.45 303.5 318 C 303.775 318.55 303.55 320.575 303 322.5 C 302.45 324.425 302.225 326.9 302.5 328 C 302.775 329.1 304.35 331.35 306 333 C 307.65 334.65 309.9 338.25 311 341 C 312.1 343.75 312.775 352.525 312.5 360.5 L 312 375 L 308.5 375.5 C 306.575 375.775 303.875 375.325 302.5 374.5 C 301.125 373.675 299.55 371.425 299 369.5 C 298.45 367.575 296.875 364.65 295.5 363 C 294.125 361.35 291.65 360.225 290 360.5 C 288.263 360.79 286.79 362.263 286.5 364 C 286.157 366.059 284.746 367.157 282 367.5 L 278 368 L 276 363.5 C 274.9 361.025 274.225 357.875 274.5 356.5 C 274.775 355.125 275.225 352.2 275.5 350 C 275.775 347.8 275.325 344.875 274.5 343.5 C 273.377 341.629 271.491 341.377 267 342.5 C 263.7 343.325 257.85 344.225 254 344.5 C 250.15 344.775 244.975 343.875 242.5 342.5 C 239.903 341.057 237.154 337.886 236 335 C 234.9 332.25 234.225 327.975 234.5 325.5 C 234.775 323.025 236.575 317.175 238.5 312.5 C 240.425 307.825 244.925 297.925 248.5 290.5 C 252.075 283.075 257.25 272.05 260 266 C 262.75 259.95 266.125 252.525 267.5 249.5 C 268.875 246.475 271.575 241.75 273.5 239 C 275.425 236.25 277.9 233.325 279 232.5 C 280.1 231.675 282.8 230.55 285 230 C 287.2 229.45 290.8 227.875 293 226.5 C 295.2 225.125 300.15 220.4 304 216 L 311 208 L 314.5 209 Z  M 438.5 209 C 438.775 209 441.7 209.9 445 211 C 448.3 212.1 453.7 214.8 457 217 C 460.3 219.2 466.375 224.825 470.5 229.5 C 474.625 234.175 479.125 239.125 480.5 240.5 L 483 243 L 488.5 239.5 C 491.525 237.575 498.275 232.85 503.5 229 C 508.725 225.15 516.15 219.525 520 216.5 C 523.85 213.475 528.35 210.775 530 210.5 C 531.65 210.225 534.575 210.9 536.5 212 C 538.425 213.1 541.8 217.6 544 222 C 546.2 226.4 547.775 230.675 547.5 231.5 C 547.225 232.325 545.65 235.25 544 238 C 542.35 240.75 540.1 243.675 539 244.5 C 537.9 245.325 533.175 248.25 528.5 251 C 523.825 253.75 515.05 259.825 509 264.5 C 501.358 270.405 498.153 273.763 498.5 275.5 C 498.775 276.875 501.7 282.275 505 287.5 C 508.3 292.725 512.575 298.8 514.5 301 C 516.425 303.2 519.35 308.6 521 313 C 522.65 317.4 523.775 323.025 523.5 325.5 C 523.225 327.975 521.425 332.7 519.5 336 C 517.575 339.3 514.425 342.675 512.5 343.5 C 510.575 344.325 507.425 344.325 505.5 343.5 C 503.575 342.675 500.65 340.65 499 339 C 497.35 337.35 495.1 333.975 494 331.5 C 492.9 329.025 490.65 324.525 489 321.5 C 487.35 318.475 483.75 312.625 481 308.5 C 478.25 304.375 475.1 300.775 474 300.5 C 472.9 300.225 468.85 302.7 465 306 C 461.15 309.3 454.85 315.6 451 320 C 447.15 324.4 443.1 330.7 442 334 C 440.9 337.3 438.65 341.8 437 344 C 435.35 346.2 432.425 348.225 430.5 348.5 C 428.575 348.775 425.875 348.325 424.5 347.5 C 423.125 346.675 420.425 343.075 418.5 339.5 C 416.399 335.598 415.2 330.802 415.5 327.5 C 415.775 324.475 416.45 320.2 417 318 C 417.55 315.8 419.125 311.75 420.5 309 C 421.875 306.25 424.35 302.2 426 300 C 427.65 297.8 431.475 293.3 434.5 290 C 437.525 286.7 441.8 282.2 444 280 C 446.2 277.8 449.575 274.2 451.5 272 C 453.425 269.8 454.775 267.55 454.5 267 C 454.225 266.45 451.975 263.075 449.5 259.5 C 447.025 255.925 442.975 250.525 440.5 247.5 C 438.025 244.475 435.1 240.425 434 238.5 C 432.9 236.575 432.45 231.4 433 227 C 433.55 222.6 434.9 216.75 436 214 C 437.1 211.25 438.225 209 438.5 209 Z  M 204.5 220 C 205.325 220.55 205.325 222.125 204.5 223.5 C 203.675 224.875 201.65 226.675 200 227.5 C 198.35 228.325 196.1 229.675 195 230.5 C 193.464 231.652 192.768 231.187 192 228.5 C 191.45 226.575 191.225 224.55 191.5 224 C 191.775 223.45 193.35 222.775 195 222.5 C 196.65 222.225 199.125 221.325 200.5 220.5 C 201.875 219.675 203.675 219.45 204.5 220 Z  M 405 219 C 406.1 219 408.8 219.45 411 220 C 413.2 220.55 417.475 221.45 420.5 222 C 423.989 222.634 426.183 223.914 426.5 225.5 C 426.775 226.875 426.1 228.675 425 229.5 C 423.9 230.325 422.325 231.45 421.5 232 C 420.675 232.55 418.875 232.775 417.5 232.5 C 416.125 232.225 414.325 230.875 413.5 229.5 C 412.675 228.125 409.075 225.875 405.5 224.5 C 400.371 222.527 399.422 221.684 401 220.5 C 402.1 219.675 403.9 219 405 219 Z  M 195.5 244 C 195.775 244 197.125 244.45 198.5 245 C 199.875 245.55 202.125 245.775 203.5 245.5 L 206 245 L 204 249 C 202.9 251.2 199.975 255.025 197.5 257.5 C 195.025 259.975 192.55 261.775 192 261.5 C 191.45 261.225 191.225 259.65 191.5 258 C 191.775 256.35 192.225 253.65 192.5 252 C 192.775 250.35 193.45 247.875 194 246.5 C 194.55 245.125 195.225 244 195.5 244 Z  M 308 255.5 C 307.45 255.225 306.325 256.35 305.5 258 C 304.675 259.65 302.2 263.25 300 266 C 297.8 268.75 294.875 273.475 293.5 276.5 C 292.125 279.525 290.775 282.225 290.5 282.5 C 290.225 282.775 294.275 283.225 299.5 283.5 C 304.725 283.775 310.575 283.55 312.5 283 L 316 282 L 313.5 272.5 C 312.125 267.275 310.55 261.425 310 259.5 C 309.45 257.575 308.55 255.775 308 255.5 Z  M 229.5 292.5 C 230.325 293.325 231.45 296.475 232 299.5 C 232.55 302.525 231.875 309.275 230.5 314.5 C 229.125 319.725 228.45 326.925 229 330.5 C 229.775 335.535 229.324 337.564 227 339.5 C 225.35 340.875 221.525 343.125 218.5 344.5 L 213 347 L 213.5 351.5 C 213.775 353.975 213.1 357.8 212 360 C 210.9 362.2 208.65 364.675 207 365.5 C 205.35 366.325 204.225 366.775 204.5 366.5 C 204.775 366.225 204.775 365.325 204.5 364.5 C 204.225 363.675 203.325 361.2 202.5 359 C 201.675 356.8 201.675 355.45 202.5 356 C 203.325 356.55 204.45 357.675 205 358.5 C 205.55 359.325 206.675 359.775 207.5 359.5 C 208.325 359.225 206.75 355.175 204 350.5 C 201.25 345.825 198.55 340.65 198 339 C 197.263 336.789 197.526 336.263 199 337 C 200.1 337.55 200.775 337.55 200.5 337 C 200.225 336.45 199.55 335.325 199 334.5 C 198.45 333.675 197.325 332.775 196.5 332.5 C 195.675 332.225 195.9 330.425 197 328.5 C 198.1 326.575 200.125 323.875 201.5 322.5 C 202.875 321.125 205.8 319.1 208 318 C 210.2 316.9 214.025 314.875 216.5 313.5 C 218.975 312.125 222.125 310.1 223.5 309 C 224.917 307.867 225.783 305.267 225.5 303 C 225.225 300.8 225.675 297.2 226.5 295 C 227.553 292.191 228.447 291.447 229.5 292.5 Z  M 287.5 335 C 286.675 335 285.325 336.125 284.5 337.5 C 283.675 338.875 282.55 342.475 282 345.5 L 281 351 L 284 350.5 C 285.89 350.185 287.555 348.334 288.5 345.5 C 289.325 343.025 289.775 339.65 289.5 338 C 289.225 336.35 288.325 335 287.5 335 Z  M 63 363.5 C 66.3 363.775 70.575 364.45 72.5 365 C 75.187 365.768 76.116 367.161 76.5 371 C 76.885 374.849 76.079 376.806 73 379.5 C 70.69 381.521 67.521 382.789 65.5 382.5 C 63.575 382.225 60.875 380.875 59.5 379.5 C 58.038 378.038 57 374.094 57 370 L 57 363 L 63 363.5 Z  M 279.5 369 C 281.975 369.55 283.325 370.45 282.5 371 C 281.675 371.55 279.2 371.775 277 371.5 C 274.8 371.225 270.525 372.575 267.5 374.5 C 264.475 376.425 259.075 379.575 255.5 381.5 C 251.925 383.425 248.325 384.775 247.5 384.5 C 246.675 384.225 247.575 383.325 249.5 382.5 C 251.425 381.675 254.575 379.875 256.5 378.5 C 258.425 377.125 263.375 374.2 267.5 372 C 272.649 369.254 276.41 368.313 279.5 369 Z  M 489.5 482.5 C 489.775 482.775 487.975 488.4 485.5 495 C 482.56 502.841 479.44 508.386 476.5 511 C 474.025 513.2 469.975 516.35 467.5 518 C 465.025 519.65 461.425 521.9 459.5 523 C 457.575 524.1 451.5 527.925 446 531.5 C 440.5 535.075 433.75 538.45 431 539 C 428.25 539.55 424.875 539.55 423.5 539 C 422.125 538.45 419.65 538.225 418 538.5 C 416.35 538.775 409.15 541.7 402 545 C 394.85 548.3 388.325 550.775 387.5 550.5 C 386.675 550.225 386.225 549.55 386.5 549 C 386.775 548.45 391.5 545.075 397 541.5 C 402.5 537.925 409.475 534.55 412.5 534 C 415.525 533.45 420.025 533.225 422.5 533.5 C 424.975 533.775 428.8 533.55 431 533 C 433.2 532.45 439.05 529.3 444 526 C 448.95 522.7 455.925 516.625 459.5 512.5 C 463.606 507.762 467.842 504.448 471 503.5 C 474.613 502.416 476.971 500.336 479.5 496 C 481.425 492.7 484.35 488.2 486 486 C 487.65 483.8 489.225 482.225 489.5 482.5 Z  M 173.5 506.5 C 172.675 506.225 169.975 508.025 167.5 510.5 C 165.025 512.975 163.225 515.225 163.5 515.5 C 163.775 515.775 163.55 515.775 163 515.5 C 162.45 515.225 161.775 515.9 161.5 517 C 161.225 518.1 163.025 521.025 165.5 523.5 C 167.975 525.975 172.475 529.575 175.5 531.5 L 181 535 L 182.5 532.5 L 184 530 L 177 524.5 C 173.15 521.475 169.775 518.775 169.5 518.5 C 169.225 518.225 170.125 516.425 171.5 514.5 C 172.875 512.575 174.225 510.1 174.5 509 C 174.775 507.9 174.325 506.775 173.5 506.5 Z " fill-rule="evenodd" fill="url(#_rgradient_1)"/></g></svg>