<?xml version="1.0" encoding="UTF-8" standalone="no"?><!-- Generator: Gravit.io --><svg xmlns="http://www.w3.org/2000/svg" xmlns:xlink="http://www.w3.org/1999/xlink" style="isolation:isolate" viewBox="0 0 420 420" width="420pt" height="420pt"><defs><clipPath id="_clipPath_3sIjXwY0Kl7G6abkJd2oQpthXyZmwONn"><rect width="420" height="420"/></clipPath></defs><g clip-path="url(#_clipPath_3sIjXwY0Kl7G6abkJd2oQpthXyZmwONn)"><path d=" M 210 0 L 0 0 L 0 210 L 0 420 L 210 420 L 420 420 L 420 210 L 420 0 L 210 0 Z " fill-rule="evenodd" fill="rgb(241,177,193)"/><path d=" M 210 0 L 0 0 L 0 210 L 0 420 L 210 420 L 420 420 L 420 210 L 420 0 L 210 0 Z " fill-rule="evenodd" fill="rgb(238,238,0)"/><path d=" M 59 0 L 37 0 L 28 5 C 22.01 8.328 19.836 10.167 21.5 10.5 C 22.875 10.775 25.8 10.55 28 10 C 30.2 9.45 36.275 8.775 41.5 8.5 C 46.725 8.225 55.5 6.875 61 5.5 C 66.5 4.125 73.25 2.325 76 1.5 C 79.219 0.534 73.164 0 59 0 Z  M 141 0 C 99.025 0 84.381 0.553 88 2 C 90.75 3.1 94.125 5.125 95.5 6.5 L 98 9 L 90.5 9 C 86.375 9 82.325 9.45 81.5 10 C 80.664 10.557 81.771 11.443 84 12 C 86.2 12.55 91.6 13.45 96 14 C 100.4 14.55 106.025 15.9 108.5 17 C 110.975 18.1 114.35 21.25 116 24 L 119 29 L 113 26 C 109.7 24.35 105.65 22.775 104 22.5 C 101.616 22.103 101.308 22.411 102.5 24 C 103.325 25.1 105.8 26.9 108 28 C 110.2 29.1 113.125 30.675 114.5 31.5 C 116.25 32.55 114.599 33 109 33 L 101 33 L 104.5 36 L 108 39 L 101 36.5 C 97.15 35.125 90.4 31.3 86 28 C 81.6 24.7 75.75 21.55 73 21 C 70.25 20.45 65.3 20.45 62 21 C 58.7 21.55 53.75 22.45 51 23 L 46 24 L 57 25.5 C 63.05 26.325 70.925 27.45 74.5 28 C 78.075 28.55 81.225 29.45 81.5 30 C 81.775 30.55 80.2 31.45 78 32 L 74 33 L 76.5 35.5 L 79 38 L 73.5 39.5 C 70.475 40.325 66.425 41.45 64.5 42 L 61 43 L 63.5 45.5 C 64.875 46.875 67.125 48.225 68.5 48.5 C 69.875 48.775 72.8 48.55 75 48 C 77.2 47.45 81.7 46.775 85 46.5 C 88.3 46.225 93.25 46.45 96 47 C 98.75 47.55 103.25 48.225 106 48.5 C 108.75 48.775 111.225 48.775 111.5 48.5 C 111.775 48.225 112.225 48.45 112.5 49 C 112.775 49.55 111.2 50.9 109 52 C 106.8 53.1 102.75 53.775 100 53.5 C 97.25 53.225 93.875 52.55 92.5 52 C 91.125 51.45 85.275 51 79.5 51 C 72.735 51 67.044 49.933 63.5 48 C 60.475 46.35 56.425 43.65 54.5 42 C 52.575 40.35 51.225 38.325 51.5 37.5 C 51.775 36.675 49.075 34.65 45.5 33 C 41.664 31.229 39.41 29.385 40 28.5 C 40.55 27.675 41.45 26.775 42 26.5 C 42.55 26.225 42.325 25.55 41.5 25 C 40.675 24.45 38.65 23.55 37 23 L 34 22 L 37 19.5 C 38.65 18.125 41.35 16.1 43 15 L 46 13 L 40.5 13 C 37.475 13 33.875 13.45 32.5 14 C 31.125 14.55 27.075 15.225 23.5 15.5 C 19.925 15.775 15.65 15.775 14 15.5 C 12.35 15.225 8.525 16.575 5.5 18.5 C 2.475 20.425 0.225 22.45 0.5 23 C 0.775 23.55 0.775 24.9 0.5 26 C 0.21 27.158 0.842 27.79 2 27.5 C 3.1 27.225 4.9 26.325 6 25.5 C 7.1 24.675 8.675 24.45 9.5 25 C 10.325 25.55 10.775 27.575 10.5 29.5 C 10.225 31.425 9.55 33.45 9 34 C 8.45 34.55 9.125 34.55 10.5 34 C 11.875 33.45 15.925 34.35 19.5 36 C 23.075 37.65 27.35 40.575 29 42.5 C 30.65 44.425 32.45 47.35 33 49 C 33.55 50.65 34.675 52.9 35.5 54 C 36.677 55.569 35.922 55.892 32 55.5 C 29.25 55.225 24.975 54.325 22.5 53.5 C 20.025 52.675 15.975 51.775 13.5 51.5 C 11.025 51.225 8.55 51.675 8 52.5 C 7.45 53.325 7.225 55.575 7.5 57.5 C 7.775 59.425 10.025 64.15 12.5 68 C 14.975 71.85 16.325 75.225 15.5 75.5 C 14.675 75.775 12.875 75.55 11.5 75 C 10.125 74.45 7.425 74.225 5.5 74.5 C 3.575 74.775 1.55 75.675 1 76.5 C 0.45 77.325 0 88.125 0 100.5 L 0 123 L 3.5 121.5 C 5.425 120.675 9.7 118.65 13 117 C 16.3 115.35 22.375 111.975 26.5 109.5 C 30.625 107.025 35.575 105.225 37.5 105.5 C 39.425 105.775 42.35 105.325 44 104.5 C 45.65 103.675 48.125 102.55 49.5 102 C 50.875 101.45 53.35 100.1 55 99 C 56.65 97.9 60.475 94.975 63.5 92.5 C 66.525 90.025 70.8 87.55 73 87 C 75.2 86.45 77.225 86.45 77.5 87 C 77.775 87.55 77.325 88.45 76.5 89 C 75.675 89.55 75.225 90.225 75.5 90.5 C 75.775 90.775 77.575 90.55 79.5 90 C 81.425 89.45 84.35 88.325 86 87.5 L 89 86 L 87 91 C 85.9 93.75 83.875 97.125 82.5 98.5 C 81.125 99.875 78.2 103.25 76 106 C 73.8 108.75 68.175 117.3 63.5 125 C 58.825 132.7 53.2 141.475 51 144.5 C 48.8 147.525 45.425 150.9 43.5 152 C 41.575 153.1 39.1 154.45 38 155 C 36.526 155.737 36.789 156.263 39 157 C 40.65 157.55 42.225 157.775 42.5 157.5 C 42.775 157.225 44.35 157.225 46 157.5 C 47.942 157.824 50.058 156.589 52 154 C 53.65 151.8 57.925 146.4 61.5 142 C 65.075 137.6 70.025 132.875 72.5 131.5 C 74.975 130.125 79.7 128.55 83 128 L 89 127 L 83 124.5 L 77 122 L 79.5 120.5 C 80.875 119.675 83.575 118.325 85.5 117.5 L 89 116 L 87 113.5 L 85 111 L 91 106 C 94.3 103.25 98.125 99.65 99.5 98 C 100.875 96.35 102.675 93.425 103.5 91.5 C 104.325 89.575 106.575 87.1 108.5 86 C 110.425 84.9 112.45 83.1 113 82 C 113.55 80.9 114.9 79.775 116 79.5 C 117.1 79.225 117.775 78.775 117.5 78.5 C 117.225 78.225 117.675 76.425 118.5 74.5 C 119.325 72.575 121.125 70.55 122.5 70 C 123.875 69.45 124.55 68.775 124 68.5 C 123.45 68.225 125.7 67.325 129 66.5 C 132.557 65.611 134.593 64.389 134 63.5 C 133.45 62.675 132.775 61.775 132.5 61.5 C 132.225 61.225 133.8 60.55 136 60 C 138.2 59.45 141.8 59.225 144 59.5 C 146.2 59.775 148.225 59.325 148.5 58.5 C 148.775 57.675 148.55 56.775 148 56.5 C 147.45 56.225 147.225 54.65 147.5 53 C 147.775 51.35 146.875 49.325 145.5 48.5 C 144.125 47.675 142.1 46.775 141 46.5 C 139.9 46.225 138.55 44.65 138 43 L 137 40 L 140 41 C 141.65 41.55 142.55 41.55 142 41 C 141.45 40.45 143.475 40.45 146.5 41 C 149.525 41.55 152.225 41.775 152.5 41.5 C 152.775 41.225 153.225 41.225 153.5 41.5 C 153.775 41.775 153.775 41.325 153.5 40.5 C 153.225 39.675 154.125 39.225 155.5 39.5 C 156.875 39.775 157.775 39.55 157.5 39 C 157.225 38.45 157.675 37.55 158.5 37 C 159.325 36.45 160.45 36.675 161 37.5 C 161.55 38.325 162.675 39.225 163.5 39.5 C 164.325 39.775 165.45 40.9 166 42 C 166.55 43.1 166.55 43.775 166 43.5 C 165.45 43.225 165.225 43.675 165.5 44.5 C 165.775 45.325 166.45 45.775 167 45.5 C 167.55 45.225 167.775 45.675 167.5 46.5 C 167.225 47.325 167.45 48.225 168 48.5 C 168.55 48.775 168.775 51.025 168.5 53.5 C 168.225 55.975 168.675 58.45 169.5 59 C 170.325 59.55 172.35 59.775 174 59.5 C 175.65 59.225 177.675 60.125 178.5 61.5 L 180 64 L 179.5 60 C 179.225 57.8 178.55 55.1 178 54 C 177.45 52.9 177.45 51.775 178 51.5 C 178.55 51.225 179.9 50.325 181 49.5 C 182.536 48.348 183.232 48.813 184 51.5 C 184.55 53.425 185.45 56.8 186 59 C 186.55 61.2 187.225 65.475 187.5 68.5 C 187.843 72.272 187.372 73.843 186 73.5 C 184.9 73.225 183.775 73.45 183.5 74 C 183.225 74.55 183.225 75.225 183.5 75.5 C 183.775 75.775 183.325 75.775 182.5 75.5 C 181.675 75.225 181.225 75.45 181.5 76 C 181.775 76.55 181.55 77.675 181 78.5 C 180.45 79.325 179.1 79.775 178 79.5 C 176.9 79.225 174.875 78.55 173.5 78 C 172.125 77.45 170.55 77.225 170 77.5 C 169.45 77.775 169.45 79.8 170 82 L 171 86 L 175.5 85.5 C 177.975 85.225 181.125 84.55 182.5 84 C 183.875 83.45 185.675 82.55 186.5 82 C 187.325 81.45 188.45 80.325 189 79.5 C 189.55 78.675 190.675 77.55 191.5 77 C 192.325 76.45 193.45 75.775 194 75.5 C 194.55 75.225 194.775 76.8 194.5 79 C 194.225 81.2 194.9 84.35 196 86 C 197.1 87.65 199.125 90.125 200.5 91.5 C 201.875 92.875 203.225 94.45 203.5 95 C 203.775 95.55 203.775 96.9 203.5 98 C 203.21 99.158 204.473 100.421 206.5 101 C 208.425 101.55 210.225 102.225 210.5 102.5 C 210.775 102.775 210.775 103.225 210.5 103.5 C 210.225 103.775 211.35 104.45 213 105 C 214.65 105.55 216.45 106.45 217 107 C 217.55 107.55 215.975 107.325 213.5 106.5 L 209 105 L 209.5 109 C 209.775 111.2 209.1 113.675 208 114.5 C 206.9 115.325 204.875 115.325 203.5 114.5 C 201.669 113.401 201.535 112.599 203 111.5 C 204.1 110.675 204.55 109.775 204 109.5 C 203.45 109.225 202.55 109.225 202 109.5 C 201.45 109.775 200.775 109.775 200.5 109.5 C 200.225 109.225 199.775 109.9 199.5 111 C 199.225 112.1 199.225 115.025 199.5 117.5 C 199.846 120.618 199.079 122.614 197 124 C 195.35 125.1 193.55 127.125 193 128.5 C 192.45 129.875 192.225 131.45 192.5 132 C 192.775 132.55 192.55 133.675 192 134.5 C 191.45 135.325 192.125 135.325 193.5 134.5 C 194.875 133.675 196.45 133.225 197 133.5 C 197.55 133.775 198.45 135.125 199 136.5 C 199.55 137.875 200.225 139.45 200.5 140 C 200.775 140.55 199.425 141.9 197.5 143 C 195.575 144.1 192.875 145.45 191.5 146 C 190.125 146.55 188.1 147.45 187 148 C 185.9 148.55 183.65 149.675 182 150.5 C 180.35 151.325 177.875 151.55 176.5 151 C 175.125 150.45 172.2 150.45 170 151 L 166 152 L 166.5 155.5 C 166.775 157.425 168.575 160.35 170.5 162 C 172.425 163.65 174.45 167.025 175 169.5 C 175.55 171.975 175.55 176.025 175 178.5 L 174 183 L 177.5 179.5 C 179.425 177.575 181.225 174.875 181.5 173.5 C 181.775 172.125 181.775 170.775 181.5 170.5 C 181.225 170.225 181.225 169.775 181.5 169.5 C 181.775 169.225 181.55 168.325 181 167.5 C 180.45 166.675 181.35 163.525 183 160.5 C 184.65 157.475 188.25 153.2 191 151 C 193.75 148.8 197.125 146.775 198.5 146.5 C 200.041 146.192 202.726 148.109 205.5 151.5 C 207.975 154.525 210.45 159.25 211 162 C 211.55 164.75 212.675 168.125 213.5 169.5 L 215 172 L 217 164.5 C 218.1 160.375 219.45 155.875 220 154.5 C 220.55 153.125 221.675 149.3 222.5 146 L 224 140 L 226 144 C 227.1 146.2 229.35 149.125 231 150.5 C 232.65 151.875 235.575 156.15 237.5 160 C 239.425 163.85 241.225 168.35 241.5 170 C 241.775 171.65 242.675 174.125 243.5 175.5 C 244.325 176.875 244.55 177.775 244 177.5 C 243.45 177.225 242.325 177.45 241.5 178 C 240.614 178.591 241.432 179.614 243.5 180.5 C 245.425 181.325 247.45 181.325 248 180.5 C 248.55 179.675 248.55 177.425 248 175.5 C 247.45 173.575 247.225 170.2 247.5 168 C 247.775 165.8 249.125 162.65 250.5 161 C 251.875 159.35 253.225 156.875 253.5 155.5 C 253.874 153.628 252.743 152.749 249 152 C 246.25 151.45 242.65 149.875 241 148.5 C 239.35 147.125 237.1 145.1 236 144 C 234.667 142.667 233.333 142.667 232 144 C 230.412 145.588 230 144.147 230 137 C 230 132.05 230.225 127.325 230.5 126.5 C 230.775 125.675 229.65 123.65 228 122 C 226.35 120.35 225.225 118.775 225.5 118.5 C 225.775 118.225 227.35 118.45 229 119 C 230.65 119.55 232.225 120.225 232.5 120.5 C 232.775 120.775 232.775 119.425 232.5 117.5 C 232.225 115.575 231.325 113.1 230.5 112 C 229.675 110.9 229.45 107.525 230 104.5 C 230.55 101.475 231.9 98.1 233 97 L 235 95 L 232.5 96.5 C 231.125 97.325 229.325 99.35 228.5 101 L 227 104 L 225 101.5 C 223.9 100.125 223.225 98.55 223.5 98 C 223.775 97.45 223.55 97.225 223 97.5 C 222.45 97.775 221.1 99.125 220 100.5 C 218.9 101.875 217.1 102.775 216 102.5 C 214.842 102.21 215.263 101.79 217 101.5 C 218.65 101.225 220.675 99.65 221.5 98 C 222.325 96.35 223.675 95.45 224.5 96 C 225.325 96.55 225.775 96.325 225.5 95.5 C 225.225 94.675 226.575 91.075 228.5 87.5 C 230.463 83.855 234.196 79.682 237 78 C 239.804 76.318 243.537 72.145 245.5 68.5 C 247.425 64.925 248.55 61.1 248 60 C 247.45 58.9 246.55 58.45 246 59 C 245.45 59.55 244.775 59.775 244.5 59.5 C 244.225 59.225 243.325 60.575 242.5 62.5 C 241.675 64.425 239.875 66.45 238.5 67 C 237.125 67.55 234.2 67.775 232 67.5 C 229.8 67.225 225.975 67.225 223.5 67.5 C 221.025 67.775 217.875 67.775 216.5 67.5 C 215.125 67.225 212.2 63.625 210 59.5 C 207.8 55.375 204.875 48.625 203.5 44.5 C 202.125 40.375 201.225 35.875 201.5 34.5 C 201.775 33.125 202.9 32.225 204 32.5 C 205.1 32.775 207.8 34.35 210 36 C 212.2 37.65 215.35 40.125 217 41.5 C 218.65 42.875 220.45 43.325 221 42.5 C 221.55 41.675 224.025 41.225 226.5 41.5 C 228.975 41.775 232.35 42.675 234 43.5 C 235.65 44.325 236.775 45.225 236.5 45.5 C 236.225 45.775 236.225 48.025 236.5 50.5 C 236.775 52.975 237.225 55.9 237.5 57 C 237.835 58.342 238.494 58.012 239.5 56 C 240.325 54.35 242.35 52.775 244 52.5 C 245.65 52.225 248.125 50.65 249.5 49 C 250.875 47.35 252.45 45.325 253 44.5 C 253.567 43.65 252.917 43.433 251.5 44 C 250.125 44.55 251.025 43.425 253.5 41.5 C 255.975 39.575 258.45 37.1 259 36 C 259.667 34.667 260.167 34.667 260.5 36 C 260.775 37.1 261.9 38.675 263 39.5 C 264.235 40.427 265.191 40.235 265.5 39 C 265.775 37.9 266.675 36.55 267.5 36 C 268.325 35.45 269.225 36.125 269.5 37.5 C 269.775 38.875 270.45 40.45 271 41 C 271.55 41.55 272.225 41.1 272.5 40 C 272.793 38.827 274.24 38.413 276 39 C 277.65 39.55 279.675 40.45 280.5 41 C 281.325 41.55 282.9 40.875 284 39.5 C 285.292 37.885 286.708 37.531 288 38.5 C 289.1 39.325 290.45 42.475 291 45.5 C 291.617 48.892 293.15 51.575 295 52.5 C 297.373 53.686 298.209 53.373 299 51 L 300 48 L 300.5 52.5 C 300.775 54.975 300.775 57.225 300.5 57.5 C 300.225 57.775 301.35 58.45 303 59 C 305.084 59.695 306.153 61.527 306.5 65 C 306.794 67.94 308.236 70.824 310 72 C 311.65 73.1 313.675 75.35 314.5 77 C 315.325 78.65 317.125 80.9 318.5 82 C 319.875 83.1 320.775 84.225 320.5 84.5 C 320.225 84.775 320.9 85.675 322 86.5 C 323.1 87.325 324.45 88.675 325 89.5 C 325.55 90.325 328.025 93.475 330.5 96.5 C 332.975 99.525 336.575 103.575 338.5 105.5 L 342 109 L 339 111 C 337.35 112.1 335.775 113.45 335.5 114 C 335.225 114.55 337.025 115.225 339.5 115.5 C 341.975 115.775 346.25 117.35 349 119 C 351.75 120.65 354.225 122.675 354.5 123.5 C 354.775 124.325 353.2 124.775 351 124.5 L 347 124 L 353 128.5 C 356.3 130.975 360.35 134.575 362 136.5 C 363.65 138.425 366.575 140.45 368.5 141 C 370.425 141.55 373.8 141.775 376 141.5 C 378.375 141.203 379.594 140.391 379 139.5 C 378.45 138.675 378.225 137.55 378.5 137 C 378.775 136.45 377.875 135.325 376.5 134.5 C 375.125 133.675 367.925 124.675 360.5 114.5 C 353.075 104.325 344.525 92.625 341.5 88.5 L 336 81 L 340 83 C 342.2 84.1 345.125 84.55 346.5 84 L 349 83 L 345 78.5 C 342.8 76.025 337.85 72.2 334 70 C 330.15 67.8 326.325 65.325 325.5 64.5 C 324.461 63.461 324.923 63.154 327 63.5 C 328.65 63.775 332.7 64.675 336 65.5 C 339.3 66.325 343.35 67.675 345 68.5 C 346.65 69.325 349.575 70.675 351.5 71.5 C 353.425 72.325 357.7 73.675 361 74.5 C 364.3 75.325 370.6 77.575 375 79.5 C 379.4 81.425 385.25 83.225 388 83.5 C 390.75 83.775 394.125 83.55 395.5 83 C 396.875 82.45 398.675 80.65 399.5 79 C 400.325 77.35 402.575 74.875 404.5 73.5 C 406.425 72.125 409.575 70.55 411.5 70 C 413.425 69.45 416.125 69.225 417.5 69.5 C 419.419 69.884 419.652 69.536 418.5 68 C 417.675 66.9 416.325 64.65 415.5 63 C 414.675 61.35 413.775 59.325 413.5 58.5 C 413.225 57.675 414.125 55.875 415.5 54.5 C 416.875 53.125 417.775 51.775 417.5 51.5 C 417.225 51.225 417.675 50.55 418.5 50 C 419.382 49.412 418.97 48.588 417.5 48 C 416.125 47.45 413.425 46.775 411.5 46.5 C 409.575 46.225 405.3 46.675 402 47.5 C 398.7 48.325 392.85 49.675 389 50.5 C 385.15 51.325 381.325 51.775 380.5 51.5 C 379.675 51.225 379.225 49.425 379.5 47.5 C 379.775 45.575 380.675 42.875 381.5 41.5 C 382.325 40.125 383.225 38.325 383.5 37.5 C 383.775 36.675 381.75 36.225 379 36.5 C 376.25 36.775 369.275 39.475 363.5 42.5 C 357.725 45.525 351.2 48.45 349 49 C 346.415 49.646 349.954 50.531 359 51.5 C 366.7 52.325 373.9 52.775 375 52.5 C 376.1 52.225 374.075 53.35 370.5 55 C 366.925 56.65 363.775 58.45 363.5 59 C 363.225 59.55 367.275 59.55 372.5 59 C 377.725 58.45 384.025 58.225 386.5 58.5 C 389.033 58.781 393.404 61.186 396.5 64 C 399.525 66.75 402.45 69.45 403 70 C 403.55 70.55 402.2 70.775 400 70.5 C 397.8 70.225 392.85 68.65 389 67 C 385.15 65.35 379.75 63.55 377 63 C 374.25 62.45 369.3 61.775 366 61.5 L 360 61 L 363.5 63.5 C 365.425 64.875 367.45 66.225 368 66.5 C 368.55 66.775 366.975 67.225 364.5 67.5 C 362.025 67.775 358.425 68.225 356.5 68.5 C 354.575 68.775 352.55 68.775 352 68.5 C 351.45 68.225 350.775 68.225 350.5 68.5 C 350.225 68.775 347.525 67.425 344.5 65.5 C 341.475 63.575 337.425 60.65 335.5 59 C 333.575 57.35 330.425 55.1 328.5 54 C 326.575 52.9 323.2 51.325 321 50.5 C 318.684 49.631 317.421 48.369 318 47.5 C 318.55 46.675 321.7 45.1 325 44 L 331 42 L 328 41 C 326.35 40.45 324.55 40.225 324 40.5 C 323.45 40.775 323.225 40.55 323.5 40 C 323.775 39.45 325.8 38.55 328 38 C 330.2 37.45 335.6 35.875 340 34.5 C 344.4 33.125 349.35 31.775 351 31.5 C 352.764 31.206 351.528 30.588 348 30 L 342 29 L 344.5 27 C 345.875 25.9 350.375 23.65 354.5 22 C 360.029 19.789 361.211 18.869 359 18.5 C 357.35 18.225 353.75 18.45 351 19 L 346 20 L 350.5 17 C 352.975 15.35 357.025 13.1 359.5 12 C 361.975 10.9 365.8 9.55 368 9 C 370.2 8.45 372.225 8.45 372.5 9 C 372.775 9.55 372.55 10.45 372 11 C 371.45 11.55 374.15 12.9 378 14 C 382.699 15.343 384.014 16.164 382 16.5 C 380.35 16.775 377.425 18.8 375.5 21 C 373.575 23.2 371.775 25.45 371.5 26 C 371.225 26.55 371.225 27.225 371.5 27.5 C 371.775 27.775 370.875 29.575 369.5 31.5 L 367 35 L 374.5 33 C 378.625 31.9 383.8 30.1 386 29 C 388.2 27.9 389.775 26.325 389.5 25.5 C 389.225 24.675 389.45 23.775 390 23.5 C 390.55 23.225 391.225 23.225 391.5 23.5 C 391.775 23.775 392.225 23.55 392.5 23 C 392.775 22.45 394.575 21.325 396.5 20.5 C 398.425 19.675 400.225 18.55 400.5 18 C 400.775 17.45 400.1 17.225 399 17.5 C 397.667 17.833 397.667 17.167 399 15.5 C 400.1 14.125 402.125 12.55 403.5 12 C 404.875 11.45 408.025 11.225 410.5 11.5 C 412.975 11.775 416.125 12.225 417.5 12.5 C 419.5 12.9 420 11.7 420 6.5 L 420 0 L 398.5 0 C 386.675 0 377.225 0.45 377.5 1 C 377.775 1.55 374.4 2.9 370 4 C 365.6 5.1 359.975 6.9 357.5 8 C 355.025 9.1 349.175 12.475 344.5 15.5 C 339.825 18.525 332.4 21.9 328 23 C 323.6 24.1 318.425 26.125 316.5 27.5 C 314.575 28.875 312.775 29.775 312.5 29.5 C 312.225 29.225 313.125 26.975 314.5 24.5 C 315.875 22.025 318.35 19.1 320 18 C 321.65 16.9 323.225 15.55 323.5 15 C 323.775 14.45 321.525 14.225 318.5 14.5 L 313 15 L 315.5 12.5 L 318 10 L 313.5 9 L 309 8 L 313 6 C 315.2 4.9 317.45 3.1 318 2 C 318.681 0.638 304.803 0 274.5 0 L 230 0 L 232.5 2.5 C 233.875 3.875 235.45 5.225 236 5.5 C 236.55 5.775 237.45 5.1 238 4 C 238.55 2.9 239.225 2.675 239.5 3.5 C 239.775 4.325 239.325 6.125 238.5 7.5 C 237.675 8.875 234.525 11.125 231.5 12.5 L 226 15 L 228 9.5 C 229.1 6.475 229.55 3.1 229 2 C 228.45 0.9 225.975 0.225 223.5 0.5 L 219 1 L 220 4.5 L 221 8 L 219 5.5 C 217.9 4.125 216.55 2.325 216 1.5 C 215.45 0.675 213.425 0.225 211.5 0.5 C 209.575 0.775 205.975 0.775 203.5 0.5 C 201.025 0.225 172.9 0 141 0 Z  M 250 3 C 251.1 3 252.225 3.675 252.5 4.5 C 252.775 5.325 252.55 7.575 252 9.5 C 251.299 11.953 249.804 13.15 247 13.5 C 244.8 13.775 243.225 13.55 243.5 13 C 243.775 12.45 244.9 9.975 246 7.5 C 247.1 5.025 248.9 3 250 3 Z  M 265.5 6 C 265.775 6 265.775 6.9 265.5 8 C 265.225 9.1 263.875 10.9 262.5 12 C 260.5 13.6 260.5 13.2 262.5 10 C 263.875 7.8 265.225 6 265.5 6 Z  M 121.5 10.5 C 122.325 10.775 124.35 12.35 126 14 C 127.65 15.65 129.225 19.025 129.5 21.5 L 130 26 L 127.5 21.5 C 126.125 19.025 123.875 15.425 122.5 13.5 C 121.125 11.575 120.675 10.225 121.5 10.5 Z  M 89.5 21 C 88.675 21 88.225 21.45 88.5 22 C 88.775 22.55 91.025 23.45 93.5 24 C 95.975 24.55 98.225 24.55 98.5 24 C 98.775 23.45 97.2 22.55 95 22 C 92.8 21.45 90.325 21 89.5 21 Z  M 352 38 C 349.25 38 344.75 38.45 342 39 C 339.25 39.55 336.775 40.45 336.5 41 C 336.225 41.55 339.825 41.55 344.5 41 C 349.175 40.45 353.9 39.55 355 39 C 356.1 38.45 354.75 38 352 38 Z  M 83 56 C 84.1 56 86.125 56.45 87.5 57 C 88.875 57.55 90.45 58.225 91 58.5 C 91.55 58.775 91.325 59.9 90.5 61 C 89.329 62.561 90.097 63.549 94 65.5 L 99 68 L 96.5 70 C 95.125 71.1 92.2 72.45 90 73 C 87.8 73.55 81.725 73.775 76.5 73.5 C 71.275 73.225 64.525 72.1 61.5 71 C 58.475 69.9 54.65 68.1 53 67 C 51.35 65.9 50.225 65.225 50.5 65.5 C 50.775 65.775 51.225 65.775 51.5 65.5 C 51.775 65.225 52.225 65.225 52.5 65.5 C 52.775 65.775 54.8 65.55 57 65 C 59.2 64.45 62.575 63.1 64.5 62 C 66.425 60.9 70.925 59.1 74.5 58 C 78.075 56.9 81.9 56 83 56 Z  M 2 60.5 C 0.4 59.3 0.1 59.7 0.5 62.5 C 0.775 64.425 1.45 65.775 2 65.5 C 2.55 65.225 3.225 64.325 3.5 63.5 C 3.775 62.675 3.1 61.325 2 60.5 Z  M 253.5 77.5 C 252.02 76.612 250.388 76.816 249.5 78 C 248.573 79.235 248.765 80.191 250 80.5 C 251.1 80.775 252.9 80.55 254 80 C 255.431 79.285 255.288 78.573 253.5 77.5 Z  M 45.5 77.5 C 47.425 77.775 49.9 78.675 51 79.5 C 52.315 80.487 50.433 81 45.5 81 C 41.375 81 36.425 81.45 34.5 82 C 31.928 82.735 31.265 82.47 32 81 C 32.55 79.9 35.025 78.55 37.5 78 C 39.975 77.45 43.575 77.225 45.5 77.5 Z  M 23.5 82.5 C 24.325 82.775 25.45 82.775 26 82.5 C 26.55 82.225 27.675 82.45 28.5 83 C 29.325 83.55 30.45 84.9 31 86 C 31.55 87.1 32.225 89.8 32.5 92 C 32.775 94.2 32.325 97.125 31.5 98.5 C 30.35 100.417 29.068 100.534 26 99 C 23.216 97.608 22.456 96.544 23.5 95.5 C 24.325 94.675 25.225 92.875 25.5 91.5 C 25.837 89.815 24.696 88.511 22 87.5 C 19.8 86.675 17.325 85.55 16.5 85 C 15.631 84.421 16.473 83.579 18.5 83 C 20.425 82.45 22.675 82.225 23.5 82.5 Z  M 235.5 84 C 235.225 82.9 235.225 84.475 235.5 87.5 C 235.775 90.525 235.775 93.225 235.5 93.5 C 235.225 93.775 236.35 93.55 238 93 L 241 92 L 238.5 89 C 237.125 87.35 235.775 85.1 235.5 84 Z  M 163.5 116 C 162.675 116 162.225 116.45 162.5 117 C 162.775 117.55 163.9 119.125 165 120.5 C 166.333 122.167 166.333 124.333 165 127 C 163.9 129.2 161.875 131.675 160.5 132.5 C 159.125 133.325 157.1 135.35 156 137 C 154.9 138.65 153.775 141.35 153.5 143 C 153.225 144.65 154.125 147.8 155.5 150 C 157.5 153.2 157.5 153.7 155.5 152.5 C 154.125 151.675 150.525 150.325 147.5 149.5 C 144.475 148.675 138.4 148 134 148 C 129.6 148 123.75 148.45 121 149 C 118.25 149.55 114.875 150.225 113.5 150.5 C 111.673 150.865 111.404 151.673 112.5 153.5 C 113.325 154.875 113.775 158.025 113.5 160.5 C 113.225 162.975 112.775 166.8 112.5 169 C 112.225 171.2 113.125 174.125 114.5 175.5 C 115.875 176.875 117.45 178.225 118 178.5 C 118.55 178.775 118.55 179.225 118 179.5 C 117.45 179.775 116.775 180.675 116.5 181.5 C 116.225 182.325 116.675 183.45 117.5 184 C 118.325 184.55 119.9 185.225 121 185.5 C 122.1 185.775 124.35 185.775 126 185.5 C 127.65 185.225 129.45 185.675 130 186.5 C 130.55 187.325 131.225 188.45 131.5 189 C 131.775 189.55 132.225 188.65 132.5 187 C 132.84 184.958 131.403 182.723 128 180 C 125.25 177.8 121.65 173.3 120 170 C 118.35 166.7 117.225 162.875 117.5 161.5 C 117.775 160.125 119.35 158.775 121 158.5 C 123.14 158.143 125.147 159.577 128 163.5 C 130.2 166.525 134.7 170.35 138 172 C 141.3 173.65 145.575 175.675 147.5 176.5 C 149.425 177.325 151.9 180.025 153 182.5 C 154.1 184.975 156.125 189.25 157.5 192 C 158.875 194.75 160.45 199.25 161 202 C 161.55 204.75 162.45 207.225 163 207.5 C 163.55 207.775 164.675 209.125 165.5 210.5 C 166.53 212.216 165.903 214.724 163.5 218.5 C 161.575 221.525 158.2 227.6 156 232 C 153.8 236.4 151.55 240.9 151 242 C 150.45 243.1 150.225 244.9 150.5 246 C 150.775 247.1 150.325 249.575 149.5 251.5 C 148.675 253.425 146.425 256.575 144.5 258.5 C 142.575 260.425 140.775 261.775 140.5 261.5 C 140.225 261.225 138.65 261.45 137 262 C 135.35 262.55 133.325 262.1 132.5 261 C 131.675 259.9 131.45 258.775 132 258.5 C 132.55 258.225 133.225 257.775 133.5 257.5 C 133.775 257.225 134.225 257.225 134.5 257.5 C 134.775 257.775 134.775 257.325 134.5 256.5 C 134.225 255.675 134.45 254.775 135 254.5 C 135.55 254.225 136.225 253.55 136.5 253 C 136.775 252.45 137.45 251.55 138 251 C 138.55 250.45 137.425 250.9 135.5 252 C 133.575 253.1 131.55 255.575 131 257.5 C 130.45 259.425 130.9 262.575 132 264.5 C 133.1 266.425 135.575 268.675 137.5 269.5 C 140.141 270.632 142.104 270.141 145.5 267.5 C 147.975 265.575 151.125 264.225 152.5 264.5 C 153.875 264.775 155.225 265.225 155.5 265.5 C 155.775 265.775 156.675 265.55 157.5 265 C 158.325 264.45 158.325 263.775 157.5 263.5 C 156.675 263.225 155.775 262.775 155.5 262.5 C 155.225 262.225 154.775 262.225 154.5 262.5 C 154.225 262.775 153.775 262.55 153.5 262 C 153.225 261.45 152.325 260.775 151.5 260.5 C 150.675 260.225 149.775 260.225 149.5 260.5 C 149.225 260.775 148.775 260.55 148.5 260 C 148.225 259.45 148.675 258.55 149.5 258 C 150.325 257.45 152.8 257.225 155 257.5 C 158.189 257.899 158.696 257.594 157.5 256 C 156.675 254.9 156 251.3 156 248 C 156 244.7 157.125 239.75 158.5 237 C 159.875 234.25 161.675 230.425 162.5 228.5 C 163.325 226.575 164.9 224.325 166 223.5 C 167.1 222.675 168.45 220.65 169 219 C 169.55 217.35 171.125 215.325 172.5 214.5 C 173.875 213.675 175.45 213.225 176 213.5 C 176.55 213.775 177.225 213.55 177.5 213 C 177.775 212.45 178.225 212.225 178.5 212.5 C 178.775 212.775 178.775 212.325 178.5 211.5 C 178.225 210.675 178.45 208.2 179 206 C 179.55 203.8 179.55 202.225 179 202.5 C 178.45 202.775 177.325 203.225 176.5 203.5 C 175.675 203.775 173.2 203.325 171 202.5 C 168.031 201.387 166.742 199.711 166 196 C 165.45 193.25 164.775 188.525 164.5 185.5 C 164.225 182.475 163.55 178.425 163 176.5 C 162.45 174.575 161.55 168.95 161 164 C 160.45 159.05 159.55 153.2 159 151 C 158.45 148.8 158.675 144.525 159.5 141.5 C 160.325 138.475 162.575 133.975 164.5 131.5 C 166.425 129.025 168.45 125.65 169 124 C 169.573 122.28 168.933 119.933 167.5 118.5 C 166.125 117.125 164.325 116 163.5 116 Z  M 11 125 C 10.45 125 8.875 125.9 7.5 127 C 6.125 128.1 3.875 129.675 2.5 130.5 C 1.056 131.366 0.211 133.479 0.5 135.5 L 1 139 L 4.5 135 C 6.425 132.8 8.9 129.65 10 128 C 11.1 126.35 11.55 125 11 125 Z  M 267.5 135 C 266.387 133.516 265.742 133.645 265 135.5 C 264.45 136.875 264.225 140.475 264.5 143.5 C 264.775 146.525 263.875 151.475 262.5 154.5 C 261.125 157.525 259.775 160.675 259.5 161.5 C 259.225 162.325 259.225 165.025 259.5 167.5 C 259.775 169.975 259.775 174.025 259.5 176.5 C 259.225 178.975 258.775 183.025 258.5 185.5 C 258.225 187.975 257.55 191.575 257 193.5 C 256.45 195.425 254.425 197.675 252.5 198.5 C 250.575 199.325 247.65 200.225 246 200.5 C 244.35 200.775 242.775 201.675 242.5 202.5 C 242.225 203.325 242.225 204.45 242.5 205 C 242.775 205.55 241.875 206.675 240.5 207.5 C 239.125 208.325 236.65 210.125 235 211.5 L 232 214 L 240 213 C 244.4 212.45 249.8 212.9 252 214 C 254.93 215.465 256.268 217.472 257 221.5 C 257.55 224.525 258.45 227.675 259 228.5 C 259.55 229.325 259.775 230.225 259.5 230.5 C 259.225 230.775 260.125 232.125 261.5 233.5 C 262.875 234.875 264.45 237.8 265 240 C 265.55 242.2 266.675 248.275 267.5 253.5 C 268.339 258.813 269.881 263.22 271 263.5 C 272.369 263.842 272.842 262.423 272.5 259 C 272.225 256.25 272.45 253.325 273 252.5 C 273.55 251.675 273.325 249.425 272.5 247.5 C 271.675 245.575 270.55 242.2 270 240 C 269.45 237.8 268.1 234.65 267 233 C 265.9 231.35 264.1 227.975 263 225.5 C 261.9 223.025 260.325 219.875 259.5 218.5 C 258.675 217.125 257.55 214.425 257 212.5 C 256.45 210.575 255.775 208.325 255.5 207.5 C 255.225 206.675 256.125 205.1 257.5 204 C 258.875 202.9 260.45 201.1 261 200 C 261.55 198.9 262.225 197.775 262.5 197.5 C 262.775 197.225 262.775 195.65 262.5 194 C 262.225 192.35 262.45 191.225 263 191.5 C 263.55 191.775 265.35 188.625 267 184.5 C 268.65 180.375 271.125 176.325 272.5 175.5 C 273.875 174.675 277.925 172.65 281.5 171 C 285.075 169.35 289.575 166.425 291.5 164.5 C 293.425 162.575 295.9 159.65 297 158 C 298.1 156.35 301.025 154.775 303.5 154.5 C 306.824 154.131 308.261 153.086 309 150.5 L 310 147 L 304 147 C 300.7 147 295.75 146.55 293 146 C 290.25 145.45 285.75 145.225 283 145.5 C 280.25 145.775 276.2 146.675 274 147.5 C 271.8 148.325 268.65 149.9 267 151 L 264 153 L 267 148 C 268.65 145.25 269.775 141.65 269.5 140 C 269.225 138.35 268.325 136.1 267.5 135 Z  M 90 138 C 88.35 137.45 85.425 137.675 83.5 138.5 C 81.575 139.325 77.75 140 75 140 C 72.25 140 68.425 141.125 66.5 142.5 C 64.575 143.875 62.1 146.575 61 148.5 C 59.9 150.425 57.65 153.575 56 155.5 C 54.35 157.425 49.4 161.25 45 164 C 40.6 166.75 35.875 169.45 34.5 170 C 33.125 170.55 29.75 171.45 27 172 C 24.25 172.55 20.65 174.125 19 175.5 L 16 178 L 20.5 178.5 C 22.975 178.775 27.25 178.55 30 178 C 32.75 177.45 37.25 176.55 40 176 C 42.75 175.45 47.025 173.65 49.5 172 C 51.975 170.35 54.45 168.55 55 168 C 55.55 167.45 55.1 168.575 54 170.5 C 52.9 172.425 50.65 174.9 49 176 C 47.35 177.1 44.2 178.9 42 180 L 38 182 L 41 183.5 L 44 185 L 36.5 186.5 C 32.375 187.325 26.525 188.45 23.5 189 C 20.475 189.55 17.775 190.45 17.5 191 C 17.225 191.55 19.025 192.225 21.5 192.5 C 23.975 192.775 27.35 194.125 29 195.5 C 30.65 196.875 32.225 198.225 32.5 198.5 C 32.775 198.775 30.3 199.675 27 200.5 C 23.7 201.325 19.65 203.125 18 204.5 C 16.35 205.875 14.775 207.45 14.5 208 C 14.225 208.55 17.6 208.1 22 207 C 26.4 205.9 31.8 204.55 34 204 C 36.2 203.45 38.675 202.775 39.5 202.5 C 40.325 202.225 39.65 203.35 38 205 C 36.35 206.65 31.175 210.7 26.5 214 C 21.825 217.3 16.65 221.35 15 223 L 12 226 L 14.5 226.5 C 15.875 226.775 19.7 225.875 23 224.5 C 26.3 223.125 32.375 219.525 36.5 216.5 C 40.625 213.475 44.675 211.45 45.5 212 C 46.325 212.55 47.225 215.475 47.5 218.5 C 47.775 221.525 46.875 226.025 45.5 228.5 C 44.125 230.975 41.875 234.125 40.5 235.5 C 39.125 236.875 36.65 239.575 35 241.5 C 33.35 243.425 32.45 245.225 33 245.5 C 33.55 245.775 35.8 245.325 38 244.5 C 40.2 243.675 43.575 241.65 45.5 240 C 47.425 238.35 50.35 234.525 52 231.5 C 53.65 228.475 55.45 225.775 56 225.5 C 56.55 225.225 57.225 224.55 57.5 224 C 57.775 223.45 57.775 220.975 57.5 218.5 C 57.225 216.025 57.225 212.2 57.5 210 C 57.775 207.8 58.45 206.675 59 207.5 C 59.55 208.325 60.45 210.35 61 212 C 61.55 213.65 63.35 217.7 65 221 C 66.65 224.3 68.675 228.125 69.5 229.5 C 70.687 231.478 70.896 231.061 70.5 227.5 C 70.225 225.025 69.1 221.875 68 220.5 C 66.9 219.125 65.775 216.425 65.5 214.5 C 65.225 212.575 65.9 210.1 67 209 L 69 207 L 68.5 210.5 C 68.225 212.425 68.9 216.025 70 218.5 C 71.1 220.975 72.675 223.225 73.5 223.5 C 74.325 223.775 75.45 223.55 76 223 C 76.55 222.45 76.775 223.575 76.5 225.5 C 76.225 227.425 76.675 230.125 77.5 231.5 C 78.325 232.875 80.125 236.475 81.5 239.5 C 82.875 242.525 85.125 246.35 86.5 248 C 87.875 249.65 89.9 251.225 91 251.5 C 92.1 251.775 93.9 254.025 95 256.5 C 96.1 258.975 97.45 263.25 98 266 C 98.55 268.75 98.55 271.675 98 272.5 C 97.45 273.325 96.55 273.325 96 272.5 C 95.45 271.675 93.65 268.525 92 265.5 L 89 260 L 89 267 C 89 270.85 89.225 274.225 89.5 274.5 C 89.775 274.775 88.875 274.325 87.5 273.5 C 85.886 272.532 85 269.697 85 265.5 C 85 261.925 84.55 258.775 84 258.5 C 83.45 258.225 82.775 260.7 82.5 264 C 82.225 267.3 81.775 270.45 81.5 271 C 81.225 271.55 85.05 273.575 90 275.5 C 94.95 277.425 103.275 279.9 108.5 281 C 113.725 282.1 118.675 282.55 119.5 282 C 120.325 281.45 121.225 279.425 121.5 277.5 C 121.775 275.575 120.875 271.975 119.5 269.5 C 118.125 267.025 114.975 262.075 112.5 258.5 C 110.025 254.925 106.2 248.85 104 245 C 101.8 241.15 99.55 236.65 99 235 C 98.45 233.35 95.525 230.2 92.5 228 L 87 224 L 90.5 223 C 92.527 222.421 93.369 221.579 92.5 221 C 91.675 220.45 88.975 219.325 86.5 218.5 L 82 217 L 87.5 214.5 C 90.525 213.125 95.25 211.775 98 211.5 C 100.75 211.225 105.025 211.675 107.5 212.5 C 110.147 213.382 111.588 214.618 111 215.5 C 110.45 216.325 109.775 217.45 109.5 218 C 109.225 218.55 111.25 219.9 114 221 C 117.333 222.333 120.333 222.333 123 221 C 125.2 219.9 127.9 218.325 129 217.5 C 130.1 216.675 131.45 214.875 132 213.5 C 132.55 212.125 132.775 210.775 132.5 210.5 C 132.225 210.225 132.225 209.775 132.5 209.5 C 132.775 209.225 132.325 209.225 131.5 209.5 C 130.675 209.775 129.55 210.675 129 211.5 C 128.45 212.325 127.55 212.775 127 212.5 C 126.45 212.225 126.225 211.55 126.5 211 C 126.775 210.45 126.775 209.775 126.5 209.5 C 126.225 209.225 126.9 207.875 128 206.5 C 129.1 205.125 129.55 202.425 129 200.5 C 128.203 197.71 127.189 197.101 124 197.5 C 121.8 197.775 120.225 197.325 120.5 196.5 C 120.775 195.675 121.225 195.225 121.5 195.5 C 121.775 195.775 121.325 195.1 120.5 194 C 119.675 192.9 115.4 191.325 111 190.5 C 106.6 189.675 102.1 188.1 101 187 C 99.9 185.9 99.45 185.225 100 185.5 C 100.55 185.775 100.55 184.875 100 183.5 C 99.45 182.125 98.325 177.4 97.5 173 C 96.675 168.6 95.775 165.225 95.5 165.5 C 95.225 165.775 94.325 165.55 93.5 165 C 92.675 164.45 91.55 163.775 91 163.5 C 90.45 163.225 90.225 162.325 90.5 161.5 C 90.775 160.675 91.675 159.775 92.5 159.5 C 93.325 159.225 91.75 157.425 89 155.5 C 86.25 153.575 82.875 151.55 81.5 151 C 80.125 150.45 77.65 149.775 76 149.5 C 74.263 149.21 73.631 148.579 74.5 148 C 75.325 147.45 79.15 146.55 83 146 C 86.85 145.45 90.9 144.325 92 143.5 C 93.1 142.675 93.775 141.325 93.5 140.5 C 93.225 139.675 91.65 138.55 90 138 Z  M 136 139 C 134.35 139 132.1 139.9 131 141 C 129.9 142.1 129.45 143.225 130 143.5 C 130.55 143.775 133.025 143.775 135.5 143.5 C 137.975 143.225 140.9 142.55 142 142 C 143.445 141.277 143.306 140.723 141.5 140 C 140.125 139.45 137.65 139 136 139 Z  M 346 142 C 343.8 142 341.1 142.45 340 143 C 338.771 143.614 343.205 146.121 351.5 149.5 C 358.925 152.525 365.225 154.775 365.5 154.5 C 365.775 154.225 365.325 153.55 364.5 153 C 363.675 152.45 361.65 150.425 360 148.5 C 358.35 146.575 355.425 144.325 353.5 143.5 C 351.575 142.675 348.2 142 346 142 Z  M 374 146 C 372.35 146 370.55 146.675 370 147.5 C 369.438 148.342 372.288 149.219 376.5 149.5 C 380.625 149.775 384.225 149.55 384.5 149 C 384.775 148.45 383.2 147.55 381 147 C 378.8 146.45 375.65 146 374 146 Z  M 285 153 C 285.55 153 286.225 153.9 286.5 155 C 286.775 156.1 286.55 158.125 286 159.5 C 285.45 160.875 283.65 162.675 282 163.5 C 280.35 164.325 277.425 164.55 275.5 164 C 273.473 163.421 271.79 161.737 271.5 160 L 271 157 L 276 157.5 C 278.75 157.775 280.775 157.55 280.5 157 C 280.225 156.45 280.45 156.225 281 156.5 C 281.55 156.775 282.45 156.55 283 156 C 283.55 155.45 283.55 155.225 283 155.5 C 282.45 155.775 282.45 155.325 283 154.5 C 283.55 153.675 284.45 153 285 153 Z  M 139 154 C 139.55 154 139.775 154.225 139.5 154.5 C 139.225 154.775 139.675 155.9 140.5 157 C 141.325 158.1 143.8 158.775 146 158.5 C 148.2 158.225 150.225 158.675 150.5 159.5 C 150.775 160.325 150.1 162.125 149 163.5 C 147.9 164.875 145.425 165.775 143.5 165.5 C 141.575 165.225 138.875 163.65 137.5 162 C 135.9 160.08 135.54 158.1 136.5 156.5 C 137.325 155.125 138.45 154 139 154 Z  M 308.5 155 C 308.225 155 307.55 156.125 307 157.5 C 306.45 158.875 303.975 163.15 301.5 167 C 299.025 170.85 295.2 176.25 293 179 L 289 184 L 291.5 186 C 292.875 187.1 295.8 188.45 298 189 C 300.229 189.557 302.443 191.328 303 193 C 303.55 194.65 303.55 196.225 303 196.5 C 302.45 196.775 300.875 197.225 299.5 197.5 C 298.125 197.775 296.325 196.875 295.5 195.5 C 294.675 194.125 293.775 192.55 293.5 192 C 293.225 191.45 292.775 191.9 292.5 193 C 292.225 194.1 292.9 195.675 294 196.5 C 295.1 197.325 296.675 198.45 297.5 199 C 298.325 199.55 298.775 200.225 298.5 200.5 C 298.225 200.775 298.9 201.9 300 203 L 302 205 L 298.5 204 C 296.399 203.4 294.8 203.799 294.5 205 C 294.225 206.1 294.45 207.225 295 207.5 C 295.55 207.775 295.325 208.225 294.5 208.5 C 293.675 208.775 293.9 209.45 295 210 C 296.1 210.55 297.225 210.1 297.5 209 C 297.775 207.9 299.35 207.225 301 207.5 C 302.65 207.775 304.225 207.775 304.5 207.5 C 304.775 207.225 304.775 207.675 304.5 208.5 C 304.225 209.325 304.45 210.675 305 211.5 C 305.55 212.325 306.45 212.775 307 212.5 C 307.55 212.225 307.325 211.325 306.5 210.5 C 305.443 209.443 306.328 208.557 309.5 207.5 C 312.147 206.618 313.588 205.382 313 204.5 C 312.45 203.675 312.225 202.775 312.5 202.5 C 312.775 202.225 312.55 201.775 312 201.5 C 311.45 201.225 313.025 200.1 315.5 199 C 317.975 197.9 321.125 196.325 322.5 195.5 C 323.875 194.675 324.325 193.775 323.5 193.5 C 322.675 193.225 321.55 193.45 321 194 C 320.45 194.55 319.775 194.55 319.5 194 C 319.225 193.45 319.225 192.775 319.5 192.5 C 319.775 192.225 319.55 191.1 319 190 C 318.45 188.9 316.875 187.775 315.5 187.5 C 314.125 187.225 312.1 187.225 311 187.5 C 309.9 187.775 307.65 187.1 306 186 C 304.35 184.9 302.325 183.1 301.5 182 C 300.668 180.891 300.891 178.886 302 177.5 C 303.1 176.125 304.9 173.875 306 172.5 C 307.1 171.125 308.45 169.325 309 168.5 C 309.55 167.675 310.45 166.775 311 166.5 C 311.55 166.225 311.775 165.55 311.5 165 C 311.225 164.45 310.55 163.775 310 163.5 C 309.45 163.225 308.775 163.225 308.5 163.5 C 308.225 163.775 308.225 161.975 308.5 159.5 C 308.775 157.025 308.775 155 308.5 155 Z  M 337 157 C 335.35 157 333.55 157.45 333 158 C 332.45 158.55 335.15 160.35 339 162 C 342.85 163.65 345.775 165.225 345.5 165.5 C 345.225 165.775 343.875 165.55 342.5 165 C 341.125 164.45 339.325 164.675 338.5 165.5 C 337.675 166.325 337.45 167.45 338 168 C 338.55 168.55 337.425 170.125 335.5 171.5 C 333.575 172.875 331.775 174.675 331.5 175.5 C 331.225 176.325 332.575 177.225 334.5 177.5 C 336.425 177.775 337.325 178.45 336.5 179 C 335.675 179.55 334.1 180.675 333 181.5 C 331.9 182.325 331.675 183.45 332.5 184 C 333.325 184.55 334.675 185.45 335.5 186 C 336.366 186.578 335.944 187.634 334.5 188.5 L 332 190 L 335.5 191 C 337.425 191.55 339.9 193.125 341 194.5 C 342.1 195.875 342.775 197.45 342.5 198 C 342.225 198.55 342.225 199.45 342.5 200 C 342.775 200.55 342.1 201.675 341 202.5 C 339.667 203.5 339.667 204.833 341 206.5 C 342.1 207.875 342.325 209.45 341.5 210 C 340.675 210.55 339.775 211.45 339.5 212 C 339.225 212.55 338.55 213.675 338 214.5 C 337.45 215.325 337.45 216.675 338 217.5 C 338.55 218.325 338.775 219.225 338.5 219.5 C 338.225 219.775 338.45 219.775 339 219.5 C 339.55 219.225 340.225 219.675 340.5 220.5 C 340.775 221.325 338.75 222.675 336 223.5 L 331 225 L 330 230.5 C 329.45 233.525 326.75 240.5 324 246 C 321.25 251.5 317.2 259.825 315 264.5 C 312.8 269.175 309.875 276.6 308.5 281 C 307.125 285.4 306.225 290.575 306.5 292.5 C 306.775 294.425 308.125 296.225 309.5 296.5 C 310.875 296.775 314.7 296.1 318 295 C 321.3 293.9 325.125 292.775 326.5 292.5 C 328.294 292.141 328.718 291.011 328 288.5 C 327.45 286.575 327.45 280.725 328 275.5 C 328.55 270.275 330.125 263.975 331.5 261.5 C 332.875 259.025 335.125 255.875 336.5 254.5 C 337.875 253.125 339.9 249.975 341 247.5 C 342.1 245.025 343.45 242.325 344 241.5 C 344.55 240.675 344.55 242.025 344 244.5 C 343.45 246.975 342.325 250.575 341.5 252.5 C 340.675 254.425 339.325 260.05 338.5 265 C 337.675 269.95 336.55 277.375 336 281.5 C 335.267 286.994 335.669 289.401 337.5 290.5 C 338.875 291.325 339.775 291.55 339.5 291 C 339.225 290.45 340.8 290.225 343 290.5 C 345.2 290.775 346.775 290.55 346.5 290 C 346.225 289.45 345.325 288.325 344.5 287.5 C 343.675 286.675 343.225 285.775 343.5 285.5 C 343.775 285.225 343.55 283.875 343 282.5 C 342.45 281.125 342 275.05 342 269 C 342 261.881 343.235 255.001 345.5 249.5 C 347.425 244.825 350.35 239.2 352 237 L 355 233 L 356 237 C 356.55 239.2 356.1 244.825 355 249.5 C 353.9 254.175 352.55 260.7 352 264 C 351.45 267.3 350.775 271.125 350.5 272.5 C 350.1 274.5 350.5 274.5 352.5 272.5 C 353.875 271.125 355.9 269.55 357 269 C 358.1 268.45 360.125 266.425 361.5 264.5 C 363.15 262.19 363.83 257.429 363.5 250.5 C 363.225 244.725 363.225 237.975 363.5 235.5 C 363.775 233.025 363.775 228.3 363.5 225 C 363.146 220.757 363.439 219.732 364.5 221.5 C 365.325 222.875 366.675 227.15 367.5 231 C 368.325 234.85 369 241.6 369 246 C 369 250.4 368.775 254.225 368.5 254.5 C 368.225 254.775 368.225 255.225 368.5 255.5 C 368.775 255.775 368.775 256.45 368.5 257 C 368.225 257.55 369.125 256.65 370.5 255 C 371.875 253.35 373.675 249.525 374.5 246.5 C 375.669 242.212 375.008 238.355 371.5 229 C 369.025 222.4 366.325 215.425 365.5 213.5 C 364.675 211.575 363.775 208.65 363.5 207 L 363 204 L 366.5 206 L 370 208 L 368.5 204.5 C 367.675 202.575 366.1 199.2 365 197 C 363.9 194.8 362.55 191.425 362 189.5 C 361.45 187.575 361.45 186.225 362 186.5 C 362.55 186.775 364.125 188.575 365.5 190.5 C 366.875 192.425 368.9 197.15 370 201 C 371.1 204.85 371.775 208.225 371.5 208.5 C 371.225 208.775 373.7 211.025 377 213.5 C 380.3 215.975 385.7 218.9 389 220 C 392.3 221.1 397.025 221.55 399.5 221 C 401.975 220.45 407.6 220.9 412 222 L 420 224 L 419.5 220 L 419 216 L 411.5 214 C 407.375 212.9 400.85 211.775 397 211.5 C 393.15 211.225 387.975 210.1 385.5 209 C 383.025 207.9 380.325 206.1 379.5 205 C 378.675 203.9 377.775 202.1 377.5 201 C 377.225 199.9 377.9 198.775 379 198.5 C 380.1 198.225 383.25 197.325 386 196.5 C 388.75 195.675 394.375 194.775 398.5 194.5 C 402.625 194.225 409.15 195.125 413 196.5 L 420 199 L 419.5 195 C 419.167 192.333 417.667 190.333 415 189 C 412.8 187.9 408.075 187.225 404.5 187.5 C 400.925 187.775 395.3 188.45 392 189 C 388.351 189.608 384.236 189.02 381.5 187.5 C 379.025 186.125 376.775 184.325 376.5 183.5 C 376.225 182.675 376.225 181.775 376.5 181.5 C 376.775 181.225 376.775 180.775 376.5 180.5 C 376.225 180.225 379.825 180.225 384.5 180.5 C 389.175 180.775 395.475 180.325 398.5 179.5 C 401.525 178.675 405.8 177.775 408 177.5 C 410.2 177.225 413.8 177.225 416 177.5 C 419.128 177.891 419.891 177.455 419.5 175.5 C 419.196 173.978 417.045 172.609 414 172 C 411.25 171.45 405.4 171.9 401 173 C 396.6 174.1 390.975 175.45 388.5 176 C 386.025 176.55 383.1 176.325 382 175.5 C 380.9 174.675 377.525 173.55 374.5 173 C 371.475 172.45 367.65 170.875 366 169.5 C 364.35 168.125 362.775 166.775 362.5 166.5 C 362.225 166.225 362.675 168.25 363.5 171 C 364.684 174.947 364.579 175.474 363 173.5 C 361.9 172.125 358.975 168.3 356.5 165 C 352.904 160.205 350.795 158.799 346 158 C 342.7 157.45 338.65 157 337 157 Z  M 404 162 C 400.7 162 396.65 162.9 395 164 L 392 166 L 400 165 C 404.4 164.45 408.45 163.55 409 163 C 409.55 162.45 407.3 162 404 162 Z  M 349.5 167 C 350.325 167.55 352.125 169.35 353.5 171 C 354.875 172.65 355.1 173.55 354 173 C 352.9 172.45 351.1 170.65 350 169 C 348.9 167.35 348.675 166.45 349.5 167 Z  M 93 173 C 93.55 173 94.225 173.9 94.5 175 C 94.775 176.1 93.875 177.225 92.5 177.5 C 91.125 177.775 89.325 177.55 88.5 177 C 87.634 176.422 88.056 175.366 89.5 174.5 C 90.875 173.675 92.45 173 93 173 Z  M 211 181.5 C 210.45 181.225 209.55 184.6 209 189 C 208.45 193.4 208.225 199.025 208.5 201.5 C 208.775 203.975 208.55 207.35 208 209 C 207.45 210.65 205.2 212.675 203 213.5 C 200.8 214.325 196.075 215 192.5 215 C 188.925 215 184.425 215.9 182.5 217 C 180.575 218.1 178.55 219.9 178 221 C 177.353 222.293 177.707 222.823 179 222.5 C 180.1 222.225 181.675 221.55 182.5 221 C 183.325 220.45 186.925 219.55 190.5 219 C 194.075 218.45 197.675 217.775 198.5 217.5 C 199.325 217.225 196.625 219.475 192.5 222.5 C 188.375 225.525 183.65 228.9 182 230 C 180.35 231.1 181.925 230.875 185.5 229.5 C 189.075 228.125 194.7 224.975 198 222.5 C 201.3 220.025 205.8 216.425 208 214.5 C 210.2 212.575 212.45 208.75 213 206 C 213.55 203.25 213.325 198.975 212.5 196.5 C 211.675 194.025 211.225 189.75 211.5 187 C 211.775 184.25 211.55 181.775 211 181.5 Z  M 88.5 201 C 91.525 201 95.125 201.675 96.5 202.5 L 99 204 L 95.5 204.5 C 93.575 204.775 89.3 204.55 86 204 C 82.7 203.45 80.675 202.55 81.5 202 C 82.325 201.45 85.475 201 88.5 201 Z  M 142 208.5 C 140.9 208.225 139.55 208.675 139 209.5 C 138.45 210.325 137.325 211.45 136.5 212 C 135.675 212.55 134.775 212.775 134.5 212.5 C 134.225 212.225 133.1 213.575 132 215.5 C 130.9 217.425 127.75 220.35 125 222 C 122.25 223.65 119.1 225.225 118 225.5 C 116.639 225.84 116.958 226.639 119 228 C 120.65 229.1 122.225 230.675 122.5 231.5 C 122.775 232.325 122.55 233.675 122 234.5 C 121.412 235.382 123.06 236.206 126 236.5 C 128.75 236.775 131.675 236.325 132.5 235.5 C 133.401 234.599 133.6 235.399 133 237.5 C 132.45 239.425 132.675 240.55 133.5 240 C 134.325 239.45 136.125 235.625 137.5 231.5 C 138.875 227.375 140.9 220.625 142 216.5 C 143.333 211.5 143.333 208.833 142 208.5 Z  M 294.5 212 C 294.225 211.45 292.2 211.675 290 212.5 C 287.684 213.369 286.421 214.631 287 215.5 C 287.55 216.325 290.475 217.675 293.5 218.5 C 296.525 219.325 300.125 220.45 301.5 221 C 302.875 221.55 304.9 221.775 306 221.5 C 307.1 221.225 308.675 220.1 309.5 219 C 310.699 217.401 310.097 216.9 306.5 216.5 C 304.025 216.225 300.425 215.325 298.5 214.5 C 296.575 213.675 294.775 212.55 294.5 212 Z  M 59.5 222 C 58.675 221.45 58.225 223.475 58.5 226.5 C 58.775 229.525 58.775 234.025 58.5 236.5 C 58.225 238.975 56.425 244.825 54.5 249.5 C 52.575 254.175 50.775 258.45 50.5 259 C 50.225 259.55 51.125 258.875 52.5 257.5 C 53.875 256.125 56.125 252.525 57.5 249.5 L 60 244 L 61 249.5 C 61.55 252.525 62.225 257.025 62.5 259.5 C 62.775 261.975 62.1 265.35 61 267 C 59.9 268.65 58.55 270.225 58 270.5 C 57.45 270.775 58.35 271.225 60 271.5 C 61.65 271.775 63.675 270.875 64.5 269.5 C 65.325 268.125 66.225 264.075 66.5 260.5 C 66.775 256.925 66.325 249.95 65.5 245 C 64.675 240.05 63.55 234.425 63 232.5 C 62.45 230.575 61.775 227.65 61.5 226 C 61.225 224.35 60.325 222.55 59.5 222 Z  M 218.5 221.5 C 217.125 221.225 215.55 221.45 215 222 C 214.45 222.55 216.475 223.675 219.5 224.5 C 222.525 225.325 227.925 228.025 231.5 230.5 C 235.075 232.975 238.225 235.225 238.5 235.5 C 238.775 235.775 239.225 235.775 239.5 235.5 C 239.775 235.225 240.225 235.45 240.5 236 C 240.775 236.55 241.225 236.775 241.5 236.5 C 241.775 236.225 242.225 236.225 242.5 236.5 C 242.775 236.775 242.1 235.65 241 234 C 239.9 232.35 237.2 230.1 235 229 C 232.8 227.9 228.75 225.875 226 224.5 C 223.25 223.125 219.875 221.775 218.5 221.5 Z  M 285.5 221.5 C 285.225 221.225 286.125 223.7 287.5 227 C 289.362 231.47 291.148 233.383 294.5 234.5 C 296.975 235.325 300.125 235.775 301.5 235.5 C 303.5 235.1 303.5 234.6 301.5 233 C 299.998 231.799 299.399 229.802 300 228 C 300.601 226.198 300.002 224.201 298.5 223 C 297.125 221.9 293.75 221.225 291 221.5 C 288.25 221.775 285.775 221.775 285.5 221.5 Z  M 206 222 C 205.45 222 203.65 223.35 202 225 C 200.35 226.65 196.075 229.125 192.5 230.5 C 188.925 231.875 185.55 233.9 185 235 C 184.265 236.47 184.928 236.735 187.5 236 C 189.425 235.45 193.25 234.325 196 233.5 C 199.315 232.506 202.011 230.315 204 227 C 205.65 224.25 206.55 222 206 222 Z  M 220 230.5 C 217.25 230.225 215.675 230.45 216.5 231 C 217.325 231.55 221.375 233.575 225.5 235.5 C 229.625 237.425 233.225 239.225 233.5 239.5 C 233.775 239.775 234.45 239.55 235 239 C 235.55 238.45 233.525 236.425 230.5 234.5 C 227.475 232.575 222.75 230.775 220 230.5 Z  M 391.5 230.5 C 391.225 230.225 392.8 231.8 395 234 C 397.2 236.2 400.35 239.35 402 241 C 403.65 242.65 406.575 245.125 408.5 246.5 L 412 249 L 410 244.5 C 408.9 242.025 406.875 238.875 405.5 237.5 C 404.125 236.125 401.2 234.1 399 233 C 396.8 231.9 394.55 230.775 394 230.5 C 393.45 230.225 392.775 230.225 392.5 230.5 C 392.225 230.775 391.775 230.775 391.5 230.5 Z  M 390.5 236 C 388.575 233.8 387.45 233.125 388 234.5 C 388.55 235.875 390.125 237.675 391.5 238.5 C 392.944 239.366 392.521 238.31 390.5 236 Z  M 49.5 239 C 49.225 239 47.65 241.025 46 243.5 C 44.35 245.975 41.65 249.35 40 251 L 37 254 L 39.5 254.5 C 40.875 254.775 43.125 253.65 44.5 252 C 45.875 250.35 47.45 247.2 48 245 C 48.55 242.8 49.225 240.55 49.5 240 C 49.775 239.45 49.775 239 49.5 239 Z  M 242 240 C 241.45 240 242.8 242.7 245 246 C 247.2 249.3 249.675 253.575 250.5 255.5 C 251.325 257.425 253.35 259.9 255 261 C 256.65 262.1 258.9 262.775 260 262.5 C 261.1 262.225 262.225 262.225 262.5 262.5 C 262.775 262.775 263.225 262.55 263.5 262 C 263.775 261.45 263.1 260.325 262 259.5 C 260.9 258.675 259.55 258.225 259 258.5 C 258.45 258.775 258.225 258.1 258.5 257 C 258.775 255.9 257.425 253.65 255.5 252 C 253.575 250.35 249.975 246.975 247.5 244.5 C 245.025 242.025 242.55 240 242 240 Z  M 227.5 241.5 C 227.225 241.225 225.875 241.45 224.5 242 C 223.125 242.55 219.75 243 217 243 C 214.25 243 209.75 244.35 207 246 L 202 249 L 204.5 250 C 205.875 250.55 207.45 250.775 208 250.5 C 208.55 250.225 208.325 250.675 207.5 251.5 C 206.675 252.325 206.45 252.775 207 252.5 C 207.55 252.225 207.325 252.9 206.5 254 C 205.631 255.158 208.578 254.737 213.5 253 C 218.175 251.35 223.575 249.55 225.5 249 C 227.425 248.45 229.9 248.45 231 249 C 232.1 249.55 233.225 250.225 233.5 250.5 C 233.775 250.775 234.225 250.1 234.5 249 C 234.775 247.9 235.225 247.225 235.5 247.5 C 235.775 247.775 236.45 247.1 237 246 C 237.55 244.9 238.225 243.55 238.5 243 C 238.775 242.45 238.325 241.775 237.5 241.5 C 236.675 241.225 235.775 241.225 235.5 241.5 C 235.225 241.775 234.55 241.775 234 241.5 C 233.45 241.225 231.875 241.225 230.5 241.5 C 229.125 241.775 227.775 241.775 227.5 241.5 Z  M 384 249.5 L 381 245 L 380.5 250.5 L 380 256 L 385 260 L 390 264 L 388.5 259 C 387.675 256.25 385.65 251.975 384 249.5 Z  M 377.5 255 C 377.225 255 376.1 256.35 375 258 C 373.9 259.65 371.875 262.125 370.5 263.5 C 369.125 264.875 366.875 267.8 365.5 270 C 364.125 272.2 362.55 275.125 362 276.5 C 361.302 278.244 362.663 280.663 366.5 284.5 C 369.525 287.525 372.9 290.225 374 290.5 C 375.1 290.775 377.125 289.875 378.5 288.5 C 379.875 287.125 380.775 285.775 380.5 285.5 C 380.225 285.225 380.225 284.775 380.5 284.5 C 380.775 284.225 379.65 283.1 378 282 C 376.35 280.9 373.875 277.75 372.5 275 C 371.125 272.25 370.225 269.1 370.5 268 C 370.829 266.685 371.685 267.2 373 269.5 C 374.1 271.425 377.25 274.8 380 277 L 385 281 L 384 277.5 C 383.45 275.575 382.1 272.65 381 271 C 379.9 269.35 378.55 266.425 378 264.5 C 377.45 262.575 377.225 259.65 377.5 258 C 377.775 256.35 377.775 255 377.5 255 Z  M 42.5 256 C 42.225 256 41.325 256.45 40.5 257 C 39.675 257.55 36.3 259.125 33 260.5 C 29.7 261.875 25.875 264.125 24.5 265.5 C 23.125 266.875 21.55 269.125 21 270.5 C 20.45 271.875 19.775 273.9 19.5 275 C 19.175 276.3 21.274 276.125 25.5 274.5 C 29.825 272.837 33.506 269.992 36.5 266 C 38.975 262.7 41.45 259.1 42 258 C 42.55 256.9 42.775 256 42.5 256 Z  M 219 258 C 217.9 258 214.975 259.575 212.5 261.5 C 210.025 263.425 207.55 265.675 207 266.5 C 206.421 267.369 206.842 267.79 208 267.5 C 209.1 267.225 211.35 267.225 213 267.5 C 214.65 267.775 218.475 267.325 221.5 266.5 C 224.525 265.675 227.225 265.225 227.5 265.5 C 227.775 265.775 227.1 264.875 226 263.5 C 224.9 262.125 223.775 261.225 223.5 261.5 C 223.225 261.775 223.225 261.55 223.5 261 C 223.775 260.45 223.325 259.55 222.5 259 C 221.675 258.45 220.1 258 219 258 Z  M 357.5 258 C 357.775 258 358.45 258.9 359 260 C 359.55 261.1 359.1 263.35 358 265 L 356 268 L 356.5 263 C 356.775 260.25 357.225 258 357.5 258 Z  M 294 262 C 293.45 262 291.65 262.675 290 263.5 C 288.35 264.325 286.55 266.35 286 268 C 285.45 269.65 284.55 271.45 284 272 C 283.45 272.55 283.9 272.325 285 271.5 C 286.1 270.675 288.35 268.65 290 267 C 291.65 265.35 293.45 263.55 294 263 C 294.55 262.45 294.55 262 294 262 Z  M 402.5 266.5 L 399 263 L 400 266 C 400.55 267.65 403.7 272.15 407 276 L 413 283 L 409.5 276.5 C 407.575 272.925 404.425 268.425 402.5 266.5 Z  M 55.5 274 C 54.125 273.45 50.975 274.125 48.5 275.5 C 46.025 276.875 41.975 278.9 39.5 280 C 37.025 281.1 33.2 283.35 31 285 L 27 288 L 31 286 C 33.2 284.9 37.7 283.325 41 282.5 C 44.3 281.675 49.475 279.65 52.5 278 L 58 275 L 55.5 274 Z  M 131 274.5 C 129.35 274.225 130.7 275.35 134 277 C 137.3 278.65 140.225 279.775 140.5 279.5 C 140.775 279.225 139.425 278.1 137.5 277 C 135.575 275.9 132.65 274.775 131 274.5 Z  M 286.5 274.5 C 285.675 274.225 283.2 275.35 281 277 C 278.8 278.65 276.775 280.675 276.5 281.5 C 276.225 282.325 276.9 282.775 278 282.5 C 279.1 282.225 281.8 280.425 284 278.5 C 286.2 276.575 287.325 274.775 286.5 274.5 Z  M 267 275 C 266.45 275 263.525 277.475 260.5 280.5 C 257.475 283.525 253.65 287.575 252 289.5 C 250.04 291.786 246.573 293.347 242 294 C 238.15 294.55 233.425 295.675 231.5 296.5 C 229.575 297.325 224.85 298.45 221 299 C 217.15 299.55 210.625 300.225 206.5 300.5 C 202.375 300.775 195.85 299.875 192 298.5 C 188.15 297.125 183.2 295.775 181 295.5 C 178.8 295.225 176.55 295.225 176 295.5 C 175.45 295.775 172.075 292.4 168.5 288 C 164.925 283.6 160.65 279.775 159 279.5 C 157.35 279.225 155.55 279.9 155 281 C 154.412 282.176 154.618 282.588 155.5 282 C 156.325 281.45 157.675 282.125 158.5 283.5 C 159.325 284.875 161.575 288.7 163.5 292 C 165.425 295.3 170.375 301.15 174.5 305 C 178.625 308.85 184.7 313.575 188 315.5 C 191.3 317.425 196.7 321.475 200 324.5 C 203.879 328.056 206.353 331.767 207 335 C 207.55 337.75 207.775 341.575 207.5 343.5 C 207.225 345.425 205.875 347.675 204.5 348.5 C 203.125 349.325 197.95 351.35 193 353 C 188.05 354.65 181.75 356.45 179 357 C 176.25 357.55 171.75 358.225 169 358.5 C 166.25 358.775 163.775 359.45 163.5 360 C 163.225 360.55 162.55 360.325 162 359.5 C 161.45 358.675 160.55 357.775 160 357.5 C 159.45 357.225 158.325 358.35 157.5 360 C 156.675 361.65 155.55 363.225 155 363.5 C 154.45 363.775 154.675 362.2 155.5 360 C 156.422 357.54 156.23 355.422 155 354.5 C 153.9 353.675 151.65 352.55 150 352 C 148.35 351.45 146.775 351.225 146.5 351.5 C 146.225 351.775 145.55 351.1 145 350 C 144.45 348.9 144.9 347.55 146 347 C 147.176 346.412 145.94 345.794 143 345.5 L 138 345 L 132 350.5 C 128.7 353.525 125.1 357.575 124 359.5 C 122.9 361.425 121.775 362.55 121.5 362 C 121.225 361.45 121.675 359.2 122.5 357 C 123.325 354.8 126.025 350.975 128.5 348.5 C 130.975 346.025 134.575 342.65 136.5 341 C 138.425 339.35 139.775 337.775 139.5 337.5 C 139.225 337.225 140.8 336.325 143 335.5 L 147 334 L 141.5 334.5 C 138.475 334.775 132.85 335.9 129 337 C 125.15 338.1 120.65 339.9 119 341 C 117.35 342.1 115.325 343.45 114.5 344 C 113.675 344.55 112.775 344.775 112.5 344.5 C 112.225 344.225 111.55 344.45 111 345 C 110.45 345.55 111.575 344.2 113.5 342 C 115.425 339.8 120.15 335.975 124 333.5 L 131 329 L 127.5 328.5 C 125.575 328.225 121.075 329.35 117.5 331 C 113.925 332.65 108.75 335.35 106 337 L 101 340 L 104 336 C 105.65 333.8 111.5 329.75 117 327 C 124.642 323.179 126.41 321.764 124.5 321 C 123.125 320.45 118.175 321.35 113.5 323 C 108.825 324.65 101.85 328.25 98 331 C 94.15 333.75 91.225 336.225 91.5 336.5 C 91.775 336.775 92.45 336.55 93 336 C 93.55 335.45 94 337.925 94 341.5 C 94 345.075 92.875 350.475 91.5 353.5 C 90.125 356.525 87.425 361.25 85.5 364 C 83.412 366.983 81.798 372.026 81.5 376.5 C 81.225 380.625 82.125 387.15 83.5 391 C 84.875 394.85 86.675 398.9 87.5 400 C 88.506 401.341 89 399.693 89 395 C 89 390.734 90.172 386.438 92 384 C 93.65 381.8 97.7 376.175 101 371.5 C 104.3 366.825 107.45 362.325 108 361.5 C 108.55 360.675 109.45 360.225 110 360.5 C 110.55 360.775 110.55 363.25 110 366 C 109.45 368.75 107.875 372.8 106.5 375 C 104.933 377.507 104.187 382.547 104.5 388.5 C 104.775 393.725 104.55 399.575 104 401.5 L 103 405 L 101 399 C 99.553 394.659 98.447 393.276 97 394 C 95.9 394.55 94.775 397.7 94.5 401 C 94.225 404.3 94.225 409.025 94.5 411.5 C 94.775 413.975 95.45 416.9 96 418 C 96.55 419.1 99.925 420 103.5 420 L 110 420 L 110 411 C 110 406.05 109.775 399.975 109.5 397.5 C 109.225 395.025 109.45 391.875 110 390.5 C 110.55 389.125 111.225 388.45 111.5 389 C 111.775 389.55 111.775 390.225 111.5 390.5 C 111.225 390.775 111.675 394.15 112.5 398 C 113.325 401.85 114.45 405.9 115 407 C 115.55 408.1 115.55 411.25 115 414 L 114 419 L 117 419.5 L 120 420 L 119.5 414.5 C 119.225 411.475 119.45 408.1 120 407 C 120.55 405.9 121.45 408.375 122 412.5 L 123 420 L 139.5 420 L 156 420 L 154 415.5 C 152.667 412.5 152.667 411.5 154 412.5 C 155.1 413.325 157.125 415.35 158.5 417 L 161 420 L 179.5 420 L 198 420 L 196.5 416 C 195.675 413.8 194.325 411.1 193.5 410 C 192.301 408.401 191.699 408.903 190.5 412.5 L 189 417 L 187 412 C 185.9 409.25 184.325 406.775 183.5 406.5 C 182.675 406.225 181.55 406.675 181 407.5 C 180.45 408.325 179.325 409.9 178.5 411 C 177.675 412.1 176.775 413.45 176.5 414 C 176.225 414.55 175.55 413.425 175 411.5 C 174.45 409.575 173.775 407.1 173.5 406 C 173.225 404.9 173.675 401.525 174.5 398.5 L 176 393 L 173.5 395 C 172.125 396.1 169.875 398.125 168.5 399.5 C 167.125 400.875 165.1 403.8 164 406 C 162.9 408.2 161.55 410.675 161 411.5 C 160.45 412.325 160.225 410.75 160.5 408 C 160.775 405.25 161.675 400.525 162.5 397.5 C 163.325 394.475 164.225 391.1 164.5 390 C 164.842 388.631 163.896 388.473 161.5 389.5 C 159.575 390.325 156.65 393.25 155 396 C 153.35 398.75 151.775 401.675 151.5 402.5 C 151.225 403.325 150.55 402.65 150 401 C 149.45 399.35 149.675 395.75 150.5 393 C 151.325 390.25 151.775 387.55 151.5 387 C 151.225 386.45 149.875 386.45 148.5 387 L 146 388 L 147 384.5 C 147.55 382.575 148.45 379.65 149 378 C 149.55 376.35 149.775 374.325 149.5 373.5 C 149.225 372.675 149.9 370.65 151 369 C 152.1 367.35 152.775 365.775 152.5 365.5 C 152.225 365.225 152.45 365.225 153 365.5 C 153.55 365.775 156.025 365.1 158.5 364 C 160.975 362.9 162.325 362.675 161.5 363.5 C 160.675 364.325 164.05 364.775 169 364.5 C 173.95 364.225 183.4 365.125 190 366.5 C 196.6 367.875 202.675 368.325 203.5 367.5 C 204.548 366.452 205.151 366.905 205.5 369 C 205.775 370.65 206.675 372.675 207.5 373.5 C 208.474 374.474 208.825 373.598 208.5 371 C 208.225 368.8 207.775 366.325 207.5 365.5 C 207.225 364.675 208.125 364.675 209.5 365.5 C 210.875 366.325 212.45 366.325 213 365.5 C 213.55 364.675 213.775 363.325 213.5 362.5 C 213.225 361.675 216.15 362.8 220 365 L 227 369 L 228 366.5 C 228.55 365.125 230.8 363.55 233 363 C 235.2 362.45 239.025 362.225 241.5 362.5 C 243.975 362.775 250.05 362.55 255 362 C 259.95 361.45 265.125 360.55 266.5 360 L 269 359 L 265 357.5 C 262.8 356.675 256.275 356.225 250.5 356.5 C 242.92 356.861 236.941 355.888 229 353 C 220.912 350.059 217.603 348.074 216.5 345.5 C 215.675 343.575 215.9 339.075 217 335.5 C 218.334 331.164 221.164 327.002 225.5 323 C 229.075 319.7 234.475 314.975 237.5 312.5 C 240.525 310.025 243.9 307.325 245 306.5 C 246.1 305.675 248.575 303.425 250.5 301.5 C 252.425 299.575 255.8 295.75 258 293 C 260.2 290.25 263.35 285.075 265 281.5 C 266.65 277.925 267.55 275 267 275 Z  M 61.5 276 C 61.225 276 57.4 278.25 53 281 C 48.6 283.75 42.525 288.925 39.5 292.5 C 36.475 296.075 33.325 301.025 32.5 303.5 C 31.675 305.975 30.775 309.125 30.5 310.5 C 30.225 311.875 30.45 313.9 31 315 C 31.705 316.41 34.657 313.458 41 305 C 45.95 298.4 51.125 291.65 52.5 290 C 53.875 288.35 56.575 284.525 58.5 281.5 C 60.425 278.475 61.775 276 61.5 276 Z  M 360 283.5 L 359 279 L 357.5 285 L 356 291 L 360 293 C 362.2 294.1 364.9 294.775 366 294.5 C 367.356 294.161 366.874 293.035 364.5 291 C 362.575 289.35 360.55 285.975 360 283.5 Z  M 391.5 284.5 C 390.526 283.526 390.175 284.402 390.5 287 C 390.775 289.2 392.35 294.375 394 298.5 C 395.65 302.625 397.9 309.375 399 313.5 L 401 321 L 402.5 311.5 C 403.69 303.962 403.38 300.967 401 297 C 399.35 294.25 396.875 290.65 395.5 289 C 394.125 287.35 392.325 285.325 391.5 284.5 Z  M 99.5 285 C 97.575 285 94.2 285.9 92 287 C 89.642 288.179 87.59 290.642 87 293 C 86.45 295.2 83.975 299.25 81.5 302 C 79.025 304.75 73.85 308.575 70 310.5 C 66.15 312.425 60.75 315.125 58 316.5 L 53 319 L 60 318 C 63.85 317.45 70.375 315.65 74.5 314 C 78.625 312.35 83.125 310.325 84.5 309.5 C 85.875 308.675 87.225 308.225 87.5 308.5 C 87.775 308.775 90.7 308.55 94 308 C 97.3 307.45 104.05 306.325 109 305.5 C 113.95 304.675 118.225 303.325 118.5 302.5 C 118.775 301.675 116.525 300.775 113.5 300.5 C 110.475 300.225 104.175 301.125 99.5 302.5 C 94.825 303.875 90.1 305.675 89 306.5 C 87.9 307.325 87.45 307.325 88 306.5 C 88.55 305.675 90.35 304.1 92 303 C 93.65 301.9 96.575 300.55 98.5 300 C 100.425 299.45 104.7 298.55 108 298 C 111.3 297.45 115.125 296.55 116.5 296 C 117.875 295.45 119.225 293.875 119.5 292.5 C 119.775 291.125 118.875 289.55 117.5 289 C 116.125 288.45 112.3 287.325 109 286.5 C 105.7 285.675 101.425 285 99.5 285 Z  M 83 289 C 81.9 289 77.625 289.9 73.5 291 C 69.375 292.1 63.3 294.8 60 297 C 56.7 299.2 52.425 303.025 50.5 305.5 C 48.575 307.975 46.325 310.9 45.5 312 C 44.308 313.589 44.616 313.897 47 313.5 C 48.65 313.225 52.925 311.2 56.5 309 C 60.075 306.8 65.925 303.2 69.5 301 C 73.075 298.8 77.35 295.65 79 294 C 80.65 292.35 82.675 290.55 83.5 290 C 84.382 289.412 84.176 289 83 289 Z  M 98 292 C 98.55 293.1 98.775 294.45 98.5 295 C 98.225 295.55 96.65 297.125 95 298.5 L 92 301 L 94.5 295.5 C 96.262 291.624 97.295 290.59 98 292 Z  M 138.5 294.5 C 136.5 293.3 136.5 293.4 138.5 295 C 139.875 296.1 142.35 297.675 144 298.5 C 145.65 299.325 147.9 300.675 149 301.5 C 150.1 302.325 153.025 304.35 155.5 306 C 157.975 307.65 161.8 309.45 164 310 C 166.2 310.55 168.45 310.55 169 310 C 169.55 309.45 167.3 307.2 164 305 C 160.7 302.8 156.2 299.65 154 298 C 151.715 296.286 148.07 295.214 145.5 295.5 C 143.025 295.775 139.875 295.325 138.5 294.5 Z  M 384.5 293 C 384.225 293 382.875 294.35 381.5 296 C 379.669 298.197 379.536 299.669 381 301.5 C 382.1 302.875 383.675 305.575 384.5 307.5 C 385.325 309.425 386.675 312.575 387.5 314.5 C 388.325 316.425 389.9 320.25 391 323 L 393 328 L 392 319.5 C 391.45 314.825 390.1 308.3 389 305 C 387.9 301.7 386.325 297.875 385.5 296.5 C 384.675 295.125 384.225 293.775 384.5 293.5 C 384.775 293.225 384.775 293 384.5 293 Z  M 272.5 294 C 272.225 294 269.525 296.025 266.5 298.5 C 263.475 300.975 259.875 303.9 258.5 305 C 257.125 306.1 255.55 307.45 255 308 C 254.45 308.55 254.9 309.225 256 309.5 C 257.1 309.775 261.15 308.875 265 307.5 C 268.85 306.125 273.575 304.1 275.5 303 C 277.425 301.9 279.45 300.1 280 299 C 280.686 297.627 279.745 296.53 277 295.5 C 274.8 294.675 272.775 294 272.5 294 Z  M 323.5 296.5 C 319.925 296.225 316.55 296.45 316 297 C 315.45 297.55 316.575 298.45 318.5 299 C 320.425 299.55 324.475 300.45 327.5 301 C 330.525 301.55 333.45 301.775 334 301.5 C 334.55 301.225 335.225 301.225 335.5 301.5 C 335.775 301.775 336.675 301.55 337.5 301 C 338.325 300.45 338.775 299.775 338.5 299.5 C 338.225 299.225 337.775 299.225 337.5 299.5 C 337.225 299.775 335.425 299.325 333.5 298.5 C 331.575 297.675 327.075 296.775 323.5 296.5 Z  M 2.5 300 L 0 299 L 0 312.5 C 0 323.046 0.438 325.453 2 323.5 C 3.1 322.125 4.45 318.75 5 316 C 5.55 313.25 6.45 308.3 7 305 C 7.55 301.7 7.55 299.225 7 299.5 C 6.45 299.775 5.775 300.225 5.5 300.5 C 5.225 300.775 3.875 300.55 2.5 300 Z  M 224.5 307 C 224.775 307 224.775 307.45 224.5 308 C 224.225 308.55 222.2 310.575 220 312.5 C 217.8 314.425 215.775 315.775 215.5 315.5 C 215.225 315.225 215.45 314.775 216 314.5 C 216.55 314.225 218.575 312.425 220.5 310.5 C 222.425 308.575 224.225 307 224.5 307 Z  M 334.5 307 C 333.675 307 331.65 307.675 330 308.5 C 327.795 309.602 327.53 310.265 329 311 C 330.1 311.55 330.775 312.225 330.5 312.5 C 330.225 312.775 329.325 312.775 328.5 312.5 C 327.675 312.225 326.775 312.45 326.5 313 C 326.225 313.55 328.475 315.575 331.5 317.5 C 334.525 319.425 338.575 321.9 340.5 323 C 342.833 324.333 343.833 324.333 343.5 323 C 343.225 321.9 342.775 320.325 342.5 319.5 C 342.225 318.675 343.8 319.125 346 320.5 L 350 323 L 349.5 320 C 349.225 318.35 347.65 315.2 346 313 C 344.35 310.8 341.425 308.55 339.5 308 C 337.575 307.45 335.325 307 334.5 307 Z  M 106.5 309 C 105.675 309 98.925 310.8 91.5 313 C 84.075 315.2 74.625 318.8 70.5 321 C 66.375 323.2 61.425 327.025 59.5 329.5 L 56 334 L 62.5 331 C 66.075 329.35 72.375 326.2 76.5 324 C 80.625 321.8 88.05 318.65 93 317 C 97.95 315.35 105.375 313.1 109.5 312 L 117 310 L 112.5 309.5 C 110.025 309.225 107.325 309 106.5 309 Z  M 362 313 L 359 310 L 361.5 314 C 362.875 316.2 363.55 317.775 363 317.5 C 362.45 317.225 361.775 317.45 361.5 318 C 361.225 318.55 360.325 318.55 359.5 318 C 358.675 317.45 357.55 316.775 357 316.5 C 356.45 316.225 356.45 317.575 357 319.5 C 357.55 321.425 360.025 325.925 362.5 329.5 C 364.975 333.075 368.575 336.9 370.5 338 L 374 340 L 372.5 335.5 C 371.675 333.025 369.65 327.625 368 323.5 C 366.35 319.375 363.65 314.65 362 313 Z  M 12.5 315 C 12.225 315 11.1 316.35 10 318 C 8.9 319.65 6.425 323.025 4.5 325.5 C 2.575 327.975 0.775 332.025 0.5 334.5 C 0.225 336.975 0 345.3 0 353 L 0 367 L 3 365 L 6 363 L 4.5 368.5 C 3.675 371.525 2.325 375.8 1.5 378 C 0.675 380.2 0 390.55 0 401 L 0 420 L 43 420 L 86 420 L 85.5 414 C 85.225 410.7 83.875 406.2 82.5 404 C 81.125 401.8 79.55 399.325 79 398.5 C 78.45 397.675 77.55 396.325 77 395.5 C 76.421 394.631 75.79 395.263 75.5 397 C 75.225 398.65 75.45 400.675 76 401.5 C 76.55 402.325 77.225 404.35 77.5 406 L 78 409 L 74.5 405 C 72.575 402.8 69.875 399.65 68.5 398 C 67.125 396.35 65.1 395.225 64 395.5 C 62.9 395.775 61.55 396.45 61 397 C 60.45 397.55 59.55 397.775 59 397.5 C 58.45 397.225 57.775 397.45 57.5 398 C 57.225 398.55 56.325 398.55 55.5 398 C 54.675 397.45 53.325 395.2 52.5 393 C 51.675 390.8 49.875 385.4 48.5 381 C 47.125 376.6 45.775 373.675 45.5 374.5 C 45.225 375.325 44.775 373.975 44.5 371.5 C 44.225 369.025 44.225 366.775 44.5 366.5 C 44.775 366.225 43.65 366.9 42 368 C 40.35 369.1 39.225 370.45 39.5 371 C 39.775 371.55 39.325 371.1 38.5 370 C 37.675 368.9 36.55 365.3 36 362 C 35.45 358.7 34.55 355.325 34 354.5 C 33.45 353.675 32.325 351.875 31.5 350.5 C 30.675 349.125 29.325 347.1 28.5 346 C 27.675 344.9 26.1 343.325 25 342.5 C 23.9 341.675 20.3 341.9 17 343 C 13.7 344.1 10.325 344.775 9.5 344.5 C 8.675 344.225 8.225 343.1 8.5 342 C 8.775 340.9 9.225 340.675 9.5 341.5 C 9.775 342.325 10.9 342.55 12 342 C 13.1 341.45 14.45 339.875 15 338.5 C 15.732 336.669 15.465 336.268 14 337 C 12.9 337.55 11.775 337.775 11.5 337.5 C 11.225 337.225 10.55 337.225 10 337.5 C 9.45 337.775 10.575 335.75 12.5 333 C 14.425 330.25 16.225 326.875 16.5 325.5 C 16.775 324.125 16.1 321.2 15 319 C 13.9 316.8 12.775 315 12.5 315 Z  M 117 315 C 114.25 315 108.4 316.125 104 317.5 C 99.6 318.875 90.825 322.475 84.5 325.5 C 78.175 328.525 70.3 332.575 67 334.5 C 63.7 336.425 61.675 337.775 62.5 337.5 C 63.325 337.225 63.55 337.9 63 339 C 62.45 340.1 62.45 340.775 63 340.5 C 63.55 340.225 64.225 340.675 64.5 341.5 C 64.775 342.325 64.775 345.025 64.5 347.5 C 64.225 349.975 64.225 352.225 64.5 352.5 C 64.775 352.775 66.125 350.3 67.5 347 C 68.875 343.7 71.125 338.975 72.5 336.5 C 73.875 334.025 76.575 331.325 78.5 330.5 C 80.425 329.675 83.575 328.55 85.5 328 C 87.425 327.45 89.225 327.225 89.5 327.5 C 89.775 327.775 90.225 327.775 90.5 327.5 C 90.775 327.225 91.225 327.225 91.5 327.5 C 91.775 327.775 92.225 327.55 92.5 327 C 92.775 326.45 93.45 326.225 94 326.5 C 94.55 326.775 96.125 326.55 97.5 326 C 98.875 325.45 104.275 323.425 109.5 321.5 C 114.725 319.575 119.675 317.325 120.5 316.5 C 121.485 315.515 120.282 315 117 315 Z  M 312 318.5 C 306.5 317.675 301.775 317.675 301.5 318.5 C 301.225 319.325 303.7 321.125 307 322.5 C 310.3 323.875 314.35 325.225 316 325.5 L 319 326 L 317 323 C 315.824 321.236 316.648 321.648 319 324 C 321.2 326.2 325.25 328.675 328 329.5 L 333 331 L 330.5 328 C 329.125 326.35 326.65 323.875 325 322.5 C 323.35 321.125 317.5 319.325 312 318.5 Z  M 155.5 319.5 C 152.475 319.225 150.225 319.45 150.5 320 C 150.775 320.55 153.475 321.675 156.5 322.5 C 159.525 323.325 165.825 324.45 170.5 325 C 175.175 325.55 178.775 325.55 178.5 325 C 178.225 324.45 174.175 323.1 169.5 322 C 164.825 320.9 158.525 319.775 155.5 319.5 Z  M 314 331 C 309.471 329.49 310.207 330.103 317 333.5 C 321.95 335.975 326.9 338.225 328 338.5 C 329.1 338.775 327.75 337.65 325 336 C 322.25 334.35 317.3 332.1 314 331 Z  M 291.5 330.5 C 290.675 330.225 291.575 331.8 293.5 334 C 295.425 336.2 296.55 337.775 296 337.5 C 295.45 337.225 294.1 337.225 293 337.5 C 291.9 337.775 289.65 337.55 288 337 C 286.35 336.45 284.55 336.45 284 337 C 283.45 337.55 284.575 339.125 286.5 340.5 C 288.425 341.875 291.125 344.35 292.5 346 L 295 349 L 291 347 C 288.8 345.9 285.65 344.775 284 344.5 C 281.616 344.103 281.308 344.411 282.5 346 C 283.325 347.1 285.125 349.575 286.5 351.5 C 287.875 353.425 289.225 355.675 289.5 356.5 C 289.775 357.325 289.1 358.45 288 359 C 286.824 359.588 285.176 358.764 284 357 C 282.9 355.35 280.65 353.325 279 352.5 C 277.35 351.675 274.65 351.675 273 352.5 L 270 354 L 275.5 360 C 278.525 363.3 279.875 365.55 278.5 365 L 276 364 L 277 370 C 277.735 374.412 279.324 377.059 283 380 C 285.75 382.2 288.675 384.9 289.5 386 C 290.325 387.1 290.325 389.125 289.5 390.5 L 288 393 L 287 390 C 286.45 388.35 285.55 387.225 285 387.5 C 284.45 387.775 284.225 388.225 284.5 388.5 C 284.775 388.775 284.325 388.775 283.5 388.5 C 282.675 388.225 282.45 389.8 283 392 C 283.55 394.2 283.775 396.225 283.5 396.5 C 283.225 396.775 282.325 396.1 281.5 395 C 280.675 393.9 278.425 393.225 276.5 393.5 C 274.575 393.775 272.325 393.775 271.5 393.5 C 270.675 393.225 269.775 393.225 269.5 393.5 C 269.225 393.775 268.325 393.55 267.5 393 C 266.675 392.45 265.775 392.225 265.5 392.5 C 265.225 392.775 263.425 392.55 261.5 392 C 259.575 391.45 256.65 390.55 255 390 L 252 389 L 253 392.5 C 253.55 394.425 255.125 397.35 256.5 399 C 257.875 400.65 260.575 404.025 262.5 406.5 L 266 411 L 262 409 C 259.8 407.9 256.875 405.65 255.5 404 L 253 401 L 253.5 406 C 253.775 408.75 254.675 412.125 255.5 413.5 C 256.325 414.875 257.45 416.9 258 418 C 258.627 419.254 265.902 420 277.5 420 L 296 420 L 296 413.5 C 296 409.925 295.775 405.875 295.5 404.5 C 295.225 403.125 295.225 401.775 295.5 401.5 C 295.775 401.225 295.775 400.325 295.5 399.5 C 295.225 398.675 295.45 396.875 296 395.5 C 296.55 394.125 296.775 392.325 296.5 391.5 C 296.225 390.675 296.9 390.45 298 391 C 299.1 391.55 300.45 393.8 301 396 C 301.55 398.2 302.9 400.45 304 401 C 305.1 401.55 306.9 400.875 308 399.5 C 309.1 398.125 310.45 395.875 311 394.5 C 311.55 393.125 312.225 392.45 312.5 393 C 312.775 393.55 313.45 393.775 314 393.5 C 314.55 393.225 315 395.7 315 399 C 315 402.3 314.1 408.15 313 412 L 311 419 L 315.5 419.5 C 317.975 419.775 323.15 420 327 420 L 334 420 L 334.5 417 L 335 414 L 336.5 417 C 337.389 418.779 338.407 419.389 339 418.5 C 339.55 417.675 339.775 415.2 339.5 413 C 339.225 410.8 339.45 406.3 340 403 C 340.55 399.7 341.45 397.675 342 398.5 C 342.55 399.325 343.675 402.025 344.5 404.5 C 345.325 406.975 346 411.475 346 414.5 L 346 420 L 351 420 C 354.921 420 355.892 419.461 355.5 417.5 C 355.225 416.125 354.1 412.975 353 410.5 C 351.9 408.025 349.875 403.975 348.5 401.5 C 347.125 399.025 343.975 395.65 341.5 394 C 339.025 392.35 333.175 388.525 328.5 385.5 C 323.825 382.475 318.65 377.975 317 375.5 C 315.35 373.025 312.425 367.85 310.5 364 C 308.575 360.15 306.325 354.975 305.5 352.5 C 304.675 350.025 304.225 347.325 304.5 346.5 C 304.775 345.675 305.9 346.125 307 347.5 C 308.1 348.875 310.125 352.7 311.5 356 C 312.875 359.3 316.25 364.7 319 368 C 321.75 371.3 325.8 375.35 328 377 C 330.2 378.65 332.225 379.775 332.5 379.5 C 332.775 379.225 331.65 376.75 330 374 C 328.35 371.25 326.55 368.325 326 367.5 C 325.45 366.675 324.775 364.2 324.5 362 C 324.225 359.8 323.775 357.775 323.5 357.5 C 323.225 357.225 325.475 359.475 328.5 362.5 C 331.525 365.525 335.35 369.575 337 371.5 C 338.65 373.425 340.225 375.225 340.5 375.5 C 340.775 375.775 340.775 375.1 340.5 374 C 340.225 372.9 338.2 369.075 336 365.5 C 333.8 361.925 331.325 357.65 330.5 356 C 329.675 354.35 329.225 352.775 329.5 352.5 C 329.775 352.225 329.55 352.225 329 352.5 C 328.45 352.775 327.775 352.55 327.5 352 C 327.225 351.45 327.225 350.55 327.5 350 C 327.775 349.45 326.875 347.65 325.5 346 C 324.125 344.35 321.2 341.425 319 339.5 C 316.69 337.479 314.578 336.634 314 337.5 C 313.45 338.325 313.45 338.775 314 338.5 C 314.55 338.225 314.775 338.45 314.5 339 C 314.225 339.55 314.45 339.775 315 339.5 C 315.55 339.225 316.225 339.225 316.5 339.5 C 316.775 339.775 317.225 339.775 317.5 339.5 C 317.775 339.225 317.775 339.45 317.5 340 C 317.225 340.55 317.225 341.225 317.5 341.5 C 317.775 341.775 317.55 341.775 317 341.5 C 316.45 341.225 315.775 341.225 315.5 341.5 C 315.225 341.775 314.1 340.875 313 339.5 C 311.9 338.125 308.3 335.65 305 334 C 301.7 332.35 297.875 330.775 296.5 330.5 C 295.125 330.225 293.775 330.225 293.5 330.5 C 293.225 330.775 292.325 330.775 291.5 330.5 Z  M 419.5 330 C 419.225 330 418.775 335.175 418.5 341.5 C 418.225 347.825 417.55 354.575 417 356.5 L 416 360 L 411 353 C 408.25 349.15 405.775 346.225 405.5 346.5 C 405.225 346.775 405.675 348.125 406.5 349.5 C 407.325 350.875 408.675 354.025 409.5 356.5 C 410.325 358.975 411.45 363.925 412 367.5 C 412.55 371.075 412.325 376.7 411.5 380 C 410.675 383.3 409.325 387.125 408.5 388.5 L 407 391 L 406.5 386.5 C 406.225 384.025 404.65 379.75 403 377 C 401.205 374.009 398.192 371.397 395.5 370.5 C 393.025 369.675 389.875 369.45 388.5 370 C 386.551 370.78 386.441 372.102 388 376 C 389.1 378.75 390.225 381.45 390.5 382 C 390.775 382.55 393.025 384.8 395.5 387 L 400 391 L 393 389 C 389.15 387.9 385.775 386.775 385.5 386.5 C 385.225 386.225 385.675 387.125 386.5 388.5 C 387.325 389.875 388.225 394.15 388.5 398 C 388.775 401.85 388.55 404.325 388 403.5 C 387.45 402.675 386.325 401.1 385.5 400 C 384.675 398.9 383.55 398.675 383 399.5 C 382.412 400.382 380.971 399.147 379.5 396.5 C 378.125 394.025 374.75 390.425 372 388.5 C 369.25 386.575 365.65 384.775 364 384.5 C 362.35 384.225 360.55 383.55 360 383 C 359.45 382.45 359.225 384.025 359.5 386.5 C 359.778 389.003 362.44 393.884 365.5 397.5 L 371 404 L 367 404.5 L 363 405 L 363 410 C 363 412.75 363.675 416.125 364.5 417.5 C 365.652 419.421 372.258 420 393 420 L 420 420 L 420 375 C 420 350.25 419.775 330 419.5 330 Z  M 90.5 338 C 90.225 338 89.1 340.025 88 342.5 C 86.9 344.975 85.55 348.8 85 351 C 84.45 353.2 82.875 356.35 81.5 358 C 79.5 360.4 79.5 360.6 81.5 359 C 82.875 357.9 84.9 354.975 86 352.5 C 87.1 350.025 88.45 346.425 89 344.5 C 89.55 342.575 90.225 340.325 90.5 339.5 C 90.775 338.675 90.775 338 90.5 338 Z  M 106.5 347 C 106.775 347 105.875 349.025 104.5 351.5 C 103.125 353.975 99.525 359.6 96.5 364 C 93.475 368.4 89.65 372.675 88 373.5 C 86.35 374.325 85.225 374.55 85.5 374 C 85.775 373.45 86.9 371.425 88 369.5 C 89.1 367.575 91.575 363.75 93.5 361 C 95.425 358.25 99.025 353.975 101.5 351.5 C 103.975 349.025 106.225 347 106.5 347 Z  M 379 348 C 377.808 347.404 378.01 348.616 379.5 351 C 381.478 354.165 381.896 354.374 381.5 352 C 381.225 350.35 380.1 348.55 379 348 Z  M 377 361.5 L 373 357 L 376 361.5 C 377.65 363.975 379.9 366.675 381 367.5 C 382.1 368.325 382.55 368.325 382 367.5 C 381.45 366.675 379.2 363.975 377 361.5 Z  M 209.5 407 C 209.225 407 209.225 409.7 209.5 413 L 210 419 L 206 415.5 L 202 412 L 202.5 416 L 203 420 L 207 419.5 C 209.2 419.225 211.45 419.225 212 419.5 C 212.55 419.775 212.325 417.075 211.5 413.5 C 210.675 409.925 209.775 407 209.5 407 Z  M 239.5 410 C 238.304 408.406 237.797 408.71 237 411.5 C 236.45 413.425 236.225 416.125 236.5 417.5 C 236.846 419.232 238.229 419.846 241 419.5 L 245 419 L 243 415.5 C 241.9 413.575 240.325 411.1 239.5 410 Z  M 218 412.5 C 217.45 412.225 216.775 413.8 216.5 416 L 216 420 L 219 419.5 L 222 419 L 220.5 416 C 219.675 414.35 218.55 412.775 218 412.5 Z  M 232.5 416.5 L 231 414 L 230 417 C 229.222 419.334 229.555 419.889 231.5 419.5 C 233.327 419.135 233.596 418.327 232.5 416.5 Z " fill-rule="evenodd" fill="rgb(0,0,0)"/></g></svg>
